<svg transform="scale(1)" version="1.1" id="Layer_1" xmlns="http://www.w3.org/2000/svg" xmlns:xlink="http://www.w3.org/1999/xlink" x="0px" y="0px" viewBox="0 0 500 500" xml:space="preserve" class="show_show__wrapper__graphic__5Waiy "><title>React</title><style type="text/css">
	.st0{fill:#F2EBEB;}
	.st1{fill:#e63946;}
	.st2{clip-path:url(#SVGID_2_);}
	.st3{fill:#000001;}
	.st4{fill:#A04040;}
	.st5{fill:#EA8383;}
</style><g id="megaphone"><path class="st0" d="M172.3,317.1c0,0-1.4,75.7,44.7,130.1c0,0,53.3,4.9,64.9,0s-68.7-62-72.9-141L172.3,317.1z"></path><path class="st1" d="M148.7,255.9c0,0-28.9,4.7-35.7,4.1c0,0-41.8,49.6,11.9,81.2c0,0,27.2-9.2,34.3-9.2
		C159.2,331.9,137.2,292.9,148.7,255.9z"></path><path class="st1" d="M342.1,140.3c0,0-34.2,69-175.3,113.5c0,0-15.6,49.2,15.6,75.6c0,0,157.3,6.6,202.3,31.8L342.1,140.3z"></path><g><defs><path id="SVGID_1_" d="M342.1,140.3c0,0-34.2,69-175.3,113.5l-18.1,2.1l-2.6,12.1c0.5-4.1,1.4-8.2,2.6-12.1
				c0,0-28.9,4.8-35.7,4.1c0,0-41.8,49.6,11.9,81.2c0,0,27.2-9.2,34.3-9.2l23.2-2.5c0,0,157.3,6.6,202.3,31.8L342.1,140.3z"></path></defs><clipPath id="SVGID_2_"><use xlink:href="#SVGID_1_" style="overflow: visible;"></use></clipPath><g class="st2"><path class="st0" d="M395.5,478.2h-0.1L24.8,361.6c-0.3-0.1-0.4-0.4-0.3-0.6c0.1-0.3,0.4-0.4,0.6-0.3l370.5,116.6
				c0.3,0,0.5,0.3,0.4,0.6C396,478.1,395.8,478.3,395.5,478.2L395.5,478.2z"></path><path class="st0" d="M403,452.1h-0.1L31.1,342.4c-0.3-0.1-0.4-0.4-0.3-0.6c0.1-0.3,0.4-0.4,0.6-0.3l371.8,109.7
				c0.3,0,0.5,0.3,0.4,0.6S403.3,452.1,403,452.1L403,452.1z"></path><path class="st0" d="M410,427.7c0,0-0.1,0-0.1,0L37.2,321.1c-0.3-0.1-0.4-0.4-0.4-0.6c0.1-0.3,0.4-0.4,0.6-0.4l372.6,106.6
				c0.3,0.1,0.4,0.4,0.3,0.6C410.4,427.5,410.2,427.7,410,427.7z"></path><path class="st0" d="M416.6,404.6h-0.1L43,300.2c-0.3-0.1-0.4-0.4-0.3-0.6c0.1-0.3,0.4-0.4,0.6-0.4l373.4,104.4
				c0.3,0.1,0.4,0.3,0.4,0.6c0,0,0,0,0,0C417,404.4,416.8,404.6,416.6,404.6z"></path><path class="st0" d="M423.7,379.6h-0.1L48.2,282.7c-0.3-0.1-0.4-0.3-0.4-0.6c0,0,0,0,0,0c0.1-0.3,0.3-0.4,0.6-0.4l375.4,96.9
				c0.3,0,0.5,0.3,0.4,0.6S424,379.7,423.7,379.6L423.7,379.6z"></path><path class="st0" d="M429.9,358.5h-0.1L53.7,263.9c-0.3-0.1-0.4-0.3-0.4-0.6c0,0,0,0,0,0c0.1-0.3,0.3-0.4,0.6-0.4L430,357.5
				c0.3,0.1,0.4,0.3,0.4,0.6c0,0,0,0,0,0C430.3,358.3,430.1,358.5,429.9,358.5z"></path><path class="st0" d="M433.7,345.1h-0.1L57.1,251.8c-0.3-0.1-0.4-0.3-0.4-0.6c0.1-0.3,0.3-0.4,0.6-0.4l376.5,93.2
				c0.3,0,0.5,0.3,0.4,0.6S434,345.1,433.7,345.1L433.7,345.1z"></path><path class="st0" d="M437,333.5h-0.1L61.5,236.6c-0.3-0.1-0.4-0.3-0.4-0.6c0,0,0,0,0,0c0.1-0.3,0.3-0.4,0.6-0.4l375.4,96.9
				c0.3,0,0.5,0.3,0.4,0.6S437.3,333.5,437,333.5L437,333.5z"></path><path class="st0" d="M96.1,474h-0.1c-0.3-0.1-0.4-0.4-0.3-0.6l89.8-314c0.1-0.3,0.3-0.4,0.6-0.4c0,0,0,0,0,0
				c0.3,0.1,0.4,0.4,0.4,0.6l-89.8,314C96.5,473.9,96.3,474,96.1,474z"></path><path class="st0" d="M77.2,468H77c-0.3-0.1-0.4-0.4-0.3-0.6l92.5-308.8c0.1-0.3,0.4-0.4,0.6-0.3c0.3,0.1,0.4,0.4,0.3,0.6
				L77.6,467.7C77.6,467.9,77.4,468,77.2,468z"></path><path class="st0" d="M56.3,462.1h-0.1c-0.3-0.1-0.4-0.4-0.3-0.6l68.6-239.9c0.1-0.3,0.3-0.4,0.6-0.4c0,0,0,0,0,0
				c0.3,0.1,0.4,0.3,0.3,0.6c0,0,0,0,0,0L56.8,461.7C56.7,461.9,56.5,462.1,56.3,462.1z"></path><path class="st0" d="M35.8,456.3c0,0-0.1,0-0.1,0c-0.3-0.1-0.4-0.3-0.3-0.6l66.4-240.6c0.1-0.3,0.4-0.4,0.6-0.4
				c0.3,0.1,0.4,0.4,0.4,0.6l0,0L36.3,456C36.2,456.2,36.1,456.3,35.8,456.3z"></path><path class="st0" d="M18.7,451.3h-0.1c-0.3-0.1-0.4-0.3-0.4-0.6l59.1-242.6c0.1-0.3,0.3-0.4,0.6-0.4c0.3,0.1,0.4,0.3,0.4,0.6
				L19.2,450.9C19.2,451.2,19,451.3,18.7,451.3z"></path><path class="st0" d="M0.3,446H0.2c-0.3-0.1-0.4-0.3-0.4-0.6c0,0,0,0,0,0l56.8-243.3c0.1-0.3,0.3-0.4,0.6-0.4
				c0.3,0.1,0.4,0.3,0.4,0.6L0.8,445.6C0.8,445.8,0.5,446,0.3,446z"></path><path class="st0" d="M-11.5,442.6h-0.1c-0.3-0.1-0.4-0.3-0.4-0.6c0,0,0,0,0,0l55.5-243.6c0.1-0.3,0.3-0.4,0.6-0.4c0,0,0,0,0,0
				c0.3,0.1,0.4,0.3,0.4,0.6c0,0,0,0,0,0L-11,442.2C-11.1,442.5-11.3,442.6-11.5,442.6z"></path><path class="st0" d="M-26.4,438.3h-0.1c-0.3-0.1-0.4-0.3-0.4-0.6c0,0,0,0,0,0l59.1-242.6c0.1-0.3,0.3-0.4,0.6-0.4c0,0,0,0,0,0
				c0.3,0.1,0.4,0.3,0.4,0.6L-25.9,438C-26,438.2-26.2,438.3-26.4,438.3z"></path><path class="st0" d="M168.4,510.9h-0.1c-0.3-0.1-0.4-0.4-0.3-0.6L290.5,118c0.1-0.3,0.4-0.4,0.6-0.3c0,0,0,0,0,0
				c0.3,0.1,0.4,0.4,0.3,0.6c0,0,0,0,0,0L168.9,510.6C168.8,510.8,168.6,510.9,168.4,510.9z"></path><path class="st0" d="M149.5,504.7h-0.1c-0.3-0.1-0.4-0.4-0.3-0.6l115.8-393.5c0.1-0.3,0.4-0.4,0.6-0.4c0.3,0.1,0.4,0.4,0.4,0.6
				L150,504.4C149.9,504.6,149.7,504.7,149.5,504.7z"></path><path class="st0" d="M128.7,498.8h-0.1c-0.3-0.1-0.4-0.4-0.4-0.6L241,103.8c0.1-0.3,0.4-0.4,0.6-0.4c0.3,0.1,0.4,0.4,0.4,0.6
				L129.1,498.4C129.1,498.6,128.9,498.8,128.7,498.8z"></path><path class="st0" d="M108.2,493.1h-0.1c-0.3-0.1-0.4-0.3-0.4-0.6c0,0,0,0,0,0L218.4,97.3c0.1-0.3,0.4-0.4,0.6-0.3c0,0,0,0,0,0
				c0.3,0.1,0.4,0.4,0.3,0.6l0,0L108.7,492.7C108.6,492.9,108.4,493.1,108.2,493.1z"></path><path class="st0" d="M91.1,488H91c-0.3-0.1-0.4-0.3-0.4-0.6c0,0,0,0,0,0l103.3-397c0.1-0.3,0.3-0.4,0.6-0.4c0,0,0,0,0,0
				c0.3,0.1,0.4,0.3,0.4,0.6c0,0,0,0,0,0l-103.3,397C91.5,487.9,91.3,488,91.1,488z"></path><path class="st0" d="M72.7,482.6h-0.1c-0.3-0.1-0.4-0.3-0.4-0.6c0,0,0,0,0,0l101-397.7c0.1-0.3,0.3-0.4,0.6-0.4c0,0,0,0,0,0
				c0.3,0.1,0.4,0.3,0.4,0.6c0,0,0,0,0,0l-101,397.7C73.1,482.5,72.9,482.6,72.7,482.6z"></path><path class="st0" d="M60.9,479.3h-0.1c-0.3-0.1-0.4-0.3-0.4-0.6c0,0,0,0,0,0l99.7-398.1c0.1-0.3,0.3-0.4,0.6-0.4
				c0.3,0.1,0.4,0.3,0.4,0.6c0,0,0,0,0,0l-99.7,398C61.3,479.1,61.1,479.3,60.9,479.3z"></path><path class="st0" d="M46,475h-0.1c-0.3-0.1-0.4-0.3-0.4-0.6c0,0,0,0,0,0l103.3-397c0.1-0.3,0.3-0.4,0.6-0.4s0.4,0.3,0.4,0.6
				l-103.3,397C46.5,474.9,46.2,475,46,475z"></path><path class="st0" d="M384.6,313c0,0-0.1,0-0.1,0L79.6,215.2c-0.3-0.1-0.4-0.4-0.3-0.6c0.1-0.3,0.4-0.4,0.7-0.4L384.7,312
				c0.3,0.1,0.4,0.4,0.3,0.6c0,0,0,0,0,0C385,312.8,384.8,313,384.6,313z"></path><path class="st0" d="M392.1,286.8h-0.1L85.8,195.9c-0.3-0.1-0.4-0.4-0.3-0.6c0.1-0.3,0.3-0.4,0.6-0.3c0,0,0,0,0,0l306.1,90.9
				c0.3,0,0.5,0.3,0.4,0.6S392.4,286.8,392.1,286.8L392.1,286.8z"></path><path class="st0" d="M399,262.4h-0.1l-307-87.8c-0.3-0.1-0.4-0.4-0.3-0.6c0.1-0.3,0.4-0.4,0.6-0.3l0,0l307,87.8
				c0.3,0.1,0.4,0.3,0.3,0.6c0,0,0,0,0,0C399.5,262.3,399.3,262.4,399,262.4z"></path><path class="st0" d="M405.7,239.3c0,0-0.1,0-0.1,0L97.8,153.7c-0.3-0.1-0.4-0.4-0.4-0.6c0.1-0.3,0.4-0.4,0.6-0.4l0,0l307.8,85.6
				c0.3,0,0.5,0.3,0.4,0.6S405.9,239.3,405.7,239.3L405.7,239.3z"></path><path class="st0" d="M412.8,214.3h-0.1l-309.8-78.1c-0.3-0.1-0.4-0.3-0.4-0.6c0.1-0.3,0.3-0.4,0.6-0.4l0,0l309.8,78.1
				c0.3,0.1,0.4,0.3,0.4,0.6C413.3,214.2,413.1,214.3,412.8,214.3z"></path><path class="st0" d="M418.9,193.2h-0.1l-310.5-75.8c-0.3-0.1-0.4-0.3-0.4-0.6c0,0,0,0,0,0c0.1-0.3,0.3-0.4,0.6-0.4c0,0,0,0,0,0
				l310.5,75.8c0.3,0.1,0.4,0.3,0.4,0.6c0,0,0,0,0,0C419.4,193,419.2,193.2,418.9,193.2z"></path><path class="st0" d="M422.8,179.8h-0.1l-310.8-74.4c-0.3-0.1-0.4-0.3-0.4-0.6c0.1-0.3,0.3-0.4,0.6-0.4l310.8,74.5
				c0.3,0.1,0.4,0.3,0.4,0.6C423.2,179.6,423,179.8,422.8,179.8z"></path><path class="st0" d="M426.1,168.2H426L116.2,90.1c-0.3-0.1-0.4-0.3-0.4-0.6c0.1-0.3,0.3-0.4,0.6-0.4c0,0,0,0,0,0l309.8,78.1
				c0.3,0.1,0.4,0.3,0.4,0.6c0,0,0,0,0,0C426.5,168.1,426.3,168.2,426.1,168.2z"></path><path class="st0" d="M317.1,561.6h-0.1c-0.3-0.1-0.4-0.4-0.3-0.6l122.6-392.4c0.1-0.3,0.4-0.4,0.6-0.3c0,0,0,0,0,0
				c0.3,0.1,0.4,0.4,0.3,0.6c0,0,0,0,0,0L317.6,561.2C317.5,561.4,317.3,561.6,317.1,561.6z"></path><path class="st0" d="M298.2,555.4h-0.1c-0.3-0.1-0.4-0.4-0.3-0.6l115.8-393.5c0.1-0.3,0.4-0.4,0.6-0.4c0.3,0.1,0.4,0.4,0.4,0.6
				L298.7,555C298.7,555.2,298.5,555.4,298.2,555.4z"></path><path class="st0" d="M277.4,549.4h-0.1c-0.3-0.1-0.4-0.4-0.4-0.6l112.8-394.3c0.1-0.3,0.4-0.4,0.6-0.4c0.3,0.1,0.4,0.4,0.4,0.6
				l0,0L277.9,549C277.8,549.2,277.6,549.4,277.4,549.4z"></path><path class="st0" d="M256.9,543.7h-0.1c-0.3-0.1-0.4-0.3-0.4-0.6c0,0,0,0,0,0L367.1,148c0.1-0.3,0.4-0.4,0.6-0.4
				c0.3,0.1,0.4,0.4,0.3,0.6L257.4,543.3C257.3,543.6,257.1,543.7,256.9,543.7z"></path><path class="st0" d="M239.8,538.6h-0.1c-0.3-0.1-0.4-0.3-0.4-0.6c0,0,0,0,0,0l103.3-397c0.1-0.3,0.3-0.4,0.6-0.4c0,0,0,0,0,0
				c0.3,0.1,0.4,0.3,0.4,0.6c0,0,0,0,0,0l-103.3,397C240.2,538.5,240.1,538.6,239.8,538.6z"></path><path class="st0" d="M221.4,533.3h-0.1c-0.3-0.1-0.4-0.3-0.4-0.6c0,0,0,0,0,0l101-397.7c0.1-0.3,0.3-0.4,0.6-0.4c0,0,0,0,0,0
				c0.3,0.1,0.4,0.3,0.4,0.6c0,0,0,0,0,0l-101,397.7C221.8,533.1,221.6,533.3,221.4,533.3z"></path><path class="st0" d="M209.6,529.9h-0.1c-0.3-0.1-0.4-0.3-0.4-0.6c0,0,0,0,0,0l99.7-398c0.1-0.3,0.3-0.4,0.6-0.4
				c0.3,0.1,0.4,0.3,0.4,0.6c0,0,0,0,0,0l-99.7,398C210,529.8,209.8,529.9,209.6,529.9z"></path><path class="st0" d="M194.7,525.6h-0.1c-0.3-0.1-0.4-0.3-0.4-0.6c0,0,0,0,0,0l103.3-397c0.1-0.3,0.3-0.4,0.6-0.4s0.4,0.3,0.4,0.6
				l-103.3,397C195.1,525.5,194.9,525.7,194.7,525.6z"></path></g></g><path class="st1" d="M182.4,329.4l-23.5,1.9c0,0-19.3-23.9-19.6-45s9.4-30.4,9.4-30.4l18.1-2.1
		C166.8,253.8,151.1,279.7,182.4,329.4z"></path><path class="st3" d="M342.1,140.3c0,0-33.7,58.4-16.9,126.1s59.5,94.8,59.5,94.8s36.5-35.5,34.9-105.4S342.1,140.3,342.1,140.3z"></path><path class="st0" d="M366.3,218.4h-45.5c0,0-3.6,59.1,17.5,84.5l46.5-31L366.3,218.4z"></path><path class="st1" d="M364.2,241.4c0,0,5.2,22.1,20.5,30.5c0,0,3.9-38.7-18.4-53.5C366.3,218.4,360.4,226.4,364.2,241.4z"></path><path class="st1" d="M399.7,258.9c4.3-0.1,8.5,0,12.8,0.1s8.5,0.4,12.7,0.7s8.5,0.6,12.7,1.1s8.4,0.9,12.6,1.6
		c-4.3,0.1-8.5,0-12.8-0.1s-8.5-0.4-12.7-0.7s-8.5-0.6-12.7-1.1S403.9,259.6,399.7,258.9z"></path><path class="st1" d="M397.7,237.5c2.8-1.1,5.6-2.1,8.4-3s5.7-1.7,8.6-2.5s5.8-1.4,8.7-2s5.8-1.1,8.8-1.5c-2.8,1.1-5.6,2.1-8.4,3
		s-5.7,1.7-8.6,2.4s-5.8,1.4-8.7,2S400.7,237.1,397.7,237.5z"></path><path class="st1" d="M391.3,218.4c0.4-0.9,0.9-1.8,1.5-2.6c1.2-1.5,2.6-2.9,4.2-4c0.8-0.6,1.7-1.1,2.6-1.4
		c-0.4,0.9-0.9,1.8-1.5,2.6c-0.6,0.8-1.2,1.5-1.9,2.1c-0.7,0.7-1.4,1.3-2.2,1.8C393.1,217.5,392.2,218,391.3,218.4z"></path></g><g id="light"><path class="st1" d="M323.7,114c0,0,0.2-2.6-1.5-10c-0.8-3.5-7.4-16.5,4.5-22.6s21.3,2.3,19.9,13.5S332,116,332,116L323.7,114z"></path><path class="st0" d="M325.3,113.8c0.6-2.6,1.2-5.2,1.7-7.8c0.6-2.5,0.9-5.1,1-7.7c0-0.6-0.1-1.2-0.2-1.7c-0.1-0.2-0.2-0.4-0.2-0.4
		c-0.1-0.1-0.1-0.1-0.2-0.1c-0.3,0.2-0.6,0.5-0.7,0.9c-0.2,0.5-0.3,1.1-0.3,1.6c-0.1,1.1,0.3,2.2,0.9,3.2c0.7,0.9,1.6,1.5,2.7,1.8
		c2.3,0.6,4.8,0.4,6.9-0.7c0.5-0.3,0.9-0.6,1.3-1c0.3-0.3,0.4-0.6,0.5-1c0-0.1-0.1-0.1-0.2-0.2c-0.1-0.1-0.2-0.1-0.3-0.1l-0.3-0.1
		c-0.4,0-0.9,0.2-1.1,0.6c-0.9,0.9-1.6,1.9-2.2,3c-0.7,1.1-1.2,2.3-1.8,3.5c-1.1,2.4-2.1,4.8-3.1,7.3c0.6-2.6,1.3-5.2,2.2-7.7
		c0.5-1.3,1-2.5,1.6-3.7c0.6-1.3,1.4-2.5,2.3-3.5c0.3-0.3,0.6-0.5,1-0.8c0.4-0.2,0.9-0.4,1.4-0.3c0.2,0,0.5,0,0.7,0.1
		c0.2,0.1,0.4,0.2,0.6,0.3c0.5,0.3,0.8,0.7,1,1.2c0.1,0.5,0.1,1-0.1,1.5c-0.2,0.4-0.4,0.8-0.6,1.1c-0.5,0.6-1.1,1.1-1.7,1.5
		c-1.3,0.7-2.7,1.2-4.1,1.3c-1.4,0.2-2.9,0-4.3-0.3c-1.5-0.4-2.8-1.3-3.8-2.6c-0.9-1.3-1.3-2.8-1.2-4.4c0-0.8,0.2-1.5,0.5-2.2
		c0.2-0.4,0.4-0.7,0.7-1.1c0.3-0.4,0.8-0.7,1.3-0.8c0.6-0.1,1.2,0,1.6,0.4c0.4,0.3,0.7,0.8,0.8,1.3c0.2,0.7,0.2,1.5,0.2,2.2
		c-0.2,2.7-0.8,5.3-1.6,7.9C327.1,108.9,326.3,111.4,325.3,113.8z"></path><path class="st3" d="M322.9,112.7l10.4,2.7l0,0l-0.2,0.8c-0.7,2.9-3.7,4.6-6.6,3.9l0,0l0,0c-2.9-0.7-4.6-3.7-3.9-6.6c0,0,0,0,0,0
		L322.9,112.7L322.9,112.7L322.9,112.7z"></path><path class="st3" d="M321.9,116.4l10.4,2.7l0,0l0,0c-0.7,2.9-3.7,4.6-6.6,3.9l0,0l0,0C322.9,122.2,321.2,119.3,321.9,116.4
		C321.9,116.4,321.9,116.4,321.9,116.4L321.9,116.4L321.9,116.4L321.9,116.4z"></path><path class="st1" d="M330.8,78.7c-0.5-0.4-0.9-0.9-1.2-1.5c-0.3-0.5-0.5-1.1-0.6-1.6c-0.1-0.6-0.2-1.2-0.2-1.7
		c0-0.6,0.1-1.2,0.3-1.8c0.5,0.4,0.9,0.9,1.2,1.5c0.5,1,0.8,2.2,0.8,3.4C331.1,77.5,331,78.1,330.8,78.7z"></path><path class="st1" d="M327,80.4c-0.6-0.1-1.2-0.3-1.8-0.6c-0.5-0.3-1-0.6-1.4-1c-0.4-0.4-0.8-0.8-1.1-1.3c-0.3-0.5-0.6-1.1-0.7-1.7
		c0.6,0.1,1.2,0.3,1.8,0.6c1,0.5,1.9,1.4,2.5,2.3C326.6,79.2,326.9,79.8,327,80.4z"></path><path class="st1" d="M323.2,82.3c-0.3,0.2-0.6,0.4-1,0.4c-0.3,0-0.5,0-0.8-0.1c-0.2-0.1-0.5-0.3-0.6-0.5c-0.2-0.3-0.3-0.6-0.4-1
		c0.3-0.2,0.6-0.4,1-0.4c0.3,0,0.5,0,0.8,0.1c0.2,0.1,0.5,0.3,0.6,0.5C323,81.6,323.1,82,323.2,82.3z"></path><path class="st0" d="M326.7,84.5c-0.3,0.6-0.6,1.1-0.9,1.6c-0.3,0.5-0.6,0.9-1,1.3s-0.7,0.8-1.1,1.2c-0.4,0.4-0.9,0.8-1.4,1.2
		c-0.3-1.3,0.1-2.7,1-3.7c0.4-0.5,0.9-0.9,1.5-1.2C325.3,84.6,326,84.4,326.7,84.5z"></path><path class="st0" d="M321.9,90.4c0,0-0.6,0.6-0.4,1S322.3,90,321.9,90.4z"></path></g><g id="like"><path class="st3" d="M173.6,79.3c0,0-3.5-30.5,0-33.7s56-5.1,60.3,0s5.1,31.7,2,33.7S210,82.2,210,82.2s-3,13.6-6.5,13.6
		S195,82.9,195,82.9S174,82.6,173.6,79.3z"></path><path class="st0" d="M204.5,76.2c0,0-13.7-8.8-13.2-18.7s7.9-7.4,10.4-2.5c0,0,6.3-9.5,12.9-2.9S205.6,68.3,204.5,76.2z"></path></g><g id="ladder"><path class="st3" d="M114.1,455.9c0,0,40.7-131.8,43.3-130.4S119.2,458.2,114.1,455.9z"></path><path class="st3" d="M171.8,457.4c0,0,40.7-148.4,43.3-146.8S176.9,460,171.8,457.4z"></path><path class="st3" d="M118.1,429.3c0,0,61,6.3,67,3.5S108.6,424.6,118.1,429.3z"></path><path class="st3" d="M129.7,394.7c0,0,61,6.2,67,3.5S120.2,390,129.7,394.7z"></path><path class="st3" d="M141.6,362.8c0,0,61,6.2,67,3.5S132.2,358.1,141.6,362.8z"></path><path class="st3" d="M148.5,333.6c0,0,60.9,6.2,67,3.5S139,328.9,148.5,333.6z"></path></g><g id="thumb-up"><path class="st4" d="M102.8,145.4c0,0-4.2,1.8-8.3-6.3c-3.9-7.8-3.9-18.7-7.2-18.1s-4.9,9.4-3.6,16.2c0,0-12.5-1-13.9,2.2
		s1.4,4.4,1.4,4.4s-8.5,3.1-3.8,8c0,0-5.3,4.1-0.7,8s15.5,5.6,15.2,1.5c0,0,4.7,6.5,10.7,3.1S102.8,145.4,102.8,145.4z"></path><path class="st3" d="M69.6,153c1.5,0.5,2.9,1,4.3,1.5l2.1,0.7c0.7,0.2,1.3,0.4,2,0.6c1.4,0.3,2.8,0.5,4.2,0.6c0.7,0,1.4-0.1,2-0.3
		c0.3-0.1,0.5-0.3,0.7-0.5c0.1-0.2,0.1-0.3,0.2-0.5v-0.6l0.3,0.5c0,0.2,0.1,0.4,0.1,0.6c-0.1,0.5-0.3,0.9-0.7,1.2
		c-0.7,0.5-1.5,0.9-2.3,1c-2.4,0.4-4.9,0-7.1-1c-0.7-0.3-1.4-0.7-2-1.1C72,155.1,70.7,154.1,69.6,153z"></path><path class="st3" d="M72.5,143.9l6.2,2.7c2,0.9,4.1,1.6,6.2,2.1c0.2,0,0.5,0.1,0.8,0.1c0.2,0,0.5,0,0.7,0c0.4,0,0.8-0.1,1.1-0.3
		l0.1-0.1c0-0.1,0-0.2-0.1-0.4c-0.2-0.4-0.4-0.8-0.8-1.2c-1.5-1.7-3.1-3.2-4.9-4.6c2.2,0.8,4.3,2,6,3.6c0.5,0.4,0.9,1,1.2,1.6
		c0.2,0.4,0.3,0.9,0.2,1.3c-0.1,0.5-0.3,1-0.8,1.3c-0.6,0.4-1.3,0.7-2.1,0.7c-0.3,0-0.7,0-1,0c-0.3,0-0.6,0-0.9-0.1
		c-2.3-0.5-4.6-1.4-6.6-2.7C76.1,146.9,74.2,145.5,72.5,143.9z"></path><path class="st3" d="M64.9,157.9c1.5,1.1,3,2,4.7,2.7c1.7,0.7,3.4,1.2,5.1,1.6c0.4,0.1,0.9,0.2,1.3,0.3c0.4,0.1,0.9,0.2,1.3,0.2
		c0.4,0.1,0.8,0.1,1.3,0.1c0.4,0,0.8-0.1,1.2-0.1c0.8-0.1,1.4-0.6,1.8-1.2c0.4-0.8,0.6-1.7,0.4-2.6c0.6,0.9,0.7,1.9,0.5,2.9
		c-0.1,0.5-0.4,1.1-0.8,1.5c-0.4,0.4-0.9,0.7-1.4,0.9c-1,0.4-2,0.5-3.1,0.5c-0.5,0-1-0.1-1.5-0.1c-0.5-0.1-1-0.1-1.4-0.3
		c-1.9-0.4-3.7-1.2-5.4-2.2C67.2,161.1,65.8,159.6,64.9,157.9z"></path><path class="st1" d="M100.9,169.9c0,0-10.9-1.7-10.9-2.9s7.8-21.1,8.7-23.8s11,1.7,11,1.7S107.6,165.7,100.9,169.9z"></path><path class="st0" d="M94.8,166.1c0,0,2,1.9,3.1,1s-0.7-3.3-1.6-3.4S93.7,165.3,94.8,166.1z"></path></g><g id="bubble"><path class="st0" d="M399.7,111.1c0,0-2.8,1.2-5.4-4.1c-2.6-5.1-2.6-12.2-4.7-11.9s-3.2,6.2-2.3,10.6c0,0-8.2-0.7-9.1,1.5
		c-0.6,1-0.2,2.3,0.8,2.8c0,0,0.1,0,0.1,0.1c0,0-5.6,2-2.5,5.2c0,0-3.5,2.7-0.5,5.2s10.1,3.7,10,1c0,0,3.1,4.2,7,2
		S399.7,111.1,399.7,111.1z"></path><path class="st0" d="M398.4,127.2c0,0-7.1-1.1-7.1-1.9s5.1-13.8,5.7-15.6s7.2,1.1,7.2,1.1S402.9,124.4,398.4,127.2z"></path><path class="st0" d="M394.5,124.7c0,0,1.3,1.2,2.1,0.7s-0.4-2.1-1-2.2S393.7,124.2,394.5,124.7z"></path><path class="st0" d="M65.1,238.9c0,0-2.8,1.2-5.4-4.1c-2.6-5.1-2.6-12.2-4.7-11.9s-3.2,6.2-2.3,10.6c0,0-8.2-0.7-9.1,1.5
		c-0.6,1-0.2,2.3,0.8,2.8c0,0,0.1,0.1,0.1,0.1c0,0-5.6,2-2.5,5.2c0,0-3.5,2.7-0.5,5.2s10.1,3.7,10,1c0,0,3.1,4.2,7,2
		S65.1,238.9,65.1,238.9z"></path><path class="st0" d="M63.8,255c0,0-7.1-1.1-7.1-1.9s5.1-13.8,5.7-15.6s7.2,1.1,7.2,1.1S68.2,252.2,63.8,255z"></path><path class="st0" d="M59.8,252.5c0,0,1.3,1.2,2.1,0.7s-0.4-2.1-1-2.2S59.1,252,59.8,252.5z"></path><path class="st0" d="M448,200.8c0,0-13.6-8.8-13.2-18.7s7.9-7.4,10.4-2.5c0,0,6.3-9.5,12.9-2.9S449.2,193,448,200.8z"></path><path class="st0" d="M74.3,389c0,0-13.7-8.8-13.2-18.7s7.9-7.3,10.5-2.5c0,0,6.3-9.5,12.9-2.9S75.4,381.1,74.3,389z"></path></g><g id="character"><path class="st1" d="M195.5,149.2l-41.7,7.9l5.5-25.5l-10-4.4c0,0-23.5,45.1-6.7,47.2c3.6,0.4,23.3-0.3,36.1-2.3
		C184.6,166.4,195.5,149.2,195.5,149.2z"></path><path class="st1" d="M184.6,213.2l0.3-27.6c0,0-5.3-8.6-5.5-14.5s10.4-17,15.5-20.9c7.3-5.4,18,0.6,19.5,4c6.2,13.3,4.4,59,4.4,59
		S192.2,215.4,184.6,213.2z"></path><path class="st5" d="M159.3,131.5c0,0,4.2-7.4,9.1-9.3s0.9-3.6-3-2.6c0,0,4.2-8.8,6-10.8s-2.7-3.8-7.7,5.6c0,0,2-4.9,3.2-7
		s-1-3.8-4.1,0.8c-1.7,2.4-3.2,5-4.6,7.6c0,0,2-5.3,3.2-6.9s-1.2-3.1-4.9,2.2s-6.8,15-7.2,16.1S159.3,131.5,159.3,131.5z"></path><path class="st3" d="M157.6,122.5c-0.1-0.9,0.2-1.8,0.7-2.5c0.6-0.7,1.4-1.2,2.2-1.5c0.8-0.2,1.7-0.3,2.6-0.1
		c0.4,0.1,0.8,0.3,1.2,0.4c0.4,0.2,0.7,0.5,1,0.7c-0.4,0.1-0.8,0.2-1.2,0.2c-0.4,0.1-0.8,0.1-1.1,0.2c-0.7,0.1-1.3,0.2-2,0.4
		C159.8,120.9,158.6,121.6,157.6,122.5z"></path><path class="st3" d="M197.7,137.1c-3.6,0-16.4-0.2-16.4-0.2s3.4-11.8,8.8-12.1S197.7,137.1,197.7,137.1z"></path><path class="st5" d="M194.5,162.1c-0.6,0.5-1.5,0.4-2-0.2c-0.3-0.3-0.4-0.7-0.3-1.2c1.1-5.7,4.9-22.5,1.4-23.3
		c-6.4-1.5-9.1-10.2-9.1-10.2s-5.3-2.4-5.2-3.6s4.7-3.3,7.8-6s5.4-6.5,8.9-5.4s-1.1,5.3,0.9,9.6c1.2,2.6,4.3,2.8,4.3,2.8
		s1.1-4,5-0.7s-3.2,7.2-2.9,8.4c0.7,2.3,0.7,17.8,1.2,20.7C204.5,153.5,197.6,159.6,194.5,162.1z"></path><path class="st3" d="M195.2,122.4c-0.8-0.2-1.6-0.3-2.4-0.3c-0.4,0-0.7,0-1.1,0.1c-0.4,0.1-0.8,0.2-1.2,0.3c0.2-0.4,0.5-0.8,0.9-1
		c0.4-0.3,0.9-0.4,1.4-0.4c0.5,0,1,0.1,1.4,0.3C194.6,121.6,195,122,195.2,122.4z"></path><path class="st3" d="M195,124.6c-0.1-0.1-0.3-0.1-0.4-0.1c-0.1,0-0.1-0.1-0.2-0.1c-0.1-0.1-0.1-0.3,0-0.7c0.3-0.2,0.6-0.1,0.8,0.1
		c0.1,0.1,0.1,0.3,0.1,0.4C195.3,124.3,195.2,124.5,195,124.6z"></path><path class="st3" d="M193.4,124.9c-0.4-0.2-0.5-0.3-0.6-0.4c0-0.1,0-0.2,0-0.2c0-0.1,0.1-0.3,0.1-0.4c0.2-0.1,0.4-0.1,0.5,0
		c0.1,0.1,0.2,0.2,0.3,0.3C193.9,124.4,193.7,124.7,193.4,124.9z"></path><path class="st4" d="M192.1,131.1c-0.4-0.6-1.3-0.8-1.9-0.5c-1.1,0.6,0.6,3.5,2.4,3.1S192.1,131.1,192.1,131.1z"></path><path class="st3" d="M192.4,129.5c0.4,1,0.2,2.1-0.6,2.8c-0.4,0.3-0.9,0.6-1.4,0.7c-0.5,0.1-1,0-1.5-0.1c0.2-0.1,0.4-0.2,0.6-0.3
		s0.4-0.2,0.6-0.3c0.4-0.2,0.7-0.4,1-0.6C191.8,131,192.2,130.2,192.4,129.5z"></path><path class="st3" d="M194.9,119.6c-0.5-0.4-1-0.8-1.6-1.1c-0.3-0.1-0.5-0.3-0.8-0.4c-0.3-0.1-0.6-0.2-1-0.4
		c0.7-0.5,1.6-0.5,2.3-0.1C194.5,118,195,118.8,194.9,119.6z"></path><path class="st4" d="M193.1,111.6c0,0,2,12.4,9.6,17c0,0-7.3,3.8-6.1,8s-6,5.4-5.7,8.7l37.1-2.8c0,0-3.1-10.4-10.3-10.6
		s2.1-8.2-5.6-15.7S193.1,111.6,193.1,111.6z"></path><path class="st3" d="M193.1,111.6c0.3,1.2,0.6,2.3,1,3.4c0.4,1.1,0.8,2.2,1.2,3.3c0.9,2.1,2,4.2,3.4,6c1.4,1.8,3.2,3.3,5.2,4.2
		c2.2,0.9,4.5,1.2,6.8,0.9c-1.1,0.3-2.3,0.5-3.5,0.4c-1.2,0-2.4-0.2-3.6-0.6c-1.1-0.4-2.2-1-3.2-1.8c-1-0.8-1.8-1.6-2.6-2.6
		c-1.5-1.9-2.6-4-3.4-6.3C193.8,116.3,193.3,114,193.1,111.6z"></path><polygon class="st3" points="194.9,145.1 204,146.1 203.9,144.4 	"></polygon><path class="st5" d="M262.4,92.6c0,0,4.1-7.5,3.1-12.7s2.6-2.6,3.8,1.2c0,0,5.3-8.2,6-10.8s4.7,0.3-0.7,9.5c0,0,3.1-4.2,4.3-6.4
		s3.8-1.1,1.5,3.9c-1.2,2.7-2.5,5.3-4,7.9c0,0,3.5-4.5,4.2-6.4s3.3-0.6,0.7,5.3s-9.2,13.6-9.9,14.5S262.4,92.6,262.4,92.6z"></path><path class="st3" d="M270.9,89.3c0.3-1.3,0.3-2.7-0.1-4.1c-0.2-0.6-0.4-1.3-0.7-1.9c-0.1-0.3-0.3-0.7-0.4-1
		c-0.2-0.4-0.3-0.7-0.4-1.1c0.4,0.1,0.8,0.3,1.2,0.5c0.4,0.2,0.7,0.5,1,0.8c0.6,0.6,1.1,1.4,1.3,2.2c0.2,0.9,0.2,1.8-0.1,2.7
		C272.4,88.3,271.7,88.9,270.9,89.3z"></path><path class="st1" d="M262.4,92.6c0,0-36.3,40.3-57.2,55.7c0,0-2.3,10,9.4,16.8c3.4,1.9,47.7-44.9,56.8-66.3
		C271.3,98.8,266.8,91,262.4,92.6z"></path><path class="st3" d="M184.6,213.2c0,0-66.5,28-64.9,38.9s66.8,64.6,66.8,64.6s9.2-10.4,9.2-14.8l-39.9-47.2l37.7-16L184.6,213.2z"></path><path class="st3" d="M188.8,299.2c0,0,17.9,11.1,17.9,12.1s-13.3,31.1-14.4,30.9s-1.3-11.3,1-16.9s-8.4-14.7-8.4-14.7L188.8,299.2z
		"></path><path class="st3" d="M167.5,338.4c0,0,3.3,12.1,4.5,14.4s-3.5,20.8-8.6,22.9s-9.8,3.9-8.9-2.9s4.7-19,4.1-24.3s-2.2-14.3-2.2-14.3
		L167.5,338.4z"></path><path class="st5" d="M168.7,342.8l2.2,7.1c0,0-5.2,17.1-9.8,20.1s-5.6-2.4-5-5s3.3-10.8,1.4-19.8S168.7,342.8,168.7,342.8z"></path><path class="st0" d="M154.8,347.5c0,0-12.4-50.8-11.4-61.3s41.1-73,41.1-73h34.2c0,0,4,14.4,3,19.3s-50.6,51.5-51.5,56
		s3,56.6,3,56.6L154.8,347.5z"></path><path class="st1" d="M172.1,117.7c-4-1.9-7.9-4-11.8-6.1c-1.9-1.1-3.9-2.2-5.8-3.2s-3.8-2.2-5.7-3.3l1.4-0.5
		c-0.9,2.3-1.9,4.6-2.9,7l-0.4,0.8l-0.9-0.3c-3.4-1.2-6.7-2.5-10.1-3.8s-6.7-2.7-10-4.1c3.5,0.9,6.9,1.8,10.4,2.8s6.9,2.1,10.3,3.2
		l-1.2,0.5c0.9-2.3,1.8-4.7,2.8-7l0.4-1.1l1,0.6c1.9,1.2,3.8,2.3,5.7,3.5s3.8,2.3,5.6,3.5C164.8,112.6,168.5,115.1,172.1,117.7z"></path><path class="st1" d="M173.5,111.6c-2.1-1.9-4-4-5.9-6.1s-3.7-4.3-5.5-6.5s-3.5-4.4-5.1-6.7s-3.2-4.6-4.7-7.1c2.1,1.9,4,4,5.9,6.1
		s3.7,4.3,5.5,6.4s3.5,4.4,5.1,6.7S172.1,109.2,173.5,111.6z"></path><path class="st1" d="M141.6,95.8c-1.3-0.4-2.5-1-3.7-1.6c-1.2-0.6-2.3-1.3-3.4-2.1c-1.1-0.8-2.2-1.6-3.2-2.4c-1-0.9-2-1.8-2.9-2.9
		c1.3,0.4,2.5,1,3.7,1.6c2.4,1.3,4.6,2.8,6.6,4.5C139.8,93.8,140.7,94.7,141.6,95.8z"></path></g></svg>