<svg transform="scale(1)" version="1.1" id="Layer_1" xmlns="http://www.w3.org/2000/svg" xmlns:xlink="http://www.w3.org/1999/xlink" x="0px" y="0px" viewBox="0 0 500 500" xml:space="preserve" class="show_show__wrapper__graphic__5Waiy "><title>React</title><style type="text/css">
	.st0{fill:#e63946;}
	.st1{fill:#EA8383;}
	.st2{fill:#F2EBEB;}
	.st3{fill:#A04040;}
	.st4{fill:#000001;}
</style><g id="character"><polygon class="st0" points="232.9,376 222.3,433.6 99.3,431.8 97.5,364.5 	"></polygon><path class="st1" d="M390.2,157c1-7.6,1.2-26.9,1.2-26.9s4.4,7.6,6.3,3.1s-0.6-11.4-1.5-12.8s-9.9-4.9-9.9-4.9s13.5,2.5,20.9-1.1
		s-1.7-3.8-8.7-4.3s-9.8-2.1-15.6-1.1c-3.4,0.5-6.4,2.4-8.3,5.2c0,0,2.7-11.6,2.6-17.3s-2.6-11.2-4.9-8.4s-9.5,50.2-12.6,57.1
		L390.2,157z"></path><path class="st0" d="M245.8,178.9c0,0,30.9,18.5,62.1,60.9c2.8,3.8,50.6-99.4,50.6-99.4l41.3,22c0,0-29.4,138.2-74,149.4
		c-14.3,3.6-63.2-12.5-73.1-26.8C242.9,270.9,245.8,178.9,245.8,178.9z"></path><path class="st0" d="M100.3,373c0,0-17-197.4,2.8-207s116.3-7.1,142.6,12.9c51.9,39.5-2.8,197.4-2.8,197.4S117.1,380.9,100.3,373z"></path><path class="st2" d="M225.2,169.6c0,0,31.2,25.2,27.2,59.7s-26.2,148-26.2,148l-76,1.3c0,0,30.1-156.7-11.8-217.6
		C138.3,161,186.6,154.7,225.2,169.6z"></path><path class="st1" d="M204.9,91.2c0,0,11.3,34.6,9.9,35.2s-5.5-0.5-5.5-0.5s5.6,24.2,0.4,57c0,0-35.3-2.6-52-17
		c0,0-1.5-85.5,5.6-88.4S204.9,91.2,204.9,91.2z"></path><path class="st3" d="M167.3,101c0,0,4.6,17.1,2.9,20.2S158,116,158,116s-3.9-39.1,0-44.1s84.6,21.7,78.1,25s-31.2-5.7-31.2-5.7
		l-25.4-1C179.4,90.2,174.4,99.2,167.3,101z"></path><path class="st1" d="M158.7,116.4c0,0-12.8-5.2-9.4-16.5s14.6,10.5,14.6,10.5L158.7,116.4z"></path><polygon class="st2" points="195.5,181 181.8,195.3 157.7,166 210.1,180.6 223.1,199 	"></polygon><path class="st4" d="M189.5,111c1.5-1,3.3-1.3,5-0.8c0.8,0.2,1.6,0.7,2.3,1.2c0.7,0.5,1.2,1.3,1.5,2.1l-2.3-0.8
		c-0.7-0.2-1.4-0.5-2.1-0.7s-1.4-0.4-2.1-0.6S190.4,111.3,189.5,111z"></path><path class="st4" d="M184.4,126.4c0.6,1.2,1.5,2.2,2.6,2.9c0.6,0.3,1.1,0.6,1.7,0.8c0.3,0.1,0.7,0.2,1,0.4c0.4,0.1,0.8,0.3,1.1,0.4
		c-0.4,0.2-0.7,0.4-1.1,0.5c-0.4,0.1-0.8,0.2-1.2,0.2c-0.9,0-1.8-0.2-2.5-0.6c-0.8-0.5-1.4-1.2-1.7-2.1
		C183.9,128.1,184,127.2,184.4,126.4z"></path><path class="st3" d="M187,102.5c0.6-1.3,1.7-2.4,3.1-2.9c1.4-0.6,2.9-0.7,4.4-0.4c1.4,0.3,2.7,1,3.8,2c0.5,0.5,0.9,1.1,1.3,1.7
		c0.3,0.6,0.5,1.3,0.7,2c-0.7-0.1-1.3-0.3-1.9-0.5c-0.6-0.1-1.1-0.4-1.7-0.5c-1-0.3-2-0.6-2.9-0.8c-1-0.2-1.9-0.4-2.9-0.4
		C189.6,102.6,188.5,102.6,187,102.5z"></path><path class="st1" d="M142.4,77.3c-1-1-1.9-2.1-2.8-3.2c-1.6-2.2-3-4.7-4.1-7.2c-0.6-1.3-1.1-2.6-1.4-4c1,1,1.9,2.1,2.8,3.2
		c1.6,2.3,3,4.7,4.1,7.2C141.6,74.6,142.1,75.9,142.4,77.3z"></path><path class="st1" d="M138.3,83.2c-0.6,0.4-1.3,0.6-2.1,0.8c-1.4,0.3-2.8,0.3-4.1,0c-0.7-0.1-1.4-0.4-2.1-0.8
		c0.6-0.4,1.3-0.6,2.1-0.8c0.7-0.1,1.4-0.2,2.1-0.2c0.7,0,1.4,0.1,2.1,0.2C136.9,82.6,137.6,82.9,138.3,83.2z"></path><polygon class="st4" points="193.6,183 195.5,181 200,184 197.9,189.1 195,189.1 	"></polygon><path class="st4" d="M195.5,181c0,0,4.5,90.7-68.8,85.9l-42.8,25.7l52.9,9C136.8,301.6,267.3,269.1,195.5,181z"></path><path class="st0" d="M105.7,165.1c-2.2,1.5-77.2,40.4-82.4,94.9s19.9,102.1,27,105.9S79,291.5,79,291.5l-3.1-18.7
		c0,0,42.1-43,42.1-47.3S105.7,165.1,105.7,165.1z"></path><path class="st4" d="M69.8,243.4c1.2,3.9,2.2,7.9,3,11.9s1.7,8,2.5,12s1.5,8,2.1,12.1s1.2,8.1,1.5,12.2c-1.2-3.9-2.2-7.9-3.1-11.9
		s-1.7-8-2.5-12s-1.5-8-2.1-12.1S70.2,247.5,69.8,243.4z"></path><path class="st4" d="M93.3,305.2c0,0,75.7-3,80.5,1.2s37.9,120.8,31.2,126.8S59.6,441,57.2,433.8S89.7,304.6,93.3,305.2z"></path><path class="st4" d="M402.3,163c0,0-34.2-44.6-33.8-47.2s69.4-52.6,72.7-52.7s36.6,46.3,35.6,48.1S405.6,165.2,402.3,163z"></path><path class="st2" d="M422.9,151.6c-5.1-7.6-11.1-15.8-12.2-16.6c-1.7,0.5-14.9,9.7-19,12.6l-0.6-0.8c0.2-0.1,18-12.8,19.6-12.8l0,0
		c1.2,0.1,7.7,9.3,13,17L422.9,151.6z"></path><path class="st2" d="M432.5,92.3c-0.1,0-0.1,0-0.2,0c-2.3-0.7-9.7-13.6-11.1-16.2l0.9-0.5c3.5,6.3,9.2,15.4,10.5,15.8h0.1
		c1.6,0,12.1-7.4,21.5-14.7l0.6,0.8C450.2,81,435.4,92.3,432.5,92.3z"></path><path class="st2" d="M384.5,114.7c-1.4,0.1-2,1.7-2,1.7l-0.2-0.3l-1.5,1.1l3.9,5.5l1.5-1l-1.1-1.5c1.1-0.1,2-0.9,2.1-1.9
		c0.3-1.6-0.8-3.2-2.4-3.5C384.7,114.7,384.6,114.7,384.5,114.7z M385.5,118.4c-1,0.8-1.5,0-1.5,0c-1-1.1-0.2-2,0.6-2.1
		S386.5,117.6,385.5,118.4L385.5,118.4z"></path><rect class="st0" x="396.6" y="109.9" transform="matrix(0.8127 -0.5827 0.5827 0.8127 9.9785 252.3845)" width="1.9" height="1.6"></rect><path class="st2" d="M391.4,109.6c-0.7,0.4-1.1,1.1-1.2,1.8l0,0c-0.1,0-0.7-0.4-1.7,0.5c-0.3,0.3-0.5,0.6-0.7,1l-0.4-0.6l-1.5,1.1
		l3,4.2l1.5-1.1l-1.9-2.7c-0.1-0.5,0.1-1,0.5-1.3c0.5-0.3,0.7-0.1,0.8,0l2.1,2.9l1.5-1.1l-2.1-3c0-0.6,0.3-1.1,0.8-1.4
		c0.2-0.1,0.4-0.1,0.6,0l2.2,3.1l1.4-1L394,109C393.1,108.7,392.1,108.9,391.4,109.6z"></path><rect class="st0" x="390.9" y="106.4" transform="matrix(0.8127 -0.5827 0.5827 0.8127 10.931 248.4446)" width="1.9" height="1.6"></rect><path class="st0" d="M404.5,135.4l3.4,4.8c0.5,0.6,8.2-5,9-6.3s-2.9-4.4-3.5-5.2C412.8,128,403.9,134.2,404.5,135.4z"></path><path class="st0" d="M420.6,85.8l3.4,4.8c0.5,0.6,8.2-5,9-6.3s-2.9-4.4-3.5-5.2S420,84.6,420.6,85.8z"></path><rect class="st2" x="412.1" y="114.5" transform="matrix(0.8081 -0.5891 0.5891 0.8081 12.3243 267.3616)" width="8.9" height="0.6"></rect><rect class="st2" x="420.3" y="102.8" transform="matrix(0.8058 -0.5922 0.5922 0.8058 22.9079 276.1069)" width="24.4" height="0.6"></rect><rect class="st2" x="414.8" y="118.6" transform="matrix(0.8081 -0.5891 0.5891 0.8081 10.4267 269.7632)" width="8.9" height="0.6"></rect><rect class="st2" x="424.6" y="108.3" transform="matrix(0.8083 -0.5888 0.5888 0.8083 19.7785 277.9782)" width="24.4" height="0.6"></rect><rect class="st2" x="417.9" y="123.1" transform="matrix(0.8081 -0.5891 0.5891 0.8081 8.3645 272.4836)" width="8.9" height="0.6"></rect><rect class="st2" x="426.2" y="111.5" transform="matrix(0.8058 -0.5922 0.5922 0.8058 18.934 281.2692)" width="24.4" height="0.6"></rect><path class="st1" d="M379.5,143.1c0,0-0.4-6.5-8-10.9c4.3-1.2,7.9-3.9,10.5-7.5c3.9-6-4.9-1.7-12.2-1.5"></path><path class="st4" d="M379.5,143.1c-0.3-1.1-0.7-2.2-1.3-3.2c-0.5-1-1.2-1.9-1.9-2.8c-0.7-0.8-1.6-1.6-2.5-2.3
		c-0.9-0.7-1.8-1.3-2.8-1.8l-1.7-1l2-0.6c2.2-0.7,4.3-1.8,6.1-3.2c0.9-0.7,1.8-1.5,2.5-2.4c0.4-0.4,0.7-0.9,1.1-1.4
		c0.3-0.4,0.6-0.9,0.9-1.4c0.1-0.2,0.1-0.3,0.2-0.5c0-0.1,0.1,0.1,0,0c-0.2-0.1-0.4-0.1-0.5-0.1c-0.3,0-0.5,0-0.8,0
		c-1.1,0.1-2.4,0.3-3.6,0.4c-2.4,0.4-4.9,0.6-7.4,0.4c2.4-0.4,4.8-1,7.1-1.6c1.2-0.3,2.4-0.6,3.7-0.8c0.3,0,0.7-0.1,1-0.1
		c0.4,0,0.9,0.1,1.2,0.2c0.1,0.1,0.3,0.1,0.4,0.2c0.1,0.1,0.2,0.2,0.3,0.4c0.1,0.1,0.2,0.3,0.2,0.4c0,0.1,0.1,0.3,0.1,0.4
		c0,0.4-0.1,0.9-0.2,1.3c-0.3,0.6-0.6,1.2-1,1.8c-0.4,0.5-0.7,1.1-1.2,1.6c-0.8,1-1.8,1.9-2.8,2.7c-2,1.6-4.4,2.7-6.9,3.4l0.2-1.6
		c0.5,0.3,1,0.7,1.5,1c0.5,0.4,0.9,0.8,1.4,1.2c0.9,0.8,1.7,1.7,2.4,2.7C378.6,138.4,379.4,140.7,379.5,143.1z"></path><path class="st2" d="M155.7,438.1c-0.8-5.9-7.6-57.9-3.3-61.7s40.5-2.5,42-2.5v1c-10.4-0.4-38-0.7-41.3,2.2
		c-2.9,2.6,0.6,37.8,3.7,60.8L155.7,438.1z"></path><path class="st2" d="M164.7,322.9c0.9-2.3-1.3-4.5-1.3-4.5l0.6-0.1l-0.7-3.3l-12.1,2.6l0.7,3.2l3.3-0.7c-0.7,1.9,0,3.9,1.7,5
		C159.8,327,163.8,325.3,164.7,322.9z M157.7,321.9c-0.7-2.2,1-2.6,1-2.6c2.6-0.8,3.6,1.1,3.1,2.5S158.4,324.1,157.7,321.9
		L157.7,321.9z"></path><rect class="st0" x="160.6" y="345.9" transform="matrix(0.9771 -0.2127 0.2127 0.9771 -70.2311 42.4162)" width="2.9" height="3.5"></rect><path class="st2" d="M168.3,338.1c-0.6-2.3-1.7-3.1-2.2-3.3l0,0c0.1-0.1,1.2-0.9,0.5-3.2c-0.2-0.7-0.6-1.3-1.2-1.8l1.3-0.3
		l-0.7-3.3l-9.3,2l0.7,3.3l5.8-1.3c0.5,0.2,1.7,0.8,1.9,1.7s-0.3,1.2-0.6,1.3l-6.4,1.4l0.7,3.4l6.5-1.4c0.9,0.5,1.5,1.3,1.8,2.3
		c0.1,0.4-0.1,0.8-0.4,1.1l-6.8,1.5l0.6,3l6.8-1.5C168.5,341.7,168.9,339.8,168.3,338.1z"></path><rect class="st0" x="170.4" y="338.9" transform="matrix(0.9771 -0.2127 0.2127 0.9771 -68.5259 44.3558)" width="2.9" height="3.5"></rect><path class="st0" d="M178.4,360.8l-14.5,0.9c-1.9,0.1-0.4,23.6,1.3,26.9s13-0.2,15.4-0.5S181.6,361,178.4,360.8z"></path><polygon class="st2" points="136.6,342.4 138,342.3 138.5,353.8 137.1,353.9 	"></polygon><polygon class="st2" points="137.2,358 138.6,357.9 140.1,389.5 138.7,389.5 	"></polygon><polygon class="st2" points="123.4,341.8 124.7,341.8 124.6,353.3 123.2,353.3 	"></polygon><polygon class="st2" points="123.1,357.4 124.5,357.4 124.3,389 123,389 	"></polygon><polygon class="st2" points="110.9,341.4 112.2,341.5 111.2,353 109.8,352.8 	"></polygon><polygon class="st2" points="109.4,356.9 110.7,357 108,388.5 106.7,388.4 	"></polygon><path class="st2" d="M98.8,331.1c-5.1,0-12.4-0.4-15.4-0.6l0.1-1c9,0.5,19.1,0.8,20,0.3c1-1.2,3.5-19.9,4.1-25.7l1,0.1
		c0,0.2-3,25.2-4.6,26.4C103.6,331,101.5,331.1,98.8,331.1z"></path><path class="st0" d="M108.8,324.4l-8.7-1c-1.1-0.1-2.3,10.7-1.6,12.4s7.8,1.2,9.2,1.3S110.7,324.8,108.8,324.4z"></path><path class="st1" d="M49.8,324.4l22,47.8l11.8-43.1c0,0,44.7-5.5,44.7-12.5s-39.3-9.9-41.4-12.2s-8-12.9-8-12.9
		S52.8,315.4,49.8,324.4z"></path><path class="st4" d="M42.1,340.2c0.2-1.7,0.7-3.5,1.3-5.1c0.6-1.7,1.2-3.3,1.9-4.9c1.4-3.2,3.1-6.3,5-9.3c1.9-3,4-5.8,6.4-8.4
		c2.3-2.6,5-5,7.9-7c-2.3,2.6-4.6,5.2-6.7,8s-4,5.6-5.9,8.5s-3.6,5.9-5.2,8.9c-0.4,0.8-0.8,1.5-1.2,2.3s-0.8,1.5-1.2,2.3
		C43.5,337,42.8,338.6,42.1,340.2z"></path></g></svg>