<svg transform="scale(1)" version="1.1" id="Layer_1" xmlns="http://www.w3.org/2000/svg" xmlns:xlink="http://www.w3.org/1999/xlink" x="0px" y="0px" viewBox="0 0 500 500" xml:space="preserve" class="show_show__wrapper__graphic__5Waiy "><title>React</title><style type="text/css">
	.st0{fill:#000001;}
	.st1{fill:#EA8383;}
	.st2{fill:#A04040;}
	.st3{fill:#F2EBEB;}
	.st4{fill:#e63946;}
</style><g id="character-2-2"><path class="st0" d="M219.3,185.2c0,0-177,153.7-158.3,204.5c17.1,46.4,99.4-4.3,99.4-4.3l187.4,0.8c0,0,49.9,49.5,87,6.4
		S311.4,198.8,281,187.7S224.4,180.3,219.3,185.2z"></path><path class="st1" d="M276.6,176.3v69.8c0,0-13.3,22.8-18.7,26.1s-20.2-30.3-20.2-30.3l2.4-62.9L276.6,176.3z"></path><polygon class="st0" points="238.2,228.6 276.6,224.4 276.6,176.3 238.2,176.3 	"></polygon><path class="st1" d="M288.6,118.8c0,0,5.2-11.6,13.2-9.1s-0.6,30.8-11.1,28.5S288.6,118.8,288.6,118.8z"></path><path class="st1" d="M219.6,116.8c0,0-4.2-11.6-10.6-9.1s0.5,30.8,8.9,28.5S219.6,116.8,219.6,116.8z"></path><path class="st2" d="M255,218c0,0,10.5,12.9,19.2-3.2c13.7-25.3,17.9-38.4,19.4-91.3c0.8-28.6,4.6-47.6-3.3-58
		s-31.3-13.7-31.3-13.7s-28.1-38-52.6-25.5s10.3,50.5,10.3,50.5s-2.2,34.3-0.7,43C216.2,119.8,218.5,235.8,255,218z"></path><path class="st1" d="M221.4,83.3c0,0-1.8,22.6-1.8,43.2s3.6,21.2,11.2,18s12.7-7.6,16.3-7.6l12,0.3c5.8,0.7,11.4,2.6,16.4,5.7
		c6.5,3.9,11.5,6,13.2,1.9s3.1-36.4-1-47.8s-8-18.5-8-25.1C279.7,71.8,239.3,93.1,221.4,83.3z"></path><path class="st0" d="M276.4,153.2c0.6,1,0.7,2.1,0.4,3.2c-0.3,1.1-1,2.1-1.9,2.9c-0.9,0.7-1.9,1.1-3,1.3c-0.5,0.1-1.1,0.1-1.6,0.1
		c-0.5-0.1-1.1-0.1-1.6-0.3c0.5-0.3,0.9-0.5,1.4-0.7c0.5-0.2,0.9-0.4,1.3-0.6c0.8-0.4,1.6-0.8,2.3-1.4
		C275.1,156.5,276.1,154.9,276.4,153.2z"></path><path class="st2" d="M263.8,101.8c1-1.4,2.3-2.5,3.8-3.3c1.5-0.8,3.2-1.3,4.9-1.5c1.8-0.2,3.6,0.2,5.2,1c1.5,0.8,2.7,2.2,3.4,3.8
		c-1.3-0.7-2.8-1.3-4.2-1.6c-1.3-0.2-2.7-0.3-4.1-0.2c-1.4,0.2-2.9,0.4-4.3,0.7L263.8,101.8z"></path><path class="st2" d="M242.4,95.5c-1.6,0-3,0-4.4,0c-1.3,0-2.6,0.1-3.9,0.3c-1.2,0.2-2.4,0.6-3.5,1.1c-1.2,0.7-2.3,1.5-3.3,2.5
		c0-0.4,0.1-0.8,0.2-1.2c0.1-0.4,0.2-0.8,0.4-1.2c0.2-0.4,0.4-0.7,0.6-1.1s0.5-0.6,0.8-1c1.2-1.2,2.8-2,4.5-2.2
		c1.6-0.2,3.2-0.1,4.8,0.4C239.9,93.6,241.3,94.4,242.4,95.5z"></path><path class="st2" d="M188.9,41.4c1.4,4,3,7.8,5,11.5c1.9,3.7,4.1,7.2,6.6,10.5c5,6.6,11.3,12.2,18.9,15.3c3.8,1.5,7.8,2.4,11.9,2.6
		l1.5,0.1c0.5,0,1,0,1.5,0c1,0,2,0,3.1-0.1c2.1-0.2,4.1-0.6,6.1-1c8.1-1.9,15.9-5,23.1-9.2c-1.8,1.1-3.5,2.3-5.3,3.4
		c-1.9,1-3.7,2-5.6,3c-3.8,1.8-7.8,3.3-11.9,4.3c-1,0.3-2.1,0.5-3.1,0.7l-3.2,0.5c-1.1,0.1-2.1,0.2-3.2,0.2c-0.5,0-1.1,0.1-1.6,0.1
		l-1.6-0.1c-4.3-0.1-8.6-1-12.6-2.6c-4-1.7-7.7-3.9-10.9-6.7c-3.2-2.8-6.1-6-8.5-9.5C194.5,57.4,191,49.6,188.9,41.4z"></path><polyline class="st1" points="253.5,115.3 230.9,139.4 260.4,136.8 	"></polyline><path class="st0" d="M253.5,115.3c-1.7,2.2-3.5,4.3-5.3,6.4s-3.6,4.2-5.4,6.2c-1.8,2.1-3.7,4.1-5.5,6.1s-3.7,4.1-5.6,6l-0.8-1.6
		c4.9-0.4,9.9-0.8,14.8-1.1c2.5-0.1,4.9-0.3,7.4-0.4s5-0.2,7.4-0.2c-2.4,0.4-4.9,0.8-7.3,1.1s-4.9,0.7-7.4,0.9
		c-4.9,0.6-9.8,1.1-14.7,1.5l-2.5,0.2l1.7-1.9c1.9-2,3.8-4,5.7-6s3.8-4,5.8-5.9s3.9-3.9,5.9-5.8S251.4,117.1,253.5,115.3z"></path><path class="st3" d="M288.9,108.4c0,0-17.6-7.6-24.9,7.4c-0.5,1.1-0.1,2.4,1,2.9c0.1,0,0.2,0.1,0.3,0.1
		C270.6,120.4,284.3,122.8,288.9,108.4z"></path><path class="st0" d="M289.9,108.4c-2.6-0.5-5.2-0.9-7.8-1c-1.3-0.1-2.5,0-3.8,0.1c-0.6,0-1.2,0.2-1.9,0.2s-1.2,0.2-1.8,0.4
		c-1.2,0.3-2.4,0.7-3.5,1.3c-1.1,0.5-2.2,1.2-3.1,2c-2,1.7-3.6,3.7-4.6,6.1c0.4-2.7,1.7-5.3,3.6-7.2c2-2,4.4-3.4,7.2-4.1
		c2.7-0.6,5.5-0.8,8.2-0.3C284.9,106.2,287.5,107.1,289.9,108.4z"></path><path class="st0" d="M282.4,117.6c1.6-1.7-4.2-7.5-9.4-6.7c-2.8,0.5-5.2,2.3-6.5,4.9c-0.8,1.8-1,2.9,1.2,3.9
		C267.8,119.6,277,123.2,282.4,117.6z"></path><path class="st0" d="M246.5,115.3c-1.5-1-2.9-2-4.4-2.9c-1.4-0.9-2.9-1.7-4.5-2.4c-1.5-0.7-3.1-1.3-4.7-1.7c-1.7-0.4-3.4-0.8-5.1-1
		c1.7-0.6,3.6-0.8,5.4-0.6c1.8,0.2,3.6,0.6,5.3,1.4c1.7,0.7,3.2,1.7,4.6,2.9C244.4,112.3,245.6,113.7,246.5,115.3z"></path><path class="st1" d="M380.3,406.7c0,0-20.6-5.6-30.9-13.3s-42.2-25-54.4-32.1s-52.8-9-37.4-18s44.5,0,51.5-20.6
		s-5.9-82.5-3.3-114.7s16.5,29.6,23.8,63.8c0,0,2.7-69.6,12.4-72.8s5.1,43.2,12.9,90.8c0,0,9-11.8,12.9-24s13-24.4,14.5-9.5
		s-12.1,37.8,0,69.6c7.3,19.3,24,35.7,24,35.7L380.3,406.7"></path><path class="st0" d="M329.6,297.6c-0.2-7.9-0.2-15.9,0-23.8c0.2-7.9,0.5-15.9,1-23.8s1.1-15.9,2.1-23.7c0.5-3.9,1.1-7.9,1.8-11.8
		c0.4-2,0.9-3.9,1.4-5.8c0.3-1,0.6-1.9,1-2.8c0.3-0.9,0.9-1.8,1.6-2.5c-0.6,0.8-1.1,1.7-1.3,2.6c-0.3,0.9-0.5,1.9-0.7,2.9
		c-0.4,1.9-0.7,3.9-1,5.9c-0.5,3.9-0.9,7.9-1.3,11.8c-0.7,7.9-1.2,15.8-1.7,23.7l-1.4,23.7C330.7,281.8,330.2,289.7,329.6,297.6z"></path><path class="st0" d="M347.8,299.9c2.8-5.2,6-10.1,9.1-15.1l4.7-7.4c1.6-2.5,3.1-4.9,4.6-7.5c-0.7,2.9-1.8,5.7-3.2,8.3
		c-0.6,1.3-1.4,2.6-2.1,3.9s-1.5,2.5-2.3,3.8c-1.6,2.5-3.3,4.9-5.1,7.3C351.8,295.5,349.9,297.8,347.8,299.9z"></path><path class="st1" d="M160.5,385.4c5.7-5.8,11.8-11.2,18.3-16.1c10.3-7.7,31.3-7.1,43.6-14.2s52.8-9,37.4-18s-44.4,0-51.5-20.6
		s5.9-82.5,3.3-114.7s-16.5,29.6-23.8,63.8c0,0-2.7-69.6-12.4-72.8s-5.1,43.2-12.9,90.8c0,0-9-11.8-12.9-24s-12.9-24.4-14.5-9.6
		s11.4,32.2-1,63.8c-7.1,18-12.2,21.9-12.2,21.9L160.5,385.4"></path><path class="st0" d="M187.7,291.5c-0.6-7.9-1.1-15.8-1.6-23.8l-1.4-23.7c-0.5-7.9-1-15.8-1.7-23.7c-0.4-4-0.7-7.9-1.3-11.8
		c-0.2-2-0.5-3.9-1-5.9c-0.2-1-0.4-1.9-0.7-2.9c-0.2-1-0.7-1.9-1.3-2.6c0.7,0.7,1.2,1.6,1.6,2.5c0.4,0.9,0.7,1.9,1,2.8
		c0.6,1.9,1,3.9,1.4,5.8c0.8,3.9,1.4,7.9,1.8,11.8c1,7.9,1.6,15.8,2.1,23.7s0.8,15.9,1,23.8S187.9,283.6,187.7,291.5z"></path><path class="st0" d="M169.4,293.8c-2-2.2-4-4.4-5.7-6.8c-1.8-2.3-3.5-4.8-5.1-7.3c-0.8-1.2-1.6-2.5-2.3-3.8s-1.5-2.6-2.1-3.9
		c-1.4-2.6-2.5-5.4-3.2-8.3c1.4,2.6,3,5,4.6,7.5l4.7,7.4C163.4,283.7,166.6,288.6,169.4,293.8z"></path><path class="st4" d="M217.3,328.2c0,0-10.7-154.2-6.7-163.7s82.5-6.9,93.2,0.7s-1.9,149.9-5.5,167.7S218.7,348.8,217.3,328.2z"></path><path class="st3" d="M221.8,177c-0.1,6.3,0,12.6,0.3,18.9c0.2,3.1,0.4,6.3,0.8,9.4c0.2,1.6,0.4,3.1,0.8,4.6
		c0.2,0.8,0.4,1.5,0.6,2.2c0.2,0.7,0.6,1.3,1.2,1.8c0.7,0.3,1.4,0.5,2.2,0.7c0.8,0.2,1.5,0.3,2.3,0.4c1.6,0.2,3.1,0.4,4.7,0.5
		c3.1,0.2,6.3,0.3,9.4,0.3c3.1,0,6.3-0.2,9.4-0.7c1.5-0.2,3-0.5,4.5-1c0.7-0.2,1.4-0.6,2-1c0.6-0.4,1-1,1.2-1.7
		c0.5-1.5,0.8-3,0.9-4.5c0.2-1.6,0.2-3.1,0.3-4.7c0.1-3.1,0-6.3-0.1-9.4s-0.4-6.3-0.7-9.4c-0.2-1.6-0.4-3.1-0.7-4.6
		c-0.1-0.8-0.3-1.5-0.6-2.2c-0.4-0.6-1-1-1.7-1.2c-1.5-0.5-3-0.9-4.5-1.1c-1.6-0.2-3.1-0.4-4.7-0.5c-3.1-0.2-6.3-0.3-9.4-0.3
		s-6.3,0.2-9.4,0.6c-1.6,0.2-3.1,0.4-4.7,0.8c-0.8,0.2-1.5,0.4-2.3,0.7c-0.4,0.1-0.7,0.3-1.1,0.5C222.1,176.2,221.9,176.6,221.8,177
		z M221.8,177c0-0.4,0.3-0.8,0.6-1c0.3-0.2,0.7-0.4,1.1-0.5c0.7-0.3,1.5-0.5,2.3-0.7c1.5-0.4,3.1-0.6,4.7-0.8
		c3.1-0.4,6.3-0.6,9.4-0.7s6.3-0.1,9.5,0.1c1.6,0.1,3.1,0.2,4.7,0.4c1.6,0.2,3.1,0.5,4.6,1c0.4,0.1,0.8,0.3,1.1,0.5
		c0.4,0.2,0.7,0.6,0.9,1c0.3,0.8,0.5,1.5,0.6,2.3c0.3,1.6,0.6,3.1,0.8,4.7c0.4,3.1,0.7,6.3,0.9,9.4s0.3,6.3,0.2,9.5
		c0,1.6-0.1,3.2-0.3,4.8c-0.1,1.6-0.4,3.2-0.9,4.8c-0.1,0.4-0.3,0.8-0.6,1.2c-0.3,0.4-0.6,0.7-1,0.9c-0.7,0.5-1.5,0.8-2.2,1.1
		c-1.5,0.5-3.1,0.8-4.7,1c-3.1,0.4-6.3,0.6-9.5,0.6c-3.2,0-6.3-0.1-9.5-0.4c-1.6-0.1-3.1-0.3-4.7-0.6c-0.8-0.1-1.6-0.3-2.3-0.5
		c-0.8-0.2-1.6-0.4-2.3-0.8c-0.7-0.5-1.2-1.2-1.4-2.1c-0.3-0.8-0.5-1.5-0.6-2.3c-0.3-1.6-0.5-3.1-0.7-4.7c-0.3-3.1-0.5-6.3-0.6-9.4
		C221.8,189.6,221.7,183.3,221.8,177z"></path><path class="st0" d="M228.7,181.9c0,0-5.2,2.7-0.6,9.5s11.8,0.9,10.2-5.4S230.2,180.6,228.7,181.9z"></path><path class="st0" d="M231,199.8c0,0-5.2,2.7-0.6,9.5s11.8,0.9,10.2-5.4S232.5,198.5,231,199.8z"></path><path class="st0" d="M244.1,188.1c0,0-5.2,2.7-0.6,9.5s11.8,0.9,10.2-5.4S245.6,186.8,244.1,188.1z"></path><path class="st4" d="M300.4,142.3c0.3,1.5,0.5,3,0.5,4.5c0,1.5,0,3-0.1,4.4c-0.1,1.5-0.3,3-0.5,4.4c-0.2,1.5-0.6,3-1.1,4.4
		c-0.3-1.5-0.5-3-0.5-4.5c0-1.5,0-3,0.1-4.4s0.3-3,0.5-4.4C299.6,145.2,299.9,143.8,300.4,142.3z"></path><path class="st4" d="M325.1,145.4c-1.1,1.8-2.3,3.5-3.6,5.2c-1.3,1.7-2.6,3.2-4,4.8s-2.8,3.1-4.4,4.5c-1.5,1.5-3.1,2.9-4.8,4.1
		c1.1-1.8,2.3-3.5,3.6-5.2c1.3-1.7,2.6-3.2,4-4.8s2.8-3.1,4.4-4.5C321.8,148,323.4,146.6,325.1,145.4z"></path><path class="st4" d="M317.6,172.1c0.6-0.8,1.3-1.5,2.1-2.1c0.8-0.6,1.6-1.2,2.4-1.6c0.9-0.5,1.7-0.9,2.6-1.3
		c0.9-0.4,1.9-0.6,2.9-0.8c-0.6,0.8-1.3,1.5-2.1,2.1c-0.8,0.6-1.6,1.2-2.4,1.6c-0.8,0.5-1.7,0.9-2.6,1.3
		C319.6,171.7,318.7,171.9,317.6,172.1z"></path><path class="st4" d="M331.1,364.6c6.4,0.4,12.8,0.8,19.2,1c3.2,0.1,6.4,0.1,9.5-0.1c0.8-0.1,1.6-0.1,2.3-0.3c0.7-0.1,1.4-0.3,2-0.6
		c0.1,0,0.2-0.1,0.2-0.2c0,0,0,0,0,0V361c0-6.4,0.1-12.9,0.2-19.3s0.4-12.8,0.8-19.3c0.4,6.4,0.7,12.9,0.8,19.3
		c0.2,6.4,0.2,12.9,0.2,19.3v2.4v1.2c0,0.4-0.2,0.8-0.5,1.1c-0.2,0.2-0.5,0.4-0.7,0.6c-0.8,0.4-1.7,0.7-2.6,0.8
		c-0.8,0.1-1.7,0.2-2.5,0.2c-3.2,0.1-6.5,0-9.7-0.2C343.8,366.7,337.4,365.8,331.1,364.6z"></path><path class="st4" d="M365.3,183.7c-0.2-3.3-0.4-6.6-0.5-9.9s-0.2-6.6-0.3-9.9l-0.2-9.9c0-3.3,0-6.6,0-9.9l1,1
		c-5.7,0-11.4-0.1-17.1-0.2c-2.9-0.1-5.7-0.2-8.5-0.3s-5.7-0.2-8.5-0.5c2.9-0.2,5.7-0.3,8.5-0.5s5.7-0.2,8.5-0.3
		c5.7-0.2,11.4-0.2,17.1-0.2h1v1c0,3.3,0,6.6,0,9.9l-0.1,9.9c-0.1,3.3-0.2,6.6-0.3,9.9S365.5,180.4,365.3,183.7z"></path><path class="st4" d="M177.4,144c-2.7,0.2-5.4,0.3-8.2,0.5s-5.4,0.2-8.2,0.3s-5.4,0.1-8.2,0.2s-5.4,0.1-8.2,0.1l1-1
		c0,5.9,0,11.9-0.2,17.9c-0.1,3-0.2,5.9-0.3,8.9c-0.2,3-0.3,5.9-0.5,8.9c-0.2-3-0.3-5.9-0.5-8.9s-0.2-6-0.3-8.9
		c-0.1-5.9-0.2-11.9-0.2-17.9v-1h1c2.7,0,5.5,0,8.2,0.1s5.4,0.1,8.2,0.2s5.4,0.2,8.2,0.3S174.6,143.8,177.4,144z"></path><path class="st4" d="M144.7,331.2c0.2,2.8,0.4,5.6,0.5,8.4s0.2,5.6,0.3,8.4s0.1,5.6,0.2,8.4s0.1,5.6,0,8.4l-1-1
		c4.8,0,9.6,0.1,14.4,0.2c2.4,0.1,4.8,0.2,7.2,0.3s4.8,0.3,7.2,0.5c-2.4,0.2-4.8,0.3-7.2,0.5s-4.8,0.2-7.2,0.3
		c-4.8,0.2-9.6,0.2-14.4,0.2h-1v-1c0-2.8,0-5.6,0-8.4s0.1-5.6,0.1-8.4s0.2-5.6,0.3-8.4S144.4,334,144.7,331.2z"></path></g><g id="coffee"><path class="st4" d="M280.3,397.3c0,0-128.2,7.4-113.4,49.9s109.8,33.3,151.4,3.7S320.6,392.6,280.3,397.3z"></path><path class="st0" d="M211.2,433.7c-2.3,1.6-4.3,3.5-6.2,5.5c-0.9,1-1.7,2.1-2.3,3.3c-0.7,1.1-0.8,2.4-0.4,3.7
		c0.6,1.1,1.6,2,2.8,2.4c1.2,0.5,2.5,0.9,3.9,1.1c1.3,0.3,2.7,0.4,4.1,0.5s2.8,0.2,4.1,0.2c5.5,0.1,11.1-0.2,16.6-0.7
		c5.5-0.5,11-1.1,16.5-2.1s10.9-2.1,16.3-3.5c5.4-1.4,10.6-3.1,15.8-5.2c2.6-1,5.1-2.2,7.5-3.5c2.5-1.2,4.8-2.7,6.9-4.4
		c1.1-0.8,2-1.9,2.7-3c0.8-1,0.9-2.5,0.1-3.5c-0.9-1-2.2-1.7-3.5-2c-1.3-0.4-2.7-0.6-4.1-0.7c1.4,0,2.8,0.2,4.2,0.5
		c1.4,0.2,2.8,0.9,3.8,1.9c0.5,0.6,0.8,1.3,0.8,2.1c0,0.8-0.3,1.5-0.6,2.1c-0.7,1.2-1.7,2.4-2.7,3.3c-2.1,1.9-4.5,3.5-6.9,4.9
		c-2.5,1.4-5,2.6-7.6,3.8c-10.4,4.3-21.2,7.4-32.3,9.2c-11.1,1.9-22.3,2.7-33.5,2.4c-2.8-0.1-5.6-0.4-8.4-1
		c-1.4-0.3-2.8-0.8-4.1-1.4c-1.4-0.6-2.6-1.7-3.2-3.1c-0.1-0.4-0.2-0.8-0.2-1.1c0-0.4,0-0.8,0.1-1.1c0.1-0.4,0.2-0.7,0.3-1.1
		c0.1-0.3,0.3-0.7,0.5-1c0.7-1.2,1.6-2.4,2.6-3.4C206.6,436.9,208.9,435.2,211.2,433.7z"></path><path class="st3" d="M311.6,345.2c0,0,3.6,53-21.1,80.4s-75.5,17.5-94.3-14.4s-11.2-66-11.2-66s8.1-23.4,64.7-21.6
		S311.6,345.2,311.6,345.2z"></path><path class="st2" d="M190.4,356c0,0,48.5,31,114.5,0C304.9,356,255.9,316.5,190.4,356z"></path><path class="st0" d="M258.6,352.9c0,0,4-7.4,20.3-5.2s9,10.6-3.5,10.9S256.9,354.9,258.6,352.9z"></path><path class="st0" d="M244.5,345.4c0,0-2.8,3.9,6.6,2c9.4-1.9,5.4-4.8,1.9-4.8S244.1,343.2,244.5,345.4z"></path><path class="st4" d="M187.1,374.6c4.8,1.7,9.7,3.2,14.6,4.5c4.9,1.2,9.9,2.3,14.9,3.3c10,1.8,20.1,2.7,30.2,2.7
		c5.1,0,10.1-0.3,15.1-0.9c2.5-0.2,5-0.7,7.5-1.1c1.2-0.2,2.5-0.5,3.7-0.8l1.9-0.4l1.8-0.5c9.9-2.5,19.3-6.4,28-11.6l-3.2,2.1
		l-1.6,1.1l-1.7,1c-1.1,0.6-2.2,1.3-3.3,1.9l-3.4,1.7c-4.6,2.2-9.5,4-14.4,5.4c-4.9,1.4-10,2.4-15.1,3.1c-5.1,0.7-10.2,1-15.4,1
		c-5.1,0-10.3-0.3-15.4-0.8c-5.1-0.6-10.2-1.4-15.2-2.4C206.2,381.8,196.4,378.7,187.1,374.6z"></path><path class="st3" d="M340.5,358.6c-9.1-8.3-28.8,0-28.8,0l-4.6,33.4c0,0,9.7,11.2,21.6,8.9S349.6,366.9,340.5,358.6z M328.3,382.6
		c-9.9,4.6-13-4.6-13-4.6c0-6,6.3-12.2,13-12.2S338.1,378,328.3,382.6z"></path><path class="st0" d="M310.8,371.5l3.1,26.2c0,0-5-3.7-5.9-4.7S310.8,371.5,310.8,371.5z"></path><path class="st4" d="M196.8,378.1c0.6,4.1,1.3,8.2,2,12.3s1.6,8.1,2.6,12.1c1,4,2.2,7.9,3.6,11.8c1.4,3.9,3.4,7.5,5.9,10.8
		c-3.1-2.9-5.6-6.3-7.3-10.2c-1.8-3.8-3.2-7.8-4.1-11.9c-1-4.1-1.7-8.2-2.2-12.4C196.8,386.4,196.7,382.2,196.8,378.1z"></path><path class="st4" d="M213.9,382.6l1.3,12.9c0.5,4.3,1,8.5,1.6,12.8c0.6,4.2,1.5,8.4,2.6,12.5c0.6,2.1,1.3,4.1,2.2,6
		c0.9,2,2.1,3.7,3.7,5.2c-1.9-1.2-3.4-2.8-4.5-4.7c-1.1-1.9-2.1-3.9-2.8-6c-0.7-2.1-1.4-4.2-1.9-6.3c-0.5-2.1-0.9-4.3-1.2-6.4
		c-0.6-4.3-1.1-8.6-1.2-13C213.5,391.2,213.6,386.9,213.9,382.6z"></path><path class="st4" d="M230.8,386c0.6,4.3,1.1,8.6,1.5,12.9l1.3,12.9c0.4,4.3,0.9,8.6,1.4,12.9c0.3,2.1,0.5,4.3,0.9,6.4
		c0.2,1.1,0.4,2.1,0.7,3.1c0.1,0.5,0.3,1,0.5,1.5c0.2,0.5,0.5,0.9,0.9,1.3c-0.5-0.3-0.9-0.6-1.2-1.1c-0.3-0.5-0.5-1-0.8-1.5
		c-0.4-1-0.8-2-1.1-3.1c-0.6-2.1-1.1-4.2-1.5-6.4c-0.8-4.3-1.4-8.6-1.8-12.9s-0.7-8.6-0.9-13S230.6,390.4,230.8,386z"></path><path class="st4" d="M254.6,388.6c0.4,4.2,0.6,8.5,0.6,12.7s-0.1,8.5-0.3,12.7s-0.6,8.5-1.3,12.7c-0.5,4.2-1.5,8.4-3,12.4
		c0.8-4.2,1.1-8.4,1.5-12.6s0.6-8.4,0.9-12.6C253.4,405.5,253.8,397,254.6,388.6z"></path><path class="st4" d="M269,437.1c2.2-4,4-8.2,5.5-12.6c1.4-4.3,2.6-8.8,3.4-13.2c0.3-2.3,0.8-4.5,1-6.8c0.1-1.1,0.3-2.3,0.4-3.4
		s0.1-2.3,0.2-3.4l0.1-1.7v-1.7l0.1-3.5c0-2.3-0.1-4.6,0-6.9c0.4,2.3,0.8,4.6,1,6.9l0.2,3.5l0.1,1.7v1.7c0,4.7-0.4,9.3-1.2,13.9
		c-0.9,4.6-2.2,9.1-3.9,13.4C274.3,429.4,271.9,433.4,269,437.1z"></path><path class="st0" d="M237.7,331.2c-2.3-2.7-4.3-5.6-5.9-8.8c-1.5-3.2-2.7-6.7-2.3-10.5c0.1-0.9,0.3-1.9,0.6-2.8
		c0.3-0.9,0.8-1.7,1.4-2.5c0.6-0.8,1.3-1.5,2.1-2.1c0.9-0.6,1.9-1,3-1c1,0,2,0.3,2.9,0.7c0.8,0.4,1.6,0.9,2.4,1.4
		c1.3,1,2.7,1.8,4.2,2.5c0.5,0.2,1.2,0.1,1.6-0.3c0.5-0.5,1-1.1,1.2-1.8c0.7-1.5,1.2-3.1,1.4-4.8c0.7-3.3,0.8-6.8,0.3-10.1
		c-0.5-3.4-1.5-6.7-3-9.9c-1.4-3.2-3.2-6.2-5.4-9c5,5.1,8.4,11.5,9.9,18.5c0.7,3.6,0.7,7.2,0,10.8c-0.1,0.4-0.1,0.9-0.2,1.3
		l-0.4,1.3c-0.2,0.9-0.6,1.8-0.9,2.6c-0.4,0.9-1,1.8-1.8,2.5c-0.2,0.2-0.5,0.4-0.7,0.5c-0.1,0.1-0.3,0.1-0.4,0.2l-0.4,0.1
		c-0.6,0.1-1.2,0.1-1.7-0.1c-0.9-0.3-1.8-0.7-2.6-1.3c-0.8-0.5-1.5-1-2.2-1.5c-1.2-1-2.7-1.6-4.2-1.9c-1.5,0.1-2.8,0.9-3.6,2.2
		c-1,1.3-1.6,2.8-1.8,4.4c-0.3,3.4,0.3,6.8,1.7,9.9C234,325.2,235.6,328.3,237.7,331.2z"></path><path class="st0" d="M253.6,342.5c-2.3-2.7-4.3-5.6-5.9-8.8c-1.5-3.2-2.7-6.7-2.3-10.5c0.1-0.9,0.3-1.9,0.6-2.8
		c0.3-0.9,0.8-1.7,1.4-2.5c0.6-0.8,1.3-1.5,2.1-2.1c0.9-0.6,1.9-1,3-1c1,0,2,0.3,2.9,0.7c0.8,0.4,1.6,0.9,2.4,1.4
		c1.3,1,2.7,1.8,4.2,2.5c0.5,0.2,1.2,0.1,1.6-0.3c0.5-0.5,1-1.1,1.2-1.8c0.7-1.5,1.2-3.1,1.4-4.8c0.7-3.3,0.8-6.8,0.3-10.1
		c-0.5-3.4-1.5-6.7-3-9.9c-1.4-3.2-3.2-6.2-5.4-9c5,5.1,8.4,11.5,9.9,18.5c0.7,3.6,0.7,7.2,0,10.8c-0.1,0.5-0.1,0.9-0.2,1.3
		l-0.4,1.3c-0.2,0.9-0.6,1.8-0.9,2.6c-0.4,0.9-1,1.8-1.8,2.5c-0.2,0.2-0.5,0.4-0.7,0.5c-0.1,0.1-0.3,0.1-0.4,0.2l-0.5,0.1
		c-0.6,0.1-1.2,0.1-1.7-0.1c-0.9-0.3-1.8-0.7-2.6-1.3c-0.8-0.5-1.5-1-2.2-1.5c-1.2-1-2.7-1.6-4.3-1.8c-1.5,0.1-2.8,0.9-3.6,2.2
		c-1,1.3-1.6,2.8-1.8,4.4c-0.5,3.3,0.4,6.7,1.7,9.9C249.9,336.6,251.6,339.7,253.6,342.5z"></path></g><g id="instagram"><path class="st3" d="M406.9,58.7c-3.4-5.3-30.1-5.8-46.2-5.2c-5.1,0.2-9.3,3.2-9.6,6.9c-0.9,10.1-2.2,29.9,0.6,35.1
		c1.6,3,10.6,4.8,20.9,5.5c2.4,4.7,6.1,11.5,7.5,10c1.2-1.3,2.4-6,3.1-9.7c11.1,0,21.4-1.3,23.7-4C412.2,91.5,410.2,63.9,406.9,58.7
		z"></path><path class="st4" d="M381,93.3c-1.9,0-3.8-0.1-5.6-0.3c-4-0.4-9-1.4-10-3.9c-1.3-3.1-0.9-13.4-0.4-21.6c0.3-2.8,2.6-5,5.5-5.1l0,0
		c4.8-0.2,20.7-0.6,22.8,3.7c1.6,3.3,2.7,20.3-0.1,24.3C391.9,92.6,386.4,93.3,381,93.3z M370.7,64.5c-1.8,0-3.4,1.4-3.6,3.2
		c-0.8,10.9-0.7,18.6,0.2,20.7c0.4,0.9,3.1,2.1,8.4,2.7c7.7,0.8,15.1-0.3,16.1-1.7s1.5-5.7,1.3-11.2c-0.1-5.4-0.8-9.9-1.4-11.1
		C390.6,65.1,381.6,64,370.7,64.5L370.7,64.5z"></path><path class="st4" d="M380.1,86.6c-2.6-0.1-4.9-1.4-6.4-3.4c-2.7-2.8-2.9-7.2-0.6-10.3c1.2-1.8,3-3.1,5.1-3.6l0,0
		c2.7-0.6,5.5,0.3,7.4,2.3c2.2,2.2,3.1,5.3,2.5,8.3c-0.8,3.2-3.2,5.7-6.3,6.6C381.2,86.6,380.6,86.6,380.1,86.6z M379.8,71.1
		c-0.5,0-0.9,0-1.3,0.2l0,0c-1.6,0.4-3,1.4-3.8,2.8c-1.8,2.4-1.6,5.8,0.5,7.9c1.8,2.2,3.9,3.1,6,2.6c2.4-0.7,4.3-2.7,4.8-5.1
		c0.5-2.3-0.3-4.8-2-6.4C382.9,71.8,381.4,71.1,379.8,71.1L379.8,71.1z"></path><path class="st4" d="M387.9,68c-0.4,0.1-0.7,0.3-0.9,0.6c-0.4,0.5-0.4,1.2,0.1,1.7c0.5,0.6,1.4,0.7,2,0.3c0.3-0.2,0.4-0.5,0.5-0.8
		c0.1-0.8-0.4-1.6-1.2-1.7C388.3,68,388.1,68,387.9,68z"></path></g><g id="add"><path class="st3" d="M71.9,171.1c0,0-0.8,25.8,0,30.1s43.6,3.1,43.5,0s0.1-26.4,0-30.1S72,166.1,71.9,171.1z"></path><rect class="st4" x="85.2" y="184.8" transform="matrix(2.530452e-02 -0.9997 0.9997 2.530452e-02 -94.3809 274.7215)" width="16.9" height="2"></rect><rect class="st4" x="92.7" y="176.7" transform="matrix(2.216381e-02 -0.9998 0.9998 2.216381e-02 -94.1104 275.3209)" width="2" height="18.2"></rect><path class="st3" d="M102.8,198.6c0,0,6.9,10.3,8.4,10.3s1.2-10.3,1.2-10.3H102.8z"></path></g></svg>