<svg transform="scale(1)" version="1.1" id="Layer_1" xmlns="http://www.w3.org/2000/svg" xmlns:xlink="http://www.w3.org/1999/xlink" x="0px" y="0px" viewBox="0 0 500 500" xml:space="preserve" class="show_show__wrapper__graphic__5Waiy "><title>React</title><style type="text/css">
	.st0{fill:#000001;}
	.st1{fill:#e63946;}
	.st2{fill:#F2EBEB;}
	.st3{clip-path:url(#SVGID_2_);}
	.st4{fill:#EA8383;}
	.st5{fill:#A04040;}
	.st6{clip-path:url(#SVGID_4_);}
</style><g id="screen-2"><path class="st0" d="M438.2,76.4c0,0,18.2,13.6,20,23.8s7.8,287.7,3.6,306.3s-26.8,26-26.8,26L438.2,76.4z"></path><path class="st1" d="M310.9,86.1c-7.9,2.6-13.3,9.9-13.6,18.2c-2,56.1-9.7,293,0.4,306.2c11.5,15,129.1,34.6,140.6,19.6
		s10.4-337.6,0-353.8C429.5,62.8,345.1,74.5,310.9,86.1z"></path><path class="st2" d="M307.6,97.4c0,0,107.5-30.3,120.7-16.7s3.5,333.4,0,342.1S321,419.3,307.6,405S295.9,100.6,307.6,97.4z"></path><path class="st1" d="M317.2,411.5l4.9-43.9l-12.3-25.4c-1.6-3.4-1.4-7.4,0.8-10.5c22.6-33.8,30.7-61.2,54.7-44.7
		c33.2,22.9,61.4,137.4,61.4,137.4S384.8,433.7,317.2,411.5z"></path><g><defs><path id="SVGID_1_" d="M317.2,411.5l4.9-43.9l-12.3-25.4c-1.7-3.4-1.4-7.4,0.7-10.5c22.6-33.8,30.7-61.2,54.7-44.7
				c33.2,22.9,61.3,137.4,61.3,137.4S384.8,433.7,317.2,411.5z"></path></defs><clipPath id="SVGID_2_"><use xlink:href="#SVGID_1_" style="overflow: visible;"></use></clipPath><g class="st3"><path class="st2" d="M483.3,478.4h-0.2l-268.6-84.5c-0.3-0.1-0.4-0.3-0.3-0.6c0,0,0,0,0,0c0.1-0.3,0.4-0.4,0.6-0.3l268.6,84.5
				c0.3,0.1,0.4,0.4,0.3,0.6c0,0,0,0,0,0C483.7,478.3,483.5,478.4,483.3,478.4z"></path><path class="st2" d="M488.7,459.4c0,0-0.1,0-0.1,0L219,379.9c-0.3-0.1-0.4-0.4-0.3-0.6c0.1-0.3,0.4-0.4,0.6-0.3l269.5,79.5
				c0.3,0.1,0.4,0.4,0.3,0.6C489.1,459.3,488.9,459.4,488.7,459.4z"></path><path class="st2" d="M493.8,441.8h-0.1l-270.1-77.3c-0.3-0.1-0.4-0.3-0.3-0.6c0,0,0,0,0,0c0.1-0.3,0.3-0.4,0.6-0.4c0,0,0,0,0,0
				l270.1,77.3c0.3,0.1,0.4,0.3,0.3,0.6c0,0,0,0,0,0C494.2,441.6,494,441.8,493.8,441.8z"></path><path class="st2" d="M498.6,425h-0.1l-270.7-75.7c-0.3-0.1-0.4-0.3-0.3-0.6c0,0,0,0,0,0c0.1-0.3,0.3-0.4,0.6-0.4L498.7,424
				c0.3,0.1,0.4,0.3,0.4,0.6c0,0,0,0,0,0C499,424.8,498.8,425,498.6,425z"></path><path class="st2" d="M503.7,406.9h-0.1l-272.2-70.3c-0.3-0.1-0.4-0.3-0.4-0.6c0.1-0.3,0.3-0.4,0.6-0.4c0,0,0,0,0,0l272.2,70.2
				c0.3,0,0.5,0.3,0.4,0.6S504,407,503.7,406.9L503.7,406.9z"></path><path class="st2" d="M508.2,391.6h-0.1L235.4,323c-0.3-0.1-0.4-0.3-0.4-0.6c0.1-0.3,0.3-0.4,0.6-0.4l272.7,68.6
				c0.3,0,0.5,0.3,0.4,0.6S508.5,391.6,508.2,391.6L508.2,391.6z"></path><path class="st2" d="M511,381.9h-0.1l-273-67.6c-0.3-0.1-0.4-0.3-0.4-0.6c0.1-0.3,0.3-0.4,0.6-0.4l272.9,67.6
				c0.3,0.1,0.4,0.3,0.4,0.6c0,0,0,0,0,0C511.4,381.7,511.2,381.9,511,381.9z"></path><path class="st2" d="M513.4,373.5h-0.1l-272.2-70.3c-0.3-0.1-0.4-0.3-0.4-0.6s0.3-0.4,0.6-0.4l272.2,70.3c0.3,0,0.5,0.3,0.4,0.6
				S513.6,373.5,513.4,373.5L513.4,373.5z"></path><path class="st2" d="M266.2,475.3c0,0-0.1,0-0.1,0c-0.3-0.1-0.4-0.3-0.4-0.6L330.9,247c0.1-0.3,0.4-0.4,0.6-0.4
				c0.3,0.1,0.4,0.4,0.4,0.6L266.7,475C266.6,475.2,266.4,475.3,266.2,475.3z"></path><path class="st2" d="M252.5,471h-0.1c-0.3-0.1-0.4-0.4-0.3-0.6l67.1-223.9c0.1-0.3,0.3-0.4,0.6-0.3c0,0,0,0,0,0
				c0.3,0.1,0.4,0.4,0.3,0.6l-67,223.9C252.9,470.9,252.7,471,252.5,471z"></path><path class="st2" d="M237.3,466.7c0,0-0.1,0-0.1,0c-0.3-0.1-0.4-0.3-0.4-0.6l49.8-173.9c0.1-0.3,0.4-0.4,0.6-0.3s0.4,0.4,0.3,0.6
				l-49.8,173.9C237.8,466.5,237.6,466.7,237.3,466.7z"></path><path class="st2" d="M222.5,462.5h-0.1c-0.3-0.1-0.4-0.4-0.4-0.6l48.2-174.5c0.1-0.3,0.4-0.4,0.6-0.4c0.3,0.1,0.4,0.3,0.4,0.6
				L223,462.2C222.9,462.4,222.7,462.5,222.5,462.5z"></path><path class="st2" d="M210.1,458.9H210c-0.3-0.1-0.4-0.3-0.4-0.6c0,0,0,0,0,0l42.9-175.9c0.1-0.3,0.3-0.4,0.6-0.4
				c0.3,0.1,0.4,0.3,0.4,0.6c0,0,0,0,0,0l-42.9,175.9C210.5,458.7,210.3,458.9,210.1,458.9z"></path><path class="st2" d="M196.8,455h-0.1c-0.3-0.1-0.4-0.3-0.4-0.6L237.5,278c0.1-0.3,0.3-0.4,0.6-0.4c0,0,0,0,0,0
				c0.3,0.1,0.4,0.3,0.4,0.6l-41.2,176.4C197.2,454.9,197,455,196.8,455z"></path><path class="st2" d="M188.2,452.6h-0.1c-0.3-0.1-0.4-0.3-0.4-0.6c0,0,0,0,0,0L228,275.3c0.1-0.3,0.3-0.4,0.6-0.4
				c0.3,0.1,0.4,0.3,0.4,0.6l-40.3,176.6C188.6,452.4,188.4,452.6,188.2,452.6z"></path><path class="st2" d="M177.4,449.5h-0.1c-0.3-0.1-0.4-0.3-0.4-0.6c0,0,0,0,0,0L219.8,273c0.1-0.3,0.3-0.4,0.6-0.4
				c0.3,0.1,0.4,0.3,0.4,0.6l-42.9,175.9C177.8,449.4,177.6,449.5,177.4,449.5z"></path><path class="st2" d="M318.6,502.1h-0.1c-0.3-0.1-0.4-0.4-0.3-0.6c0,0,0,0,0,0L407,217c0.1-0.3,0.4-0.4,0.6-0.3
				c0.3,0.1,0.4,0.4,0.4,0.6l-88.9,284.5C319,502,318.8,502.1,318.6,502.1z"></path><path class="st2" d="M304.9,497.6c0,0-0.1,0-0.1,0c-0.3-0.1-0.4-0.4-0.3-0.6l84-285.2c0.1-0.3,0.4-0.4,0.6-0.4
				c0.3,0.1,0.4,0.4,0.4,0.6l-84,285.2C305.4,497.5,305.2,497.6,304.9,497.6z"></path><path class="st2" d="M289.8,493.3h-0.1c-0.3-0.1-0.4-0.4-0.3-0.6l81.8-285.9c0.1-0.3,0.4-0.4,0.6-0.4c0.3,0.1,0.4,0.4,0.4,0.6
				l0,0l-81.8,285.8C290.2,493.1,290,493.3,289.8,493.3z"></path><path class="st2" d="M275,489.2c0,0-0.1,0-0.1,0c-0.3-0.1-0.4-0.3-0.4-0.6l80.2-286.5c0.1-0.3,0.4-0.4,0.6-0.4
				c0.3,0.1,0.4,0.4,0.4,0.6l0,0l-80.2,286.5C275.4,489.1,275.2,489.2,275,489.2z"></path><path class="st2" d="M262.6,485.5h-0.1c-0.3-0.1-0.4-0.3-0.4-0.6L337,197c0.1-0.3,0.3-0.4,0.6-0.4s0.4,0.3,0.4,0.6l-74.9,287.9
				C263,485.4,262.8,485.5,262.6,485.5z"></path><path class="st2" d="M249.2,481.6h-0.1c-0.3-0.1-0.4-0.3-0.4-0.6L322,192.7c0.1-0.3,0.3-0.4,0.6-0.4s0.4,0.3,0.4,0.6l-73.3,288.3
				C249.7,481.5,249.5,481.6,249.2,481.6z"></path><path class="st2" d="M240.7,479.2h-0.1c-0.3-0.1-0.4-0.3-0.4-0.6c0,0,0,0,0,0L312.5,190c0.1-0.3,0.3-0.4,0.6-0.4
				c0.3,0.1,0.4,0.3,0.4,0.6c0,0,0,0,0,0l-72.3,288.5C241.1,479,240.9,479.2,240.7,479.2z"></path><path class="st2" d="M229.9,476.1h-0.1c-0.3-0.1-0.4-0.3-0.4-0.6c0,0,0,0,0,0l74.9-287.9c0.1-0.3,0.3-0.4,0.6-0.4
				s0.4,0.3,0.4,0.6l-74.9,287.9C230.3,475.9,230.1,476.1,229.9,476.1z"></path><path class="st2" d="M475.4,358.6h-0.2l-221-70.9c-0.3-0.1-0.4-0.4-0.3-0.7s0.4-0.4,0.7-0.3l221,70.9c0.3,0.1,0.4,0.4,0.3,0.6
				C475.8,358.5,475.6,358.6,475.4,358.6z"></path><path class="st2" d="M480.8,339.6h-0.1l-222-65.9c-0.3-0.1-0.4-0.4-0.3-0.6c0.1-0.3,0.3-0.4,0.6-0.3c0,0,0,0,0,0l221.9,65.9
				c0.3,0,0.5,0.3,0.4,0.6S481,339.7,480.8,339.6L480.8,339.6z"></path><path class="st2" d="M485.9,322c0,0-0.1,0-0.1,0l-222.6-63.7c-0.3-0.1-0.4-0.4-0.4-0.6c0.1-0.3,0.4-0.4,0.6-0.4L486,321
				c0.3,0,0.5,0.3,0.4,0.6S486.1,322,485.9,322L485.9,322z"></path><path class="st2" d="M490.6,305.2h-0.1l-223.1-62.1c-0.3-0.1-0.4-0.4-0.4-0.6c0.1-0.3,0.4-0.4,0.6-0.4l223.1,62.1
				c0.3,0.1,0.4,0.3,0.3,0.6c0,0,0,0,0,0C491.1,305,490.9,305.2,490.6,305.2z"></path><path class="st2" d="M495.8,287.1h-0.1l-224.6-56.6c-0.3-0.1-0.4-0.3-0.4-0.6c0,0,0,0,0,0c0.1-0.3,0.3-0.4,0.6-0.4L496,286.1
				c0.3,0,0.5,0.3,0.4,0.6S496.2,287.1,495.8,287.1L495.8,287.1z"></path><path class="st2" d="M500.3,271.8h-0.1l-225.1-54.9c-0.3-0.1-0.4-0.3-0.4-0.6c0.1-0.3,0.3-0.4,0.6-0.4l225.1,54.9
				c0.3,0.1,0.4,0.3,0.4,0.6c0,0,0,0,0,0C500.7,271.6,500.5,271.8,500.3,271.8z"></path><path class="st2" d="M503,262h-0.1l-225.4-54c-0.3-0.1-0.4-0.3-0.4-0.6c0.1-0.3,0.3-0.4,0.6-0.4l225.4,54
				c0.3,0.1,0.4,0.3,0.4,0.6c0,0,0,0,0,0C503.5,261.9,503.3,262,503,262z"></path><path class="st2" d="M505.5,253.7h-0.1L280.7,197c-0.3-0.1-0.4-0.3-0.4-0.6c0,0,0,0,0,0c0.1-0.3,0.3-0.4,0.6-0.4c0,0,0,0,0,0
				l224.6,56.6c0.3,0,0.5,0.3,0.4,0.6S505.7,253.7,505.5,253.7L505.5,253.7z"></path><path class="st2" d="M426.4,538.8h-0.1c-0.3-0.1-0.4-0.4-0.3-0.6l88.9-284.5c0.1-0.3,0.4-0.4,0.6-0.3c0,0,0,0,0,0
				c0.3,0.1,0.4,0.3,0.3,0.6c0,0,0,0,0,0l-88.9,284.4C426.8,538.7,426.6,538.8,426.4,538.8z"></path><path class="st2" d="M412.8,534.3h-0.1c-0.3-0.1-0.4-0.4-0.3-0.6l84-285.3c0.1-0.3,0.4-0.4,0.6-0.3c0.3,0.1,0.4,0.3,0.3,0.6
				c0,0,0,0,0,0l-84,285.2C413.2,534.2,413,534.3,412.8,534.3z"></path><path class="st2" d="M397.6,530h-0.1c-0.3-0.1-0.4-0.3-0.3-0.6c0,0,0,0,0,0L479,243.5c0.1-0.3,0.3-0.4,0.6-0.3c0,0,0,0,0,0
				c0.3,0.1,0.4,0.4,0.3,0.6l-81.8,285.9C398.1,529.9,397.9,530,397.6,530z"></path><path class="st2" d="M382.8,525.9h-0.1c-0.3-0.1-0.4-0.4-0.4-0.6l80.2-286.5c0.1-0.3,0.3-0.4,0.6-0.4c0,0,0,0,0,0
				c0.3,0.1,0.4,0.3,0.4,0.6l-80.2,286.4C383.2,525.7,383,525.9,382.8,525.9z"></path><path class="st2" d="M370.4,522.2h-0.1c-0.3-0.1-0.4-0.3-0.4-0.6c0,0,0,0,0,0l74.9-287.9c0.1-0.3,0.4-0.4,0.6-0.4
				c0.3,0.1,0.4,0.3,0.4,0.6l-74.9,287.8C370.8,522.1,370.6,522.2,370.4,522.2z"></path><path class="st2" d="M357.1,518.3h-0.1c-0.3-0.1-0.4-0.3-0.4-0.6c0,0,0,0,0,0l73.2-288.3c0.1-0.3,0.3-0.4,0.6-0.4c0,0,0,0,0,0
				c0.3,0.1,0.4,0.3,0.4,0.6c0,0,0,0,0,0L357.5,518C357.5,518.2,357.3,518.3,357.1,518.3z"></path><path class="st2" d="M348.5,515.9h-0.1c-0.3-0.1-0.4-0.3-0.4-0.6c0,0,0,0,0,0l72.3-288.6c0.1-0.3,0.3-0.4,0.6-0.4
				c0.3,0.1,0.4,0.3,0.4,0.6L349,515.5C348.9,515.7,348.7,515.9,348.5,515.9z"></path><path class="st2" d="M337.7,512.8h-0.1c-0.3-0.1-0.4-0.3-0.4-0.6l74.9-287.8c0.1-0.3,0.3-0.4,0.6-0.4c0,0,0,0,0,0
				c0.3,0.1,0.4,0.3,0.4,0.6c0,0,0,0,0,0l-74.9,287.8C338.1,512.6,337.9,512.8,337.7,512.8z"></path></g></g><path class="st4" d="M382.2,374.2l26-10.4l19.2,59.9c0,0-2.4,6.7-31.5,2.9L382.2,374.2z"></path><path class="st0" d="M345,258c-7.2,0.2-33.1,0.4-33.1,0.4s6.1-24,17.1-24.9S345,258,345,258z"></path><path class="st4" d="M339.8,308.5c-1.2,1-3.1,0.9-4.1-0.4c-0.5-0.6-0.8-1.5-0.6-2.3c1.9-11.6,8.6-45.6,1.7-47
		c-13-2.6-18.8-20-18.8-20s-10.8-4.6-10.8-7s9.2-6.9,15.4-12.4s10.6-13.4,17.6-11.3s-2,10.8,2.2,19.3c2.6,5.1,8.9,5.4,8.9,5.4
		s1.9-8.2,10-1.6s-6.1,14.8-5.4,17c1.5,4.6,2.3,35.8,3.4,41.6C359.5,290.8,345.9,303.4,339.8,308.5z"></path><path class="st0" d="M339.2,228.5c-1.5-0.7-3.2-1-4.8-1c-0.8,0-1.6,0.2-2.3,0.5c-0.8,0.3-1.6,0.6-2.3,1.1c1.1-1.5,2.8-2.4,4.6-2.5
		c0.9,0,1.8,0.1,2.7,0.5C337.8,227.3,338.6,227.9,339.2,228.5z"></path><path class="st0" d="M338.8,233l-0.5-0.4c-0.1-0.1-0.2-0.2-0.3-0.4c-0.1-0.1-0.2-0.3-0.2-0.4c-0.1-0.2-0.1-0.4-0.1-0.6
		c0.5-0.1,0.9,0.1,1.2,0.5c0.1,0.2,0.2,0.4,0.2,0.6C339.1,232.6,339,232.8,338.8,233z"></path><path class="st0" d="M335.6,233.7c-0.3-0.3-0.6-0.6-0.8-1c-0.1-0.4-0.2-0.8-0.3-1.2c0.3,0,0.5,0,0.8,0.2c0.2,0.2,0.3,0.4,0.4,0.6
		C336,232.8,335.9,233.3,335.6,233.7z"></path><path class="st5" d="M333.4,246.2c0,0-1.7-2.2-3.9-0.9s1.4,7,5,6.1S333.4,246.2,333.4,246.2z"></path><path class="st0" d="M333.9,243c0.6,1.9,0,4-1.4,5.4c-0.7,0.7-1.6,1.1-2.5,1.4c-0.5,0.1-0.9,0.2-1.4,0.2c-0.5,0-0.9,0-1.4-0.1
		c0.4-0.2,0.9-0.3,1.3-0.4s0.8-0.3,1.2-0.5c0.8-0.3,1.5-0.8,2.1-1.4c0.6-0.6,1.1-1.3,1.4-2.1C333.5,244.8,333.8,243.9,333.9,243z"></path><path class="st0" d="M338.4,223c-0.4-0.5-0.9-1-1.4-1.5c-0.5-0.4-1-0.8-1.6-1.1c-0.6-0.3-1.2-0.5-1.9-0.6c-0.7-0.2-1.3-0.2-2.1-0.4
		c0.7-0.3,1.4-0.4,2.2-0.4c0.8,0,1.5,0.2,2.2,0.5c0.7,0.3,1.3,0.8,1.8,1.4C338,221.6,338.3,222.3,338.4,223z"></path><path class="st5" d="M334.4,207c0,0,4.6,24.8,20.3,33.8c0,0-14.5,7.9-11.9,16.5c2.6,8.6-11.8,11.2-11.1,17.9l74.7-7.6
		c0,0-6.8-20.8-21.3-20.7s4-16.6-12-31.4S334.4,207,334.4,207z"></path><path class="st5" d="M411.5,267c-2-3.2-4.4-6.3-7-9.1c-2.5-2.8-5.5-5.1-8.8-6.9c-1.6-0.9-3.4-1.6-5.1-2c-1.8-0.5-3.6-0.7-5.5-0.6
		c-3.8,0.2-7.5,1.1-11,2.6c3.2-2.3,7-3.7,10.9-4.1c4-0.4,8.1,0.4,11.7,2.3c3.5,1.9,6.6,4.5,9,7.6C408.2,259.9,410.1,263.3,411.5,267
		z"></path><path class="st0" d="M334.4,207c0.5,2.3,1.2,4.6,1.9,6.8c0.7,2.2,1.6,4.5,2.5,6.6c1.8,4.3,4.2,8.4,7.2,12.1c1.5,1.8,3.2,3.4,5,4.9
		c1.9,1.4,3.9,2.5,6.1,3.4c4.5,1.6,9.3,2,13.9,1.1c-1.2,0.3-2.3,0.5-3.5,0.6l-1.8,0.2h-1.8c-2.4,0-4.8-0.5-7.1-1.2
		c-2.3-0.8-4.4-1.9-6.4-3.4c-1.9-1.5-3.7-3.1-5.2-5c-3-3.7-5.4-7.9-7.1-12.4C336.3,216.3,335.1,211.7,334.4,207z"></path><polygon class="st0" points="339.6,274.4 358.1,276 357.8,272.5 	"></polygon><path class="st1" d="M338,100.4c0,0,51.4-14.3,58.4-11s6.1,9.4-2,13.9s-53.5,9.8-56.4,7.7S333.9,101.5,338,100.4z"></path><path class="st2" d="M383.7,93.8c0,0-3.2,2.6-1.2,5s5.5,0.2,5.9-1.6S388.2,92.8,383.7,93.8z"></path><path class="st1" d="M386.8,125.7c0,0,34.9-9.3,37.6-7.5s3.6,57,3,61.9s-35,4.5-38.9-0.3S386.8,125.7,386.8,125.7z"></path><path class="st0" d="M413.6,372.8c0,0-20.2-1.3-15.2,21c3.3,15,23.8,12.7,26.4-1.5C426.7,382.9,422.5,373.3,413.6,372.8z"></path><path class="st2" d="M409.2,378.6c0,0-1.8,9.9-0.3,11.2s6.1,2.2,6.8-1.5s1.2-9-0.8-9.8S409.5,376.9,409.2,378.6z"></path><path class="st2" d="M403.2,386.5c0.8,0,1.5-0.1,2.3-0.1h0.3l-0.1,0.4c-0.2,0.9-0.3,1.9-0.2,2.9c0,0.9,0.3,1.8,0.8,2.5
		c0.5,0.7,1.1,1.2,1.9,1.5c0.8,0.3,1.6,0.5,2.5,0.5h0.1c1,0.1,2.1,0.1,3.1,0c1-0.1,1.9-0.6,2.6-1.2c0.3-0.4,0.6-0.8,0.8-1.2
		c0.2-0.5,0.4-1.1,0.5-1.6c0.3-1.1,0.7-2.3,1-3.4l0.1-0.3h0.2c0.9,0.2,1.9,0.4,2.8,0.5c-1,0-1.9,0.1-2.9,0.1l0.3-0.2
		c-0.2,1.2-0.4,2.4-0.6,3.5c-0.1,0.6-0.2,1.2-0.4,1.8c-0.2,0.7-0.5,1.3-1,1.8c-0.9,0.9-2.1,1.6-3.3,1.8c-1.2,0.2-2.4,0.3-3.6,0.1
		h0.1c-1-0.1-2.1-0.3-3-0.7c-1-0.5-1.8-1.2-2.4-2.2c-0.5-1-0.7-2.1-0.7-3.2c0.1-1.1,0.3-2.1,0.7-3.1l0.2,0.4
		C404.8,386.9,404,386.7,403.2,386.5z"></path><path class="st2" d="M407.3,397.8c0.5-0.2,1-0.3,1.5-0.4c0.5-0.1,1-0.1,1.5-0.1c0.5,0,1,0.1,1.5,0.3c0.5,0.1,1,0.4,1.4,0.7
		c-0.5,0.3-1,0.5-1.5,0.6c-1,0.2-2,0.1-3-0.2C408.1,398.4,407.6,398.2,407.3,397.8z"></path><path class="st2" d="M410.7,395.1c0.2,0.2,0.4,0.5,0.5,0.8c0.1,0.2,0.1,0.5,0.1,0.8c0,0.3-0.1,0.5-0.2,0.7
		c-0.2,0.3-0.4,0.5-0.6,0.7c-0.2-0.2-0.4-0.5-0.5-0.8c-0.1-0.2-0.1-0.5-0.1-0.7c0-0.3,0.1-0.5,0.2-0.7
		C410.2,395.5,410.4,395.3,410.7,395.1z"></path><path class="st4" d="M370.2,369.1c0,0-20.2-1.3-15.2,21c3.3,15,23.8,12.7,26.4-1.5C383.2,379.3,379,369.7,370.2,369.1z"></path><path class="st0" d="M327.3,363c0,0-20.2-1.3-15.2,21c3.3,15,23.8,12.7,26.4-1.5C340.3,373.2,336.1,363.6,327.3,363z"></path><path class="st2" d="M358.8,387.4c0,0,6.2-2.2,6.3-2.9c0-0.7-0.2-1.5-0.4-2.1c0,0,4.4-0.6,6.3,0.5s0.6,3.2,0.6,3.2l5.8,2.8
		c0,0,2.1-3.2,1.1-5.8s-11.9-5.2-16.9-3.7S356.9,385.6,358.8,387.4z"></path><path class="st2" d="M321.6,374.9c0,0-3.1,0-3.5,0.4s-1.2,7.6-0.7,8.6s13.6,1.4,14.1,1.2s1.4-8,1.3-8.5s-3.8-1.8-3.8-1.8
		s-0.2-2.1-0.7-2.2c-2-0.3-3.9-0.4-5.9-0.5C322.1,373,321.8,373.9,321.6,374.9z"></path><path class="st0" d="M324.1,376.6c0,0-3.3,2.1-1.5,4.7s4.4,2.1,5-0.7S327.2,375.8,324.1,376.6z"></path><path class="st0" d="M395.4,182.4l0.1-2.8l-3.8-7.8c-0.5-1-0.4-2.3,0.2-3.2c6.9-10.4,9.4-18.8,16.8-13.7
		c10.2,7,14.5,27.5,14.5,27.5S416,186.4,395.4,182.4z"></path><path class="st2" d="M395.5,136.7c-0.3-2.3,0.5-4.5,2.2-6.1c2.8-2.4,9.1-2.8,12.4-1.8c3.4,1,8.4,10.8,4.7,15.3
		c-1.7,2.2-3.6,4.2-5.7,6c0,0,4.9,0.6-0.3,4.8c2.4,1.2,4.2,3.2,5.1,5.8c0,0-4.7-5.5-9.2-4s-4.9,4.6-7.3,3.4s1.7-13.9,1.7-13.9
		L395.5,136.7z"></path><path class="st4" d="M404.3,146.6c0.7-1.5,1.3-3.1,1.7-4.8c0,0-3.7-7.4-8.1-9.4c-1.4,1.5-2.6,3.1-3.7,4.8c-1.2,2.1-3.8,5.7-3.6,6.4
		s3.7,0.3,3.7,0.3s5.1,3.2,6.6,4.3C402.3,148.2,403.6,147.7,404.3,146.6z"></path><path class="st0" d="M399.1,138.1c-0.3,0.3-0.5,0.5-0.9,0.7c-0.3,0.2-0.7,0.4-1,0.5c-0.1-0.5,0.1-0.9,0.5-1.2
		C398.2,137.9,398.7,137.9,399.1,138.1z"></path><path class="st0" d="M400.3,139.5c-0.1,0-0.2,0-0.3,0c0,0-0.1,0-0.1,0c0-0.1-0.1-0.1,0-0.5c0.2-0.2,0.4-0.2,0.5-0.1
		c0.1,0.1,0.1,0.4,0,0.5C400.3,139.5,400.3,139.5,400.3,139.5L400.3,139.5z"></path><path class="st0" d="M399.4,139.9c-0.3,0-0.4,0-0.5-0.1s0-0.1,0-0.4c0.1-0.2,0.3-0.2,0.5-0.1c0,0,0,0,0.1,0.1
		C399.6,139.5,399.6,139.7,399.4,139.9z"></path><path class="st5" d="M399.8,143.5c-0.4-0.2-0.9-0.2-1.2,0.1c-0.5,0.6,1,1.8,1.9,1.2S399.8,143.5,399.8,143.5z"></path><path class="st0" d="M399.6,142.6c0.5,0.4,0.6,1.1,0.3,1.7c-0.1,0.3-0.4,0.5-0.6,0.7c-0.3,0.1-0.6,0.2-0.9,0.2
		c0.3-0.4,0.6-0.8,0.8-1.2C399.4,143.5,399.6,143.1,399.6,142.6z"></path><path class="st0" d="M399.1,137c-0.6-0.1-1-0.2-1.5-0.2c-0.5-0.1-0.9-0.1-1.4,0c0.1-0.3,0.4-0.5,0.6-0.6c0.3-0.1,0.6-0.2,0.9-0.1
		C398.3,136.1,398.8,136.5,399.1,137z"></path><path class="st0" d="M396.2,134.4c0,0,2.6-1.4,6.2,1.8c0,0-2.6-4-4.2-4.1C397.4,132.7,396.7,133.5,396.2,134.4z"></path></g><g id="screen-1"><path class="st0" d="M61.8,77.3c0,0-18.2,13.6-20,23.8S34,388.8,38.2,407.4s26.8,26,26.8,26L61.8,77.3z"></path><path class="st2" d="M189.1,87c7.9,2.6,13.3,9.9,13.6,18.2c2,56.1,9.7,293-0.4,306.2c-11.5,15-129.1,34.6-140.6,19.6
		s-10.4-337.6,0-353.8C70.5,63.7,154.9,75.4,189.1,87z"></path><path class="st1" d="M192.4,98.3c0,0-107.5-30.3-120.7-16.7s-3.4,333.4,0,342.1s107.3-3.5,120.7-17.8S204.1,101.5,192.4,98.3z"></path><path class="st2" d="M162,101.3c0,0-51.4-14.3-58.3-11s-6.1,9.4,2,13.9s53.5,9.8,56.3,7.8S166.1,102.4,162,101.3z"></path><path class="st4" d="M116.3,94.7c0,0,3.2,2.6,1.2,4.9s-5.5,0.2-5.9-1.6S111.8,93.7,116.3,94.7z"></path><path class="st2" d="M113.2,126.6c0,0-34.9-9.3-37.6-7.5s-3.6,57-3,61.9s35,4.6,38.9-0.3S113.2,126.6,113.2,126.6z"></path><path class="st0" d="M183.4,411.1l-4.6-42.5l12.3-25.4c1.6-3.4,1.4-7.4-0.8-10.5c-22.6-33.8-30.7-61.2-54.7-44.7
		c-33.2,22.9-61.3,137.4-61.3,137.4S115.8,433.4,183.4,411.1z"></path><path class="st2" d="M179.1,228.6c0,0,2-11.8-7.1-19.7s-29.6-9-40.5-5.8s-27.3,35.3-15.2,49.8s18.7,19.5,18.7,19.5
		s-15.9,2,0.9,15.5c0,0-12.7,5.5-16.5,18.8c0,0,15.5-18,30.1-13.1s16,15,23.9,11.2s-5.4-45.2-5.4-45.2L179.1,228.6z"></path><path class="st4" d="M150.1,260.7c-2.5-3.9-5.5-15.6-5.5-15.6s11.9-24,26.4-30.6c0,0,8.3,8.7,12.1,15.5s12.5,18.6,11.8,20.8
		s-12.2,0.9-12.2,0.9s-16.8,10.5-21.7,13.9C156.7,266.2,152.5,264.3,150.1,260.7z"></path><path class="st0" d="M167.2,233.1c0.7-0.3,1.4-0.4,2.1-0.2c1.4,0.2,2.7,1.1,3.4,2.3c0.4,0.6,0.5,1.4,0.4,2.1l-1.6-1l-1.4-0.9
		l-1.4-0.9C168.2,233.9,167.7,233.5,167.2,233.1z"></path><path class="st0" d="M163.4,237.8c-0.3-0.2-0.4-0.6-0.4-0.9c0-0.3,0.2-0.5,0.4-0.7c0.2-0.2,0.4-0.2,0.7-0.2c0.3,0,0.6,0.2,0.9,0.4
		c0,0.3,0,0.6-0.1,0.9c0,0.2-0.1,0.3-0.2,0.4c-0.1,0.1-0.2,0.1-0.4,0.1C164,237.7,163.7,237.7,163.4,237.8z"></path><path class="st0" d="M166.3,239c-0.3-0.2-0.4-0.6-0.4-0.9c0-0.3,0.1-0.5,0.2-0.7c0.2-0.2,0.4-0.4,0.7-0.4c0.4-0.1,0.7,0.1,1,0.3
		c0,0.3,0,0.6,0,0.9c0,0.1,0,0.3-0.1,0.4c-0.1,0.1-0.3,0.2-0.4,0.2C166.9,238.9,166.6,239,166.3,239z"></path><path class="st5" d="M165,250.8c0,0,2.2-1.4,3.8,0.4s-3.4,5.7-6.3,3.9S165,250.8,165,250.8z"></path><path class="st0" d="M165.6,247.8c0,0.8,0.1,1.7,0.2,2.5c0.1,0.7,0.3,1.4,0.7,2c0.3,0.6,0.8,1.2,1.2,1.8c0.2,0.3,0.5,0.6,0.8,0.9
		c0.3,0.3,0.6,0.6,0.9,1c-0.5,0-0.9-0.1-1.4-0.1c-0.5-0.1-0.9-0.3-1.3-0.6c-0.9-0.5-1.5-1.2-2-2.1c-0.5-0.9-0.6-2-0.4-3
		C164.4,249.2,164.9,248.4,165.6,247.8z"></path><path class="st0" d="M167.2,229.6c0.4-0.8,1.1-1.5,1.9-2c0.8-0.5,1.7-0.8,2.6-0.9c1-0.1,1.9,0,2.8,0.4c0.9,0.4,1.6,1,2.1,1.8
		c-1-0.1-1.7-0.3-2.5-0.3c-0.7,0-1.5,0-2.2,0.1C170.5,228.8,169,229.2,167.2,229.6z"></path><path class="st0" d="M176.6,220.9c0,0-8.5-4.6-20.1,5.9c0,0,8.4-12.9,13.7-13.4C170.2,213.4,175.7,218,176.6,220.9z"></path><path class="st0" d="M130.4,351.5c-1.1,6-2.4,12.1-3.7,18.1c-1.3,6-2.8,12-4.3,17.9s-3,11.9-4.7,17.8s-3.4,11.8-5.2,17.7
		c1.1-6.1,2.4-12.1,3.7-18.1c1.3-6,2.8-12,4.3-17.9s3.1-11.9,4.7-17.8S128.5,357.3,130.4,351.5z"></path><path class="st2" d="M176.3,372.4c0,0-20.1,2.2-11.4,23.3c5.9,14.2,25.6,8.4,25.8-6C190.9,380.2,185.1,371.4,176.3,372.4z"></path><path class="st1" d="M172.9,379c0,0-0.1,10,1.6,11.1s6.4,1.1,6.4-2.7s-0.3-9.1-2.5-9.5S172.9,377.2,172.9,379z"></path><path class="st1" d="M168.4,387.8c0.8-0.2,1.5-0.3,2.3-0.5l0.3-0.1v0.4c0,1,0.1,1.9,0.3,2.9c0.2,0.9,0.6,1.7,1.2,2.4
		c0.6,0.6,1.3,1,2.1,1.2c0.8,0.2,1.7,0.2,2.6,0.1h0.1c1-0.1,2-0.2,3-0.6c0.9-0.3,1.8-0.9,2.4-1.7c0.3-0.4,0.5-0.9,0.6-1.3
		c0.1-0.5,0.1-1.1,0.2-1.7c0.1-1.2,0.2-2.4,0.4-3.5V385h0.2c1,0,1.9,0,2.9,0.1c-0.9,0.2-1.9,0.4-2.8,0.6l0.3-0.3c0,1.2,0,2.4,0,3.6
		c0,0.6,0,1.2-0.1,1.9c-0.1,0.7-0.3,1.3-0.7,1.9c-0.7,1.1-1.8,1.9-3,2.3c-1.1,0.4-2.3,0.7-3.5,0.7h0.1c-1,0.1-2,0-3-0.2
		c-1.1-0.3-2-0.9-2.7-1.8c-0.7-0.9-1.1-1.9-1.2-3c-0.1-1-0.1-2.1,0.1-3.1l0.3,0.3C170,387.8,169.2,387.8,168.4,387.8z"></path><path class="st1" d="M174.3,398.1c0.4-0.3,0.9-0.5,1.4-0.7c0.5-0.2,0.9-0.3,1.4-0.3c0.5-0.1,1-0.1,1.5,0c0.5,0.1,1.1,0.2,1.5,0.5
		c-0.4,0.4-0.9,0.6-1.4,0.8c-0.9,0.4-2,0.5-2.9,0.3C175.3,398.7,174.8,398.5,174.3,398.1z"></path><path class="st1" d="M177.2,394.9c0.3,0.2,0.5,0.4,0.7,0.7c0.1,0.2,0.2,0.5,0.2,0.7c0,0.3,0,0.5-0.1,0.8c-0.1,0.3-0.3,0.6-0.5,0.8
		c-0.3-0.2-0.5-0.4-0.7-0.7c-0.1-0.2-0.2-0.5-0.2-0.7c0-0.3,0-0.5,0.1-0.7C176.8,395.4,177,395.1,177.2,394.9z"></path><path class="st4" d="M132.8,376.4c0,0-20.1,2.2-11.3,23.3c5.9,14.2,25.6,8.4,25.8-6C147.4,384.1,141.6,375.3,132.8,376.4z"></path><path class="st2" d="M89.6,377.8c0,0-20.1,2.2-11.3,23.3c5.9,14.2,25.6,8.4,25.8-6C104.2,385.5,98.3,376.8,89.6,377.8z"></path><path class="st2" d="M124.8,396.3c0,0,5.7-3.2,5.7-3.9c-0.2-0.7-0.4-1.4-0.7-2c0,0,4.3-1.3,6.3-0.6s1.2,3.1,1.2,3.1l6.2,1.8
		c0,0,1.5-3.6,0.1-6s-12.6-3-17.3-0.7S122.7,394.8,124.8,396.3z"></path><path class="st1" d="M86,390.5c0,0-3,0.5-3.3,1s0.1,7.7,0.8,8.6s13.6-1,14.1-1.3s0-8.1-0.2-8.6s-4-1.1-4-1.1s-0.5-2-1-2.1
		c-2,0.1-3.9,0.2-5.9,0.5C86.2,388.5,86.1,389.5,86,390.5z"></path><path class="st2" d="M88.7,391.7c0,0-2.9,2.7-0.7,4.9s4.7,1.3,4.8-1.6S91.7,390.3,88.7,391.7z"></path><path class="st1" d="M104.4,183.3l-0.3-3.1l3.9-8.1c0.5-1.1,0.4-2.4-0.2-3.4c-7.2-10.8-9.7-19.5-17.4-14.2
		c-10.6,7.3-12.6,28.9-12.6,28.9S86.1,189.3,104.4,183.3z"></path><g><defs><path id="SVGID_3_" d="M104.5,183.3l-0.3-3.1l3.9-8.1c0.5-1.1,0.4-2.4-0.2-3.4c-7.2-10.8-9.8-19.5-17.4-14.2
				c-10.6,7.3-12.6,28.9-12.6,28.9S86.2,189.3,104.5,183.3z"></path></defs><clipPath id="SVGID_4_"><use xlink:href="#SVGID_3_" style="overflow: visible;"></use></clipPath><g class="st6"><path class="st2" d="M155.1,231.4H155l-162.2-51c-0.1,0-0.2-0.2-0.2-0.3c0-0.1,0.2-0.2,0.3-0.2c0,0,0,0,0,0l162.2,51
				c0.1,0,0.2,0.2,0.2,0.3c0,0,0,0,0,0C155.3,231.3,155.2,231.4,155.1,231.4z"></path><path class="st2" d="M158.4,219.9L158.4,219.9l-162.8-48c-0.1,0-0.2-0.2-0.2-0.3c0-0.1,0.2-0.2,0.3-0.2l162.8,48
				c0.1,0,0.2,0.2,0.2,0.3C158.6,219.9,158.5,219.9,158.4,219.9L158.4,219.9z"></path><path class="st2" d="M161.4,209.3L161.4,209.3L-1.8,162.6c-0.1,0-0.2-0.2-0.2-0.3c0-0.1,0.2-0.2,0.3-0.2l163.1,46.7
				c0.1,0,0.2,0.2,0.2,0.3c0,0,0,0,0,0C161.7,209.2,161.6,209.3,161.4,209.3z"></path><path class="st2" d="M164.3,199.1L164.3,199.1L0.8,153.4c-0.1,0-0.2-0.2-0.2-0.3c0-0.1,0.2-0.2,0.3-0.2c0,0,0,0,0,0l163.5,45.7
				c0.1,0,0.2,0.2,0.2,0.3C164.5,199.1,164.5,199.1,164.3,199.1L164.3,199.1z"></path><path class="st2" d="M167.5,188.2L167.5,188.2L3,145.8c-0.1,0-0.2-0.2-0.2-0.3c0,0,0,0,0,0c0-0.1,0.2-0.2,0.3-0.2l164.4,42.4
				c0.1,0,0.2,0.2,0.2,0.3c0,0,0,0,0,0C167.6,188.1,167.6,188.2,167.5,188.2z"></path><path class="st2" d="M170.2,178.9L170.2,178.9L5.4,137.5c-0.1,0-0.2-0.2-0.2-0.3c0-0.1,0.2-0.2,0.3-0.2l164.7,41.4
				c0.1,0,0.2,0.2,0.2,0.3C170.4,178.9,170.3,178.9,170.2,178.9z"></path><path class="st2" d="M171.8,173.1L171.8,173.1L7,132.2c-0.1,0-0.2-0.2-0.2-0.3c0,0,0,0,0,0c0-0.1,0.2-0.2,0.3-0.2c0,0,0,0,0,0
				l164.8,40.8c0.1,0,0.2,0.2,0.2,0.3C172,173,172,173.1,171.8,173.1z"></path><path class="st2" d="M173.3,168L173.3,168L8.9,125.6c-0.1,0-0.2-0.2-0.2-0.3c0-0.1,0.2-0.2,0.3-0.2l164.4,42.4
				c0.1,0,0.2,0.2,0.2,0.3C173.5,167.9,173.4,168,173.3,168z"></path><path class="st2" d="M24,229.5L24,229.5c-0.2,0-0.3-0.2-0.2-0.3L63.1,91.7c0-0.1,0.2-0.2,0.3-0.2c0.1,0,0.2,0.2,0.2,0.3
				L24.2,229.3C24.2,229.4,24.1,229.5,24,229.5z"></path><path class="st2" d="M15.7,226.9L15.7,226.9c-0.2,0-0.3-0.2-0.2-0.3L56,91.4c0-0.1,0.2-0.2,0.3-0.2c0.1,0,0.2,0.2,0.2,0.3
				L16,226.7C16,226.9,15.8,226.9,15.7,226.9z"></path><path class="st2" d="M6.6,224.3L6.6,224.3c-0.2,0-0.3-0.2-0.2-0.3l30.1-105c0-0.1,0.2-0.2,0.3-0.2c0.1,0,0.2,0.2,0.2,0.3
				c0,0,0,0,0,0.1l-30,105C6.8,224.2,6.7,224.3,6.6,224.3z"></path><path class="st2" d="M-2.4,221.8L-2.4,221.8c-0.2,0-0.3-0.2-0.2-0.3l29.1-105.4c0-0.1,0.2-0.2,0.3-0.2c0.1,0,0.2,0.2,0.2,0.3
				L-2.1,221.6C-2.2,221.7-2.2,221.8-2.4,221.8z"></path><path class="st2" d="M-9.9,219.6L-9.9,219.6c-0.2,0-0.3-0.2-0.3-0.3c0,0,0,0,0,0l25.9-106.2c0-0.1,0.2-0.2,0.3-0.2
				c0.1,0,0.2,0.2,0.2,0.3L-9.6,219.4C-9.6,219.5-9.7,219.6-9.9,219.6z"></path><path class="st2" d="M-17.9,217.3L-17.9,217.3c-0.1,0-0.2-0.2-0.2-0.3c0,0,0,0,0,0L6.7,110.4c0-0.1,0.2-0.2,0.3-0.2
				c0.1,0,0.2,0.2,0.2,0.3l-24.9,106.5C-17.7,217.2-17.8,217.3-17.9,217.3z"></path><path class="st2" d="M-23.1,215.8L-23.1,215.8c-0.1,0-0.2-0.2-0.2-0.3c0,0,0,0,0,0L1,108.8c0-0.1,0.2-0.2,0.3-0.2c0,0,0,0,0,0
				c0.1,0,0.2,0.2,0.2,0.3c0,0,0,0,0,0l-24.3,106.7C-22.9,215.7-23,215.8-23.1,215.8z"></path><path class="st2" d="M55.7,245.7L55.7,245.7c-0.2,0-0.3-0.2-0.2-0.3l53.7-171.8c0-0.1,0.1-0.2,0.3-0.2c0.1,0,0.2,0.1,0.2,0.3
				c0,0,0,0.1,0,0.1L55.9,245.5C55.9,245.6,55.8,245.7,55.7,245.7z"></path><path class="st2" d="M47.4,243L47.4,243c-0.2,0-0.3-0.2-0.2-0.3L97.9,70.4c0-0.1,0.2-0.2,0.3-0.2c0,0,0,0,0,0
				c0.1,0,0.2,0.2,0.2,0.3L47.7,242.8C47.6,242.9,47.5,243,47.4,243z"></path><path class="st2" d="M38.3,240.4L38.3,240.4c-0.2,0-0.3-0.2-0.2-0.3L87.4,67.4c0-0.1,0.2-0.2,0.3-0.2c0,0,0,0,0,0
				c0.1,0,0.2,0.2,0.2,0.3L38.5,240.2C38.5,240.3,38.4,240.4,38.3,240.4z"></path><path class="st2" d="M29.3,237.9L29.3,237.9c-0.2,0-0.3-0.2-0.2-0.3c0,0,0,0,0,0l48.4-173c0-0.1,0.2-0.2,0.3-0.2s0.2,0.2,0.2,0.3
				c0,0,0,0,0,0.1l-48.4,173C29.5,237.8,29.4,237.9,29.3,237.9z"></path><path class="st2" d="M21.8,235.7L21.8,235.7c-0.2,0-0.3-0.2-0.2-0.3L66.8,61.5c0-0.1,0.2-0.2,0.3-0.2c0.1,0,0.2,0.2,0.2,0.3
				c0,0,0,0,0,0L22.1,235.5C22.1,235.6,22,235.7,21.8,235.7z"></path><path class="st2" d="M13.8,233.3L13.8,233.3c-0.2,0-0.3-0.2-0.2-0.3c0,0,0,0,0,0L57.8,58.9c0-0.1,0.2-0.2,0.3-0.2
				s0.2,0.2,0.2,0.3L14,233.1C14,233.2,13.9,233.3,13.8,233.3z"></path><path class="st2" d="M8.6,231.8L8.6,231.8c-0.2,0-0.3-0.2-0.2-0.3c0,0,0,0,0,0L52,57.2c0-0.1,0.1-0.2,0.3-0.2c0,0,0,0,0,0
				c0.1,0,0.2,0.2,0.2,0.3L8.8,231.6C8.8,231.8,8.7,231.8,8.6,231.8z"></path><path class="st2" d="M2.1,230L2.1,230c-0.2,0-0.3-0.2-0.3-0.3c0,0,0,0,0,0L47,55.8c0-0.1,0.2-0.2,0.3-0.2c0.1,0,0.2,0.2,0.2,0.3
				L2.3,229.8C2.3,229.9,2.2,230,2.1,230z"></path><path class="st2" d="M150.3,159L150.3,159L16.8,116.2c-0.1,0-0.2-0.2-0.2-0.3c0-0.1,0.2-0.2,0.3-0.2l133.5,42.8
				c0.1,0,0.2,0.2,0.2,0.3c0,0,0,0,0,0C150.5,158.9,150.4,159,150.3,159z"></path><path class="st2" d="M153.6,147.6L153.6,147.6L19.5,107.8c-0.1,0-0.2-0.2-0.2-0.3c0-0.1,0.2-0.2,0.3-0.2l134,39.8
				c0.1,0,0.2,0.2,0.2,0.3C153.8,147.5,153.7,147.6,153.6,147.6L153.6,147.6z"></path><path class="st2" d="M156.7,136.9L156.7,136.9L22.2,98.4c-0.1,0-0.2-0.2-0.2-0.3c0,0,0,0,0,0c0-0.1,0.2-0.2,0.3-0.2c0,0,0,0,0,0
				l134.4,38.5c0.1,0,0.2,0.2,0.2,0.3C156.9,136.8,156.8,136.9,156.7,136.9z"></path><path class="st2" d="M159.6,126.8L159.6,126.8L24.7,89.3c-0.1,0-0.2-0.2-0.2-0.3c0-0.1,0.2-0.2,0.3-0.2l134.8,37.5
				c0.1,0,0.2,0.2,0.2,0.3C159.8,126.7,159.7,126.8,159.6,126.8z"></path><path class="st2" d="M162.7,115.8L162.7,115.8L27,81.6c-0.1,0-0.2-0.1-0.2-0.3c0-0.1,0.1-0.2,0.3-0.2c0,0,0,0,0.1,0l135.6,34.2
				c0.1,0,0.2,0.2,0.2,0.3C162.9,115.8,162.8,115.8,162.7,115.8z"></path><path class="st2" d="M165.4,106.6L165.4,106.6l-136-33.2c-0.1,0-0.2-0.2-0.2-0.3c0-0.1,0.2-0.2,0.3-0.2l135.9,33.2
				c0.1,0,0.2,0.2,0.2,0.3C165.6,106.5,165.5,106.6,165.4,106.6z"></path><path class="st2" d="M167.1,100.7L167.1,100.7L30.9,68.1c-0.1,0-0.2-0.2-0.2-0.3c0-0.1,0.2-0.2,0.3-0.2l136.1,32.6
				c0.1,0,0.2,0.1,0.2,0.3S167.2,100.7,167.1,100.7z"></path><path class="st2" d="M168.5,95.6L168.5,95.6L32.8,61.4c-0.1,0-0.2-0.2-0.2-0.3c0-0.1,0.2-0.2,0.3-0.2l135.6,34.2
				c0.1,0,0.2,0.2,0.2,0.3c0,0,0,0,0,0C168.7,95.6,168.6,95.6,168.5,95.6z"></path><path class="st2" d="M120.8,267.9L120.8,267.9c-0.2,0-0.3-0.2-0.2-0.3l53.7-171.8c0-0.1,0.2-0.2,0.3-0.2c0,0,0,0,0,0
				c0.1,0,0.2,0.2,0.2,0.3L121,267.7C121,267.8,120.9,267.9,120.8,267.9z"></path><path class="st2" d="M112.5,265.1L112.5,265.1c-0.2,0-0.3-0.2-0.2-0.3c0,0,0,0,0,0L163,92.6c0-0.1,0.2-0.2,0.3-0.2
				s0.2,0.2,0.2,0.3c0,0,0,0,0,0L112.8,265C112.7,265.1,112.6,265.2,112.5,265.1z"></path><path class="st2" d="M103.4,262.5L103.4,262.5c-0.2,0-0.3-0.2-0.2-0.3l49.4-172.6c0-0.1,0.2-0.2,0.3-0.2c0.1,0,0.2,0.2,0.2,0.3
				c0,0,0,0,0,0.1l-49.4,172.6C103.6,262.5,103.5,262.5,103.4,262.5z"></path><path class="st2" d="M94.4,260.1L94.4,260.1c-0.2,0-0.3-0.2-0.2-0.3l48.4-173c0-0.1,0.2-0.2,0.3-0.2c0.1,0,0.2,0.2,0.2,0.3
				c0,0,0,0,0,0l-48.4,173C94.6,260,94.5,260.1,94.4,260.1z"></path><path class="st2" d="M87,257.8L87,257.8c-0.2,0-0.3-0.2-0.2-0.3c0,0,0,0,0,0l45.2-173.8c0-0.1,0.2-0.2,0.3-0.2
				c0.1,0,0.2,0.2,0.2,0.3l0,0L87.2,257.6C87.2,257.7,87.1,257.8,87,257.8z"></path><path class="st2" d="M78.9,255.5L78.9,255.5c-0.2,0-0.3-0.2-0.2-0.3c0,0,0,0,0,0l44.2-174.1c0-0.1,0.1-0.2,0.3-0.2
				c0.1,0,0.2,0.1,0.2,0.3c0,0,0,0,0,0.1L79.1,255.3C79.1,255.4,79,255.5,78.9,255.5z"></path><path class="st2" d="M73.7,254L73.7,254c-0.2,0-0.3-0.2-0.2-0.3c0,0,0,0,0,0l43.7-174.3c0-0.1,0.2-0.2,0.3-0.2s0.2,0.2,0.2,0.3
				L74,253.8C74,253.9,73.8,254,73.7,254z"></path><path class="st2" d="M67.2,252.1L67.2,252.1c-0.2,0-0.3-0.2-0.2-0.3L112.2,78c0-0.1,0.2-0.2,0.3-0.2c0,0,0,0,0,0
				c0.1,0,0.2,0.2,0.2,0.3L67.4,252C67.4,252.1,67.3,252.1,67.2,252.1z"></path></g></g><path class="st4" d="M88.6,177.1l-9.2-3.3l-2.5,9.5c0,0,3,2.5,9.4,2.6L88.6,177.1z"></path><path class="st0" d="M96.8,145.4c2.3,0.1,10.5,0.1,10.5,0.1s-2-7.7-5.4-7.9S96.8,145.4,96.8,145.4z"></path><path class="st4" d="M98.4,161.5c0.4,0.3,1,0.3,1.3-0.1c0.2-0.2,0.2-0.5,0.2-0.7c-0.6-3.7-2.8-14.5-0.5-15c4.2-0.8,6-6.4,6-6.4
		s3.4-1.5,3.4-2.2s-2.9-2.2-4.9-4s-3.4-4.3-5.6-3.6s0.6,3.4-0.7,6.1c-0.6,1-1.7,1.7-2.8,1.7c0,0-0.6-2.6-3.2-0.5s2,4.7,1.7,5.4
		c-0.5,1.5-0.7,11.4-1.1,13.3C92.2,155.8,96.5,159.8,98.4,161.5z"></path><path class="st0" d="M98.6,136c0.4-0.5,0.9-0.8,1.6-0.7c0.6,0,1.2,0.4,1.5,0.9c-0.2-0.1-0.5-0.2-0.8-0.3c-0.2-0.1-0.5-0.1-0.7-0.1
		C99.6,135.8,99.1,135.8,98.6,136z"></path><path class="st0" d="M98.7,137.4c-0.2-0.1-0.2-0.3-0.1-0.5c0,0,0,0,0,0c0-0.1,0.1-0.1,0.2-0.1c0.1,0,0.2,0,0.3,0
		c0.1,0.1,0.1,0.3,0,0.4C99,137.3,98.9,137.3,98.7,137.4z"></path><path class="st0" d="M99.8,137.6c-0.2-0.1-0.2-0.3-0.1-0.5c0.1-0.2,0.3-0.3,0.5-0.2c0,0.1,0,0.3,0,0.4
		C100,137.4,100,137.5,99.8,137.6z"></path><path class="st5" d="M100.5,141.6c0.3-0.4,0.8-0.5,1.3-0.3c0.7,0.4-0.4,2.2-1.6,1.9S100.5,141.6,100.5,141.6z"></path><path class="st0" d="M100.3,140.6c0.1,0.3,0.2,0.5,0.3,0.8c0.1,0.2,0.3,0.4,0.4,0.6c0.2,0.2,0.4,0.3,0.6,0.4
		c0.2,0.1,0.5,0.2,0.8,0.4c-0.1,0-0.3,0-0.4,0.1c-0.2,0-0.3,0-0.5,0c-0.3-0.1-0.6-0.2-0.9-0.4C100.2,141.9,100,141.2,100.3,140.6z"></path><path class="st0" d="M98.9,134.2c0-0.5,0.3-1,0.8-1.2c0.2-0.1,0.5-0.2,0.7-0.1c0.2,0,0.5,0.1,0.7,0.2c-0.4,0.1-0.8,0.2-1.2,0.4
		C99.5,133.7,99.2,133.9,98.9,134.2z"></path><path class="st5" d="M100.2,129.1c0,0-1.5,7.9-6.5,10.8c0,0,4.6,2.5,3.8,5.2s3.8,3.6,3.5,5.7l-23.8-2.4c0,0,2.2-6.6,6.8-6.6
		s-1.2-5.3,3.8-10S100.2,129.1,100.2,129.1z"></path><path class="st5" d="M75.6,148.2c0.5-1.1,1.1-2.2,1.9-3.2c0.8-1,1.8-1.8,2.9-2.4c1.1-0.6,2.4-0.9,3.7-0.7c1.2,0.1,2.4,0.6,3.5,1.2
		c-1.1-0.5-2.3-0.8-3.5-0.9c-1.2,0-2.4,0.2-3.4,0.8c-1.1,0.6-2,1.3-2.8,2.2C76.9,146.2,76.2,147.2,75.6,148.2z"></path><path class="st0" d="M100.2,129.1c-0.2,1.5-0.6,3-1.2,4.4c-0.5,1.4-1.3,2.8-2.3,4c-1,1.2-2.3,2.1-3.7,2.7c-1.5,0.4-3,0.5-4.5,0.1
		c1.5,0.2,3,0.1,4.4-0.4c1.4-0.6,2.6-1.5,3.5-2.6c0.9-1.2,1.7-2.4,2.3-3.8C99.3,132,99.8,130.6,100.2,129.1z"></path><polygon class="st0" points="98.5,150.6 92.6,151.1 92.7,150 	"></polygon></g><g id="speech-bubble"><path class="st2" d="M271.5,289.6c0,0,12.5,4.6,10.9,2.8s-6.4-6.9-7.3-8.2s-15.8-22.2-18.8-24.7s-38.1,22.7-38.9,25.5
		s17.1,27.1,20,28.6S271.5,289.6,271.5,289.6z"></path><path class="st1" d="M238,302.3c-0.6-2.6-3.6-15.4,1.3-17.8c1.3-0.6,2.8-0.5,4,0.4c0.5-3.1,1.9-5.2,4-5.9c1.2-0.4,2.4-0.4,3.6-0.1
		c0.5-1.3,1.5-2.4,2.8-3c4.5-2.2,8.1,1.4,9.5,3.6l-1.7,1c-0.1-0.2-2.9-4.7-6.9-2.8c-0.8,0.4-1.5,1.2-1.8,2.1
		c0.3,0.2,0.5,0.4,0.8,0.6c2.1,1.9,3.4,5,3,7.2c-0.1,1-0.8,1.8-1.7,2.1c-1.5,0.5-2.9-0.5-3.8-2.6c-0.8-2-1-4.2-0.6-6.3
		c-0.8-0.2-1.6-0.2-2.4,0.1c-2.1,0.7-2.7,3.5-2.9,5.5c2.3,2.3,4.1,6.2,3.9,8.6c0,0.9-0.5,1.8-1.3,2.2c-0.7,0.3-1.4,0.2-2-0.2
		c-1.7-1.2-2.8-5.7-2.7-9.8c-0.1-0.1-0.3-0.3-0.5-0.4c-0.7-0.6-1.6-0.8-2.4-0.5c-2.6,1.2-1.7,9.8-0.3,15.5L238,302.3z M245.1,289.5
		c0.3,3.2,1.2,5.4,1.8,5.8c0.1-0.2,0.1-0.3,0.1-0.5C247.2,293.5,246.4,291.4,245.1,289.5z M252.3,281.9c-0.1,1.5,0.1,3,0.6,4.4
		c0.3,0.8,0.9,1.6,1.3,1.4c0.1,0,0.3-0.1,0.4-0.6C254.8,285.9,254,283.4,252.3,281.9z"></path><rect class="st1" x="263.3" y="281.4" transform="matrix(0.82 -0.5724 0.5724 0.82 -114.2586 202.2106)" width="2" height="2.6"></rect><path class="st1" d="M223.5,121.1c0,0-7.6,11.2-7.5,8.8s1-9.3,1-10.9s-0.8-27.2,0.2-31.1s46.8-5,49.3-3.1s2.7,31.9,1.3,34.9
		S223.5,121.1,223.5,121.1z"></path><path class="st2" d="M232.7,97.1c0,0-1.1,10.1,0,11.6s17.3,0.8,17.3-0.9s0-9.6-1.5-10.7S232.7,97.1,232.7,97.1z"></path><path class="st2" d="M256.8,97.6c0,0-13.8,4.2-12.8,5.5s12.8,4.7,12.8,4.7V97.6z"></path><path class="st1" d="M220.3,141.7c-2,6.3-3.3,12.9-3.8,19.5c-0.3,3.3-0.1,6.5,0.6,9.7c0.7,3.1,2.5,6,5.2,7.4
		c0.3,0.2,0.7,0.3,1.1,0.4l0.5,0.2c0.2,0,0.4,0.1,0.6,0.1l1.1,0.2l1.2,0.1c1.6,0.1,3.2,0,4.8-0.3c3.2-0.5,6.3-1.5,9.2-2.9
		c0.4-0.2,0.6-0.4,1-0.6s0.6-0.5,0.9-0.7c0.4-0.4,0.7-1,0.9-1.6c0.1-1-1.1-1.9-2.4-2c-0.7-0.1-1.3,0.1-1.9,0.4
		c-0.6,0.3-1.2,0.7-1.6,1.3c-0.8,1.2-1.4,2.7-1.5,4.1c-0.1,0.8-0.1,1.6-0.1,2.3c0.1,0.8,0.1,1.6,0.2,2.4s0.2,1.6,0.4,2.4
		c0.1,0.8,0.3,1.6,0.6,2.3c0.5,1.5,1.1,3,1.8,4.4c0.8,1.4,1.7,2.7,2.7,4c2.1,2.5,4.4,4.8,6.9,7c1.2,1.1,2.4,2.3,3.6,3.5
		c1.2,1.3,2.2,2.6,3.2,4c2,2.8,3.3,6,4,9.4c0.6,3.3,0.8,6.7,0.5,10.1c-0.3,3.3-0.9,6.6-1.8,9.9c-0.4,1.6-0.9,3.2-1.4,4.8
		s-1.1,3.1-1.6,4.7c1.9-6.4,3.5-12.9,3.8-19.4c0.2-3.3,0-6.5-0.7-9.7c-0.7-3.2-2.1-6.1-4-8.8c-3.8-5.2-9.5-9-13.8-14.3
		c-1.1-1.3-2.1-2.7-2.9-4.2c-0.8-1.5-1.5-3.1-2-4.8c-0.3-0.8-0.5-1.6-0.7-2.5c-0.2-0.8-0.3-1.7-0.4-2.5s-0.2-1.7-0.2-2.6
		c0-0.9,0-1.8,0.1-2.6c0.2-1.8,0.8-3.6,1.9-5.1c1.2-1.6,3.2-2.5,5.2-2.4c1,0.1,2,0.4,2.8,1.1c0.9,0.7,1.4,1.8,1.3,3
		c-0.2,1-0.6,2-1.4,2.7c-0.7,0.6-1.4,1.2-2.2,1.6c-3.1,1.5-6.4,2.5-9.8,3c-1.7,0.3-3.4,0.4-5.2,0.3l-1.3-0.1l-1.3-0.3
		c-0.2-0.1-0.4-0.1-0.6-0.2l-0.6-0.3c-0.4-0.1-0.8-0.3-1.2-0.6c-1.6-0.9-2.9-2.1-3.8-3.6c-0.9-1.5-1.6-3.1-1.9-4.8
		c-0.6-3.3-0.8-6.7-0.4-10.1c0.4-3.3,1-6.6,1.8-9.9C218.2,148,219.1,144.8,220.3,141.7z"></path></g><g id="bubble"><circle class="st2" cx="317.2" cy="44.6" r="7.6"></circle><circle class="st2" cx="338.9" cy="451.6" r="8.2"></circle><circle class="st2" cx="259.4" cy="452.1" r="10.9"></circle><circle class="st2" cx="250.3" cy="363" r="6"></circle><circle class="st2" cx="138" cy="44.6" r="7.6"></circle></g></svg>