<svg transform="scale(1)" version="1.1" id="Layer_1" xmlns="http://www.w3.org/2000/svg" xmlns:xlink="http://www.w3.org/1999/xlink" x="0px" y="0px" viewBox="0 0 500 500" xml:space="preserve" class="show_show__wrapper__graphic__5Waiy "><title>React</title><style type="text/css">
	.st0{fill:#F2EBEB;}
	.st1{fill:#e63946;}
	.st2{fill:#000001;}
	.st3{fill:#EA8383;}
	.st4{fill:#A04040;}
	.st5{clip-path:url(#SVGID_2_);}
</style><g id="image"><rect class="st0" x="72.6" y="175.9" width="100.5" height="53.4"></rect><path class="st1" d="M75,215.5c1.3-2.1,2.7-4.2,4.3-6.2c1.5-2,3.2-3.9,5-5.6c1.8-1.8,3.9-3.3,6.1-4.6c2.3-1.3,4.9-2,7.6-1.7
		c2.7,0.3,5.2,1.7,7,3.8c1.7,2,3,4.3,3.9,6.7c0.9,2.3,1.9,4.5,3.1,6.6c0.6,0.9,1.4,1.7,2.3,2.3c0.9,0.5,2,0.8,3.1,0.7
		c2.4-0.2,4.6-0.9,6.7-2c2.2-1.1,4.4-2.4,6.6-3.5c4.4-2.4,9-4.6,13.7-6.3c2.4-0.9,4.9-1.4,7.5-1.6c2.6-0.2,5.2,0.4,7.5,1.8
		c2.1,1.4,3.9,3.4,5.1,5.7c1.2,2.2,2.1,4.6,2.7,7c-0.8-2.3-1.9-4.6-3.1-6.8c-1.2-2.1-3-3.9-5.1-5.1c-2.1-1.1-4.5-1.6-6.9-1.3
		c-2.4,0.3-4.8,0.9-7.1,1.8c-4.6,1.9-9,4.1-13.4,6.5l-3.3,1.8c-1.1,0.6-2.2,1.2-3.3,1.8c-2.3,1.3-4.9,2-7.5,2.3
		c-1.4,0.1-2.9-0.3-4.1-1c-1.2-0.8-2.2-1.8-2.9-3c-1.3-2.2-2.3-4.6-3.2-7c-0.8-2.3-2-4.4-3.5-6.2c-1.5-1.8-3.6-3-5.9-3.3
		c-2.4-0.2-4.7,0.2-6.8,1.4c-2.2,1.1-4.2,2.5-6,4.1C81.3,207.8,77.9,211.5,75,215.5z"></path><path class="st1" d="M125.3,205h-0.3c-2.3,0-4.3-1.7-4.7-4c-0.4-1.6-0.2-3.3,0.7-4.7c0.8-1.2,2-2,3.4-2.3c2-0.5,4.2,0.1,5.6,1.7
		c1.4,1.4,1.9,3.5,1.2,5.4C130.2,203.5,127.9,205.1,125.3,205z M124.8,195.9c-0.4,0.1-3.3,0.8-2.6,4.6c0.2,1.4,1.4,2.4,2.8,2.5
		c1.8,0.1,3.5-0.9,4.3-2.6c0.4-1.2,0.1-2.5-0.8-3.4C127.5,196,126.1,195.6,124.8,195.9L124.8,195.9z"></path></g><g id="character-2"><path class="st2" d="M211.5,327.8c0,0,69.1-54.3,107.3-51.8s128.9,124.6,126.4,146.2s-108.5,10.5-108.5,10.5l-86.3-8L211.5,327.8z"></path><path class="st3" d="M224.8,259.4c0,0,2.5,32.6,3.8,32.6s4.4-2.3,4.4-2.3s3.6,22,19.2,47.5c0,0,28.5-14.3,37.3-31.9
		c0,0-28.1-71.5-35-71.4S224.8,259.4,224.8,259.4z"></path><path class="st1" d="M259.3,254.6c0,0,2,15.8,4.5,17.8s8.3-8.5,8.3-8.5S261.9,230,257,227.2s-62.8,47.1-56.2,47.6s24-15.5,24-15.5
		l20.8-9.5C245.5,249.8,252.8,255.5,259.3,254.6z"></path><path class="st3" d="M271.7,264.4c0,0,8.9-8.8,2.1-17s-8.5,13.8-8.5,13.8L271.7,264.4z"></path><path class="st0" d="M249.4,266.5c0,0-11.4-0.2-11.9,9.7c-0.1,0.7,0.5,1.3,1.2,1.4c0.1,0,0.1,0,0.2,0
		C242.1,277.1,250.1,275.3,249.4,266.5z"></path><path class="st2" d="M249.9,266.2c-1.5,0.2-3,0.6-4.5,1.1c-1.4,0.5-2.8,1.2-4,2.1c-1.2,0.9-2.2,2-2.9,3.3c-0.7,1.4-1.1,2.9-1.1,4.4
		c-0.4-1.6-0.2-3.2,0.4-4.7c0.6-1.5,1.7-2.8,3-3.8c1.3-0.9,2.8-1.6,4.4-2C246.7,266.2,248.3,266.1,249.9,266.2z"></path><path class="st2" d="M239.8,270.2c0,0,3.2-0.2,4.1,6c0,0-6.5,3-6.5,0.7C237.4,276.8,237.5,271,239.8,270.2z"></path><path class="st2" d="M253.9,281.5c0.6,0.5,1,1.3,1.1,2.1c0.1,0.9-0.2,1.7-0.7,2.4c-0.5,0.6-1.2,1.1-1.9,1.4
		c-0.4,0.1-0.7,0.2-1.1,0.2c-0.4,0-0.8,0-1.1-0.1c0.2-0.3,0.5-0.6,0.8-0.8c0.2-0.2,0.5-0.5,0.7-0.7c0.4-0.4,0.8-0.8,1.1-1.2
		C253.3,283.8,253.7,282.7,253.9,281.5z"></path><path class="st2" d="M249.2,261.3c-2.7,1-5.2,1.9-7.6,2.9c-1.2,0.5-2.5,1-3.7,1.5s-2.5,1.1-3.9,1.6c0.9-1.1,1.9-2.1,3.1-2.9
		c1.2-0.8,2.4-1.5,3.7-2c1.3-0.5,2.7-0.9,4.1-1.1C246.4,261,247.8,261,249.2,261.3z"></path><path class="st2" d="M332.5,358.2c1.8,2.8,3.5,5.7,5,8.6s3.1,5.9,4.5,8.8s2.9,6,4.2,9s2.6,6.1,3.6,9.3c-1.8-2.8-3.5-5.7-5-8.6
		s-3.1-5.9-4.5-8.8s-2.9-6-4.2-9S333.6,361.4,332.5,358.2z"></path><path class="st4" d="M318,378.7c0,0-25.6-13.7-29.9-12.9s8,14.7,8,14.7L318,378.7z"></path><path class="st3" d="M336.9,405.1c0,0-19.4,2.7-34.1,8.2c-11.5,4.3-16.4,9.3-15.6,3.5s13.6-16,13.6-16s-3.9-1.6-15.2,3.5
		s-14.8,7.4-14.4,2s22.6-14.4,22.6-14.4s-7.1-1.6-15.6-3.6s-19.9,0.8-17.5-3.9s30.4-6.9,33.9-7.2s26.6-1.8,37.5,0
		c8,1.3,70.1-3.3,96.8,22.9s1.5,35.1-33.1,35.6S336.9,405.1,336.9,405.1z"></path><path class="st2" d="M299.5,389.6c-2.5,1.4-5,2.6-7.5,3.9s-5,2.5-7.5,3.7s-4.9,2.5-7.3,3.9c-1.2,0.7-2.3,1.4-3.4,2.2
		c-1.1,0.7-2.1,1.8-2.7,3c0.3-1.4,1-2.7,2-3.8c1-1,2.1-2,3.2-2.8c2.3-1.6,4.7-3.1,7.3-4.4c2.5-1.3,5.1-2.4,7.7-3.4
		C294.1,391,296.8,390.2,299.5,389.6z"></path></g><g id="device-2"><path class="st2" d="M274.9,432l65.8,0.8c0,0-0.8-3.8-3.8-5.5s-65-1.7-65-1.7L274.9,432z"></path><path class="st1" d="M54.4,311.1c0,0,163.9-5.3,168.5,0.4s52,120.5,52,120.5s-159.3,0-166.2-1.1S54.4,311.1,54.4,311.1z"></path><path class="st0" d="M147,377.7l14.2-17.7c0,0,11.4,9.7,4,20S147,377.7,147,377.7z"></path></g><g id="palette"><path class="st0" d="M300.2,203c0,0,13.4-115,15.3-118.1s27.8,0,29.6,3.2s-15.2,114.4-18,118.5S300.2,205.2,300.2,203z"></path><path class="st1" d="M307.5,173.5c0,0,19.5,5.1,20.1,2.5s3.1-24.9,3.1-24.9s-19.8-3.3-20.1-2.2S307.5,173.5,307.5,173.5z"></path><path class="st1" d="M313,142.5c0,0,19.5,5.1,20.1,2.5s3.1-24.9,3.1-24.9s-19.8-3.3-20.1-2.2S313,142.5,313,142.5z"></path><path class="st1" d="M316.9,113.2c0,0,19.5,5.1,20,2.5s3.1-24.9,3.1-24.9s-19.7-3.3-20-2.2S316.9,113.2,316.9,113.2z"></path><path class="st0" d="M303.2,191.8c0,0,62-97.7,65.1-99.7s25,12.1,25.3,15.7s-63.4,96.4-67.6,98.9S302.3,193.9,303.2,191.8z"></path><path class="st1" d="M322.6,168.4c0,0,15.3,13.1,17,10.9s13.6-21.1,13.6-21.1s-16.4-11.5-17.1-10.8S322.6,168.4,322.6,168.4z"></path><path class="st1" d="M341,142.9c0,0,15.3,13.1,17,10.9s13.6-21.1,13.6-21.1s-16.4-11.5-17.1-10.7S341,142.9,341,142.9z"></path><path class="st1" d="M357.2,118.2c0,0,15.3,13.1,17,10.9c1.7-2.2,13.6-21.1,13.6-21.1s-16.4-11.5-17.1-10.8
		S357.2,118.2,357.2,118.2z"></path><path class="st0" d="M304.4,182.5c0,0,108.7-39.9,112.3-39.6s12.6,24.8,10.5,27.9s-108.9,38-113.8,37.4S302.4,183.6,304.4,182.5z"></path><path class="st3" d="M334,175.7c0,0,4.2,19.7,6.9,19s23.7-8.5,23.7-8.5s-6-19.1-7.1-18.9S334,175.7,334,175.7z"></path><path class="st3" d="M364.2,166.6c0,0,4.2,19.7,6.9,19s23.7-8.5,23.7-8.5s-6-19.1-7-18.9S364.2,166.6,364.2,166.6z"></path><path class="st3" d="M392.1,156.9c0,0,4.2,19.7,6.9,19s23.6-8.5,23.6-8.5s-6-19.1-7-18.9S392.1,156.9,392.1,156.9z"></path><path class="st3" d="M314.4,189.8c0,0-3.1,1.6-1.6,4.5s5.1,0.5,5-1.8c0-1.5-1.1-2.7-2.6-2.7C314.9,189.7,314.7,189.7,314.4,189.8z"></path><path class="st2" d="M362,161.3c-6.1,2.5-12.3,4.9-18.5,7.2c-6.2,2.3-12.4,4.6-18.6,6.9l-9.3,3.4c-3.1,1.1-6.2,2.3-9.2,3.5
		c-0.8,0.3-1.5,0.6-2.2,1c-0.2,0.1-0.3,0.2-0.5,0.3l-0.1,0.1l0,0c0,0,0-0.1,0.1-0.1c0-0.1,0,0,0,0c0,0.3,0,0.7,0,1
		c0.2,1.6,0.6,3.2,1,4.8c0.8,3.2,1.8,6.4,2.7,9.5c-1.4-3-2.5-6.1-3.7-9.3c-0.6-1.6-1-3.2-1.4-4.9c-0.1-0.5-0.1-1-0.1-1.5
		c0-0.1,0-0.2,0.1-0.3c0-0.1,0.1-0.2,0.1-0.2l0.1-0.1c0.1-0.1,0.2-0.2,0.3-0.3l0.6-0.4c0.8-0.4,1.5-0.8,2.3-1.2
		c6.1-2.8,12.3-5.1,18.5-7.4s12.5-4.4,18.8-6.4S355.6,163.1,362,161.3z"></path><path class="st2" d="M339.6,135.2c-2,3.8-4.1,7.5-6.2,11.2s-4.4,7.3-6.7,10.9s-4.7,7.1-7.1,10.7s-4.9,7-7.5,10.4
		c2-3.8,4.1-7.5,6.2-11.2s4.4-7.3,6.7-10.9s4.6-7.1,7.1-10.6S336.9,138.6,339.6,135.2z"></path></g><g id="pencil-case"><path class="st2" d="M409.9,359.7c-8-6.4-12.5,8.2-12.5,8.2c-1.4-11.5-14.6-17.3-14.6-4.5s11.7,18.1,11.7,18.1
		c-5.8,3.7-4.9,23.7-4.9,23.7l3.4-0.4c0,0-2.2-10.7,0-16.5s4.5-5.8,4.5-5.8c2.8,5.8,2.8,19.5,2.8,19.5s-1.9,8,1.2,1.4
		s-3.1-22-3.1-22C402.3,381.5,417.9,366.1,409.9,359.7z M389.3,363c4.1-0.6,6.2,15.6,6.2,15.6C389.5,377.2,385.2,363.6,389.3,363z
		 M398.6,378.6c-1.3-7.1,5.8-17.1,8.2-13.4S398.6,378.6,398.6,378.6L398.6,378.6z"></path><polygon class="st1" points="408.3,399.9 412.2,384.5 408.3,382.5 402.8,399.9 	"></polygon><polygon class="st3" points="412.2,377.9 408.3,382.5 412.2,384.5 	"></polygon><path class="st1" d="M410.8,379.6l1.4,0.6c0,0,0.8-2.9,0-2.5S410.8,379.6,410.8,379.6z"></path><path class="st1" d="M379.1,399.9c0,0-7.7-29.4-7.7-30.8s7-2.7,7-2.7l9.3,33.5H379.1z"></path><rect class="st3" x="379.1" y="366.6" transform="matrix(0.9588 -0.2842 0.2842 0.9588 -93.3738 123.6877)" width="1" height="34"></rect><polygon class="st1" points="381.4,451 372.9,399.9 413,399.9 407.8,449.3 	"></polygon><g><defs><polygon id="SVGID_1_" points="381.4,451 372.9,399.9 413,399.9 407.8,449.3 			"></polygon></defs><clipPath id="SVGID_2_"><use xlink:href="#SVGID_1_" style="overflow: visible;"></use></clipPath><g class="st5"><path class="st0" d="M508.6,519.5c-0.1,0-0.2,0-0.2,0l-241.5-76c-0.4-0.1-0.7-0.5-0.6-0.9s0.5-0.7,0.9-0.6c0,0,0.1,0,0.1,0
				l241.5,76c0.4,0.1,0.6,0.5,0.5,1C509.2,519.3,508.9,519.5,508.6,519.5L508.6,519.5z"></path><path class="st0" d="M513.5,502.4h-0.2L271,430.9c-0.4-0.2-0.6-0.6-0.4-1c0.1-0.4,0.5-0.6,0.9-0.5l242.3,71.5
				c0.4,0.1,0.7,0.5,0.6,0.9C514.2,502.2,513.9,502.4,513.5,502.4L513.5,502.4z"></path><path class="st0" d="M518,486.5h-0.2L274.9,417c-0.4-0.1-0.7-0.5-0.5-1c0,0,0,0,0,0c0.1-0.4,0.5-0.7,0.9-0.6c0,0,0.1,0,0.1,0
				L518.2,485c0.4,0.1,0.6,0.6,0.5,1C518.6,486.3,518.3,486.5,518,486.5L518,486.5z"></path><path class="st0" d="M522.3,471.4c-0.1,0-0.1,0-0.2,0l-243.4-68c-0.4-0.1-0.6-0.6-0.5-1c0.1-0.4,0.5-0.6,0.9-0.5l243.4,68
				c0.4,0.1,0.7,0.5,0.6,0.9C523,471.2,522.7,471.5,522.3,471.4L522.3,471.4z"></path><path class="st0" d="M527,455.2c-0.1,0-0.1,0-0.2,0L282.1,392c-0.4-0.1-0.7-0.5-0.6-1c0.1-0.4,0.5-0.7,0.9-0.6l244.7,63.1
				c0.4,0.1,0.7,0.5,0.5,1C527.6,454.9,527.3,455.2,527,455.2L527,455.2z"></path><path class="st0" d="M531,441.4h-0.2l-245.1-61.6c-0.4-0.1-0.6-0.6-0.5-1c0.1-0.4,0.5-0.6,0.9-0.5l245.1,61.6
				c0.4,0.1,0.7,0.5,0.6,0.9C531.7,441.2,531.4,441.4,531,441.4L531,441.4z"></path><path class="st0" d="M533.5,432.7h-0.2l-245.3-60.8c-0.4-0.1-0.7-0.5-0.6-0.9s0.5-0.7,0.9-0.6l245.3,60.8c0.4,0.1,0.7,0.5,0.5,1
				C534.1,432.4,533.8,432.7,533.5,432.7z"></path><path class="st0" d="M535.6,425.1c-0.1,0-0.1,0-0.2,0L290.8,362c-0.4-0.1-0.7-0.5-0.5-1c0.1-0.4,0.5-0.6,0.9-0.5l244.6,63.1
				c0.4,0.1,0.7,0.5,0.6,0.9c0,0,0,0,0,0C536.3,424.9,536,425.1,535.6,425.1z"></path><path class="st0" d="M313.4,516.7h-0.2c-0.4-0.1-0.7-0.5-0.5-1c0,0,0,0,0,0L371.2,311c0.2-0.4,0.6-0.6,1-0.4
				c0.3,0.1,0.5,0.5,0.5,0.9l-58.5,204.7C314.1,516.4,313.8,516.7,313.4,516.7z"></path><path class="st0" d="M301.1,512.8c-0.1,0-0.1,0-0.2,0c-0.4-0.1-0.7-0.5-0.5-0.9c0,0,0,0,0-0.1l60.3-201.2c0.2-0.4,0.6-0.6,1-0.4
				c0.4,0.1,0.6,0.5,0.5,0.9l-60.3,201.2C301.7,512.6,301.4,512.8,301.1,512.8z"></path><path class="st0" d="M287.5,508.9h-0.2c-0.4-0.1-0.7-0.5-0.5-1c0,0,0,0,0,0l44.7-156.3c0.1-0.4,0.5-0.7,0.9-0.6c0,0,0.1,0,0.1,0
				c0.4,0.1,0.7,0.5,0.5,1c0,0,0,0,0,0l-44.8,156.3C288.2,508.7,287.8,508.9,287.5,508.9z"></path><path class="st0" d="M274.2,505.2H274c-0.4-0.1-0.7-0.6-0.5-1c0,0,0,0,0,0l43.3-156.8c0.1-0.4,0.6-0.7,1-0.5c0,0,0,0,0,0
				c0.4,0.1,0.7,0.5,0.6,1c0,0,0,0,0,0l-43.3,156.8C274.8,504.9,274.5,505.2,274.2,505.2z"></path><path class="st0" d="M263,501.9h-0.2c-0.4-0.1-0.7-0.5-0.6-0.9l38.5-158.1c0.1-0.4,0.5-0.7,0.9-0.6c0.4,0.1,0.7,0.5,0.6,0.9
				c0,0,0,0,0,0l-38.5,158.1C263.7,501.7,263.4,501.9,263,501.9z"></path><path class="st0" d="M251,498.4h-0.2c-0.4-0.1-0.7-0.5-0.6-0.9l37-158.5c0.1-0.4,0.5-0.7,0.9-0.6c0.4,0.1,0.7,0.5,0.6,0.9
				l-37,158.6C251.7,498.2,251.4,498.4,251,498.4z"></path><path class="st0" d="M243.3,496.2c-0.1,0-0.1,0-0.2,0c-0.4-0.1-0.7-0.5-0.6-0.9c0,0,0,0,0,0l36.2-158.8c0.1-0.4,0.5-0.7,0.9-0.6
				c0,0,0,0,0,0c0.4,0.1,0.7,0.5,0.6,0.9l-36.2,158.8C244,496,243.7,496.2,243.3,496.2z"></path><path class="st0" d="M233.6,493.5c-0.1,0-0.1,0-0.2,0c-0.4-0.1-0.7-0.5-0.6-0.9c0,0,0,0,0,0l38.5-158.1c0.1-0.4,0.5-0.7,0.9-0.6
				c0,0,0,0,0,0c0.4,0.1,0.7,0.5,0.6,0.9l-38.5,158.1C234.3,493.2,234,493.4,233.6,493.5z"></path><path class="st0" d="M360.5,540.8c-0.1,0-0.2,0-0.2,0c-0.4-0.1-0.6-0.5-0.5-1c0,0,0,0,0,0l79.9-255.7c0.1-0.4,0.6-0.6,1-0.5
				c0.4,0.1,0.6,0.6,0.5,1l-79.9,255.7C361.2,540.5,360.9,540.8,360.5,540.8z"></path><path class="st0" d="M348.3,536.7c-0.1,0-0.1,0-0.2,0c-0.4-0.1-0.7-0.5-0.5-1c0,0,0,0,0,0L423,279.3c0.2-0.4,0.6-0.6,1-0.4
				c0.4,0.1,0.6,0.5,0.5,0.9L349,536.2C348.9,536.5,348.6,536.7,348.3,536.7z"></path><path class="st0" d="M334.7,532.8h-0.2c-0.4-0.1-0.7-0.5-0.5-0.9c0,0,0,0,0-0.1l73.5-257c0.2-0.4,0.6-0.6,1-0.4
				c0.3,0.1,0.5,0.5,0.5,0.9l-73.5,257C335.3,532.6,335,532.8,334.7,532.8z"></path><path class="st0" d="M321.3,529.1h-0.2c-0.4-0.1-0.7-0.5-0.6-1c0,0,0,0,0,0l72.1-257.5c0.1-0.4,0.5-0.7,1-0.5
				c0.4,0.1,0.7,0.5,0.5,1l-72.1,257.5C322,528.9,321.7,529.1,321.3,529.1z"></path><path class="st0" d="M310.2,525.8H310c-0.4-0.1-0.7-0.5-0.6-1l67.3-258.8c0.1-0.4,0.5-0.7,0.9-0.6s0.7,0.5,0.6,0.9L311,525.2
				C310.9,525.6,310.6,525.8,310.2,525.8z"></path><path class="st0" d="M298.2,522.3H298c-0.4-0.1-0.7-0.5-0.6-0.9c0,0,0,0,0,0l65.8-259.2c0.1-0.4,0.5-0.7,0.9-0.6c0,0,0,0,0,0
				c0.4,0.1,0.7,0.5,0.6,0.9L299,521.7C298.9,522.1,298.6,522.3,298.2,522.3z"></path><path class="st0" d="M290.5,520.1c-0.1,0-0.1,0-0.2,0c-0.4-0.1-0.7-0.5-0.6-0.9l65-259.4c0.1-0.4,0.5-0.7,0.9-0.6c0,0,0,0,0,0
				c0.4,0.1,0.7,0.5,0.6,0.9c0,0,0,0,0,0l-65,259.4C291.1,519.9,290.8,520.1,290.5,520.1z"></path><path class="st0" d="M280.8,517.3c-0.1,0-0.1,0-0.2,0c-0.4-0.1-0.7-0.5-0.6-0.9c0,0,0,0,0-0.1l67.3-258.7
				c0.1-0.4,0.5-0.7,0.9-0.6s0.7,0.5,0.6,0.9l-67.3,258.8C281.4,517.1,281.1,517.3,280.8,517.3z"></path><path class="st0" d="M501.5,411.8h-0.2L302.6,348c-0.4-0.1-0.7-0.5-0.6-0.9c0.1-0.4,0.5-0.7,0.9-0.6c0,0,0.1,0,0.1,0l198.6,63.7
				c0.4,0.1,0.6,0.6,0.5,1C502.1,411.5,501.8,411.7,501.5,411.8L501.5,411.8z"></path><path class="st0" d="M506.3,394.7h-0.2l-199.5-59.2c-0.4-0.1-0.6-0.5-0.5-0.9c0,0,0,0,0-0.1c0.1-0.4,0.5-0.7,1-0.5c0,0,0,0,0,0
				l199.5,59.2c0.4,0.1,0.6,0.6,0.5,1C507,394.4,506.7,394.7,506.3,394.7L506.3,394.7z"></path><path class="st0" d="M510.9,378.8c-0.1,0-0.1,0-0.2,0l-200.1-57.3c-0.4-0.1-0.7-0.5-0.5-1c0,0,0,0,0,0c0.1-0.4,0.5-0.7,0.9-0.6
				c0,0,0,0,0.1,0l200,57.3c0.4,0.1,0.6,0.6,0.5,1C511.5,378.6,511.2,378.8,510.9,378.8z"></path><path class="st0" d="M515.2,363.7c-0.1,0-0.1,0-0.2,0l-200.6-55.8c-0.4-0.1-0.6-0.6-0.5-1c0.1-0.4,0.5-0.6,0.9-0.5l200.6,55.8
				c0.4,0.1,0.7,0.5,0.6,0.9C515.9,363.5,515.6,363.7,515.2,363.7L515.2,363.7z"></path><path class="st0" d="M519.8,347.5h-0.2l-201.9-50.9c-0.4-0.1-0.7-0.5-0.6-0.9s0.5-0.7,0.9-0.6L520,345.9c0.4,0.1,0.7,0.5,0.6,0.9
				C520.5,347.2,520.2,347.5,519.8,347.5z"></path><path class="st0" d="M523.8,333.7h-0.2l-202.3-49.4c-0.4-0.1-0.7-0.5-0.6-0.9c0,0,0,0,0,0c0.1-0.4,0.5-0.7,0.9-0.6L524,332.1
				c0.4,0.1,0.7,0.5,0.5,1C524.4,333.4,524.2,333.7,523.8,333.7L523.8,333.7z"></path><path class="st0" d="M526.3,325c-0.1,0-0.1,0-0.2,0l-202.6-48.6c-0.4-0.1-0.7-0.5-0.6-0.9c0,0,0,0,0,0c0.1-0.4,0.5-0.7,0.9-0.6
				c0,0,0,0,0,0l202.6,48.5c0.4,0.1,0.7,0.5,0.6,0.9c0,0,0,0,0,0C527,324.7,526.7,325,526.3,325z"></path><path class="st0" d="M528.5,317.4c-0.1,0-0.1,0-0.2,0l-201.9-50.9c-0.4-0.1-0.6-0.6-0.5-1c0.1-0.4,0.5-0.6,0.9-0.5l201.9,50.9
				c0.4,0.1,0.7,0.5,0.6,0.9c0,0,0,0,0,0C529.2,317.2,528.8,317.4,528.5,317.4z"></path><path class="st0" d="M457.5,573.8c-0.1,0-0.2,0-0.2,0c-0.4-0.1-0.6-0.5-0.5-1c0,0,0,0,0,0l79.9-255.7c0.1-0.4,0.6-0.6,1-0.5
				c0.4,0.1,0.6,0.6,0.5,1l-79.9,255.7C458.1,573.5,457.8,573.8,457.5,573.8z"></path><path class="st0" d="M445.2,569.7c-0.1,0-0.1,0-0.2,0c-0.4-0.1-0.7-0.5-0.5-0.9c0,0,0,0,0-0.1l75.5-256.4
				c0.1-0.4,0.5-0.7,0.9-0.6c0.4,0.1,0.7,0.5,0.6,0.9c0,0,0,0.1,0,0.1l-75.5,256.4C445.8,569.5,445.5,569.7,445.2,569.7z"></path><path class="st0" d="M431.6,565.8h-0.2c-0.4-0.1-0.7-0.5-0.5-1c0,0,0,0,0,0l73.5-257c0.1-0.4,0.6-0.6,1-0.5
				c0.4,0.1,0.6,0.5,0.5,0.9l-73.5,257C432.2,565.6,431.9,565.8,431.6,565.8z"></path><path class="st0" d="M418.2,562.1H418c-0.4-0.1-0.7-0.5-0.6-1c0,0,0,0,0,0l72.1-257.5c0.1-0.4,0.6-0.6,1-0.5
				c0.4,0.1,0.6,0.5,0.5,0.9L419,561.6C418.9,561.9,418.6,562.1,418.2,562.1z"></path><path class="st0" d="M407.1,558.8h-0.2c-0.4-0.1-0.7-0.5-0.6-1l67.3-258.8c0.1-0.4,0.5-0.7,1-0.6c0.4,0.1,0.7,0.5,0.6,1
				l-67.3,258.7C407.8,558.6,407.5,558.8,407.1,558.8z"></path><path class="st0" d="M395.1,555.3h-0.2c-0.4-0.1-0.7-0.5-0.6-1l65.8-259.2c0.1-0.4,0.5-0.7,0.9-0.6c0,0,0,0,0,0
				c0.4,0.1,0.7,0.5,0.6,0.9c0,0,0,0,0,0l-65.8,259.2C395.8,555.1,395.5,555.3,395.1,555.3z"></path><path class="st0" d="M387.4,553.1c-0.1,0-0.1,0-0.2,0c-0.4-0.1-0.7-0.5-0.6-0.9c0,0,0,0,0,0l65-259.4c0.1-0.4,0.5-0.7,0.9-0.6
				c0.4,0.1,0.7,0.5,0.6,0.9c0,0,0,0.1,0,0.1l-65,259.4C388.1,552.9,387.8,553.1,387.4,553.1z"></path><path class="st0" d="M377.7,550.3c-0.1,0-0.1,0-0.2,0c-0.4-0.1-0.7-0.5-0.6-0.9c0,0,0,0,0-0.1l67.3-258.7
				c0.1-0.4,0.5-0.7,0.9-0.6s0.7,0.5,0.6,0.9c0,0,0,0,0,0l-67.3,258.8C378.4,550.1,378,550.3,377.7,550.3z"></path></g></g></g><g id="pentool"><path class="st0" d="M248.3,158.5c0,0-10.6-12.1-23-9.1l-4.1-44.2l12.5,18c0,0-4.2,8.6,0.7,11.5s7.1,3.8,10.6-2.2
		c3.5-5.9-2.4-9.4-7.7-10.3l-13.7-22.7l39.3,21.4c0,0-7.8,6.5,2,26L248.3,158.5z"></path><path class="st1" d="M201.1,116.8c3.3-2.9,6.7-5.6,10.2-8.2s7-5.2,10.5-7.8s7.1-5,10.8-7.4s7.3-4.8,11.1-6.9
		c-3.3,2.9-6.7,5.6-10.2,8.2s-7,5.2-10.5,7.8s-7.1,5-10.8,7.4S204.9,114.6,201.1,116.8z"></path><path class="st1" d="M240.3,87c0,0,2,3.1,2.8,3.3s6-3,5.6-4.1s-2.9-3.5-3.9-4.3S239.4,85.1,240.3,87z"></path><path class="st1" d="M197.3,117.2c0,0,2,3.1,2.8,3.3s6-3,5.6-4.1s-2.9-3.5-3.9-4.3S196.4,115.3,197.3,117.2z"></path><path class="st1" d="M299.5,70.1c-4.8-3.4-9.7-6.5-14.9-9.4c-5.1-2.9-10.4-5.4-15.9-7.5c-5.4-2.2-11.1-3.5-16.9-3.9
		c-2.9-0.2-5.7,0.1-8.5,0.9c-2.8,0.8-5.3,2.2-7.4,4.1c-2.1,2-3.7,4.3-4.9,6.9c-1.1,2.6-1.8,5.4-2.1,8.3c-0.5,5.7,0.3,11.5,0.9,17.4
		c0.4,3,0.4,6-0.1,9c-0.3,1.6-1.1,3.1-2.3,4.3c-1.3,1.1-2.8,1.8-4.4,2c-3,0.3-6.1,0.1-9.1-0.6c-2.9-0.5-5.8-1-8.7-1.4
		c-11.5-1.8-23.2-2.5-34.9-2.1c-11.6,0.5-23.3,2.5-33.8,7.3c-5.3,2.4-10.1,5.7-14.3,9.7c-4.2,4-7.6,8.8-10,14.1
		c-2.5,5.3-4.2,10.9-5.1,16.7c-0.9,5.8-1.2,11.7-1.1,17.5c-0.4-5.9-0.2-11.8,0.5-17.6c0.7-5.9,2.3-11.6,4.7-17
		c2.4-5.4,5.8-10.4,10-14.6c4.3-4.2,9.2-7.6,14.6-10.2c5.4-2.5,11-4.4,16.9-5.6c5.8-1.2,11.7-1.9,17.6-2.2
		c11.8-0.5,23.6,0.2,35.3,2.1c2.9,0.4,5.8,0.9,8.7,1.4c2.8,0.7,5.6,0.9,8.4,0.6c1.3-0.1,2.5-0.7,3.5-1.5c0.9-0.9,1.6-2.1,1.8-3.3
		c0.4-2.8,0.5-5.7,0.1-8.5c-0.5-5.8-1.4-11.7-0.7-17.7c0.3-3,1.1-5.9,2.3-8.7c1.3-2.7,3.1-5.2,5.3-7.3c2.3-2,5-3.5,7.9-4.3
		c2.9-0.8,5.9-1,8.9-0.8c5.9,0.5,11.7,2,17.2,4.3c5.4,2.2,10.7,4.9,15.8,7.9C290,63.3,294.9,66.6,299.5,70.1z"></path></g></svg>