<svg transform="scale(1)" version="1.1" id="Layer_1" xmlns="http://www.w3.org/2000/svg" xmlns:xlink="http://www.w3.org/1999/xlink" x="0px" y="0px" viewBox="0 0 500 500" xml:space="preserve" class="show_show__wrapper__graphic__5Waiy "><title>React</title><style type="text/css">
	.st0{fill:#F2EBEB;}
	.st1{fill:#e63946;}
	.st2{fill:#000001;}
	.st3{opacity:0.6;fill:#e63946;enable-background:new    ;}
	.st4{opacity:0.59;}
	.st5{fill:#EA8383;}
	.st6{fill:none;}
	.st7{fill:#A04040;}
	.st8{opacity:0.42;fill:#e63946;enable-background:new    ;}
</style><g id="screen"><g id="screen-1"><path class="st0" d="M45.4,351.3H459V47H41C41,47,41.6,335.4,45.4,351.3z"></path><path class="st1" d="M65.9,59.1c0,0-5.5,0.3-2.7,6c2.7,5.7,7.1,3.8,8.2,0S67.9,58.5,65.9,59.1z"></path><path class="st1" d="M88.7,59.1c0,0-5.5,0.3-2.7,6s7.1,3.8,8.2,0S90.7,58.5,88.7,59.1z"></path><path class="st1" d="M108.5,59.1c0,0-5.5,0.3-2.7,6s7.1,3.8,8.2,0S110.5,58.5,108.5,59.1z"></path><path class="st1" d="M363.9,351.3c-0.8-2.4-1.9-4.7-3.2-6.8c-1.3-2.1-3.1-3.9-5.2-5.1c-2.2-1.1-4.7-1.3-7-0.5
			c-0.6,0.2-1.1,0.4-1.7,0.7c-0.5,0.3-1.1,0.6-1.6,0.9c-1.1,0.6-2.2,1.2-3.4,1.8c-2.3,1.2-4.7,2.1-7.2,2.7c-1.3,0.4-2.7,0.4-4,0.2
			c-0.8-0.2-1.5-0.7-1.9-1.4c-0.3-0.7-0.4-1.5-0.3-2.2c0.2-1.3,0.6-2.6,1.3-3.8c0.6-1.1,1.2-2.3,1.9-3.3c1.4-2.2,3-4.1,4.4-6.2
			c2.8-4.1,5-8.6,6.5-13.3c0.8-2.3,1.2-4.8,1.4-7.2c0.2-2.4-0.1-4.8-1-7c-0.9-2.1-2.8-3.7-5-4.2c-2.3-0.5-4.8-0.4-7.1,0.1
			c-4.8,1.1-9.6,2.8-14.1,4.9s-9,4.5-13.3,7s-8.7,5.1-13.3,7.3c-1.2,0.6-2.4,1-3.6,1.4c-0.6,0.2-1.3,0.3-2,0.4c-0.3,0-0.7,0-1,0
			s-0.7,0-1-0.1c-1.3-0.2-2.6-0.6-3.7-1.4c-1.1-0.7-2.1-1.6-2.9-2.7c-1.5-2.1-2.7-4.4-3.5-6.9c-0.8-2.4-1.4-4.9-1.9-7.4
			c-0.9-5-1.5-10-1.7-15.1c-0.3-5-0.3-10.1-0.2-15.1s0.3-10.1,0.6-15.1s0.7-10.1,1.3-15.1l0.5,0.6l-32.6,1.5l0.7-0.8
			c0.1,9.2-0.2,18.4-0.9,27.6c-0.7,9.2-2,18.3-3.9,27.4c-1,4.5-2.3,9-3.9,13.3c-0.8,2.2-1.8,4.3-3,6.4s-2.6,3.9-3.9,5.8
			c-2.7,3.8-5.7,7.3-9,10.6c-1.7,1.7-3.6,3.1-5.7,4.3c-0.6,0.3-1.2,0.5-1.8,0.7c-0.7,0.2-1.4,0.3-2.1,0.2c-0.8-0.1-1.6-0.5-2.1-1.2
			c-0.5-0.6-0.8-1.3-0.9-2c-0.2-1.2-0.2-2.5,0-3.7l0.4-3.4c0.3-2.2,0.4-4.4,0.3-6.7c0-1-0.3-2.1-0.7-3c-0.4-0.8-1.1-1.4-2-1.5
			c-1-0.1-2,0-2.9,0.4c-1,0.4-2,0.8-3,1.3c-3.9,2.3-7.7,4.8-11.2,7.6c-3.7,2.8-7.3,5.6-10.9,8.4s-7.2,5.7-10.9,8.4
			c-0.9,0.7-1.9,1.3-2.9,1.9c-1,0.7-2.2,1.1-3.4,1.4c-0.4,0.1-0.7,0-1.1-0.1c-0.4-0.1-0.7-0.4-1-0.7c-0.1-0.1-0.2-0.3-0.3-0.5
			l-0.2-0.4l-0.3-0.8c-0.4-1-1-2-1.7-2.8s-1.6-1.3-2.7-1.4c-1.1-0.1-2.2,0.1-3.2,0.5c-2.1,0.9-4,2.1-5.8,3.5
			c-3.5,2.9-6.9,6.1-9.9,9.5l-0.1-0.1c3-3.5,6.2-6.8,9.7-9.8c1.8-1.5,3.7-2.8,5.9-3.8c1.1-0.5,2.3-0.7,3.5-0.7
			c1.3,0.1,2.4,0.7,3.3,1.6c0.8,0.9,1.4,1.9,1.9,3l0.4,0.8l0.2,0.4l0.1,0.3c0.3,0.3,0.7,0.4,1.1,0.3c1-0.3,2-0.7,2.9-1.3
			c0.9-0.6,1.9-1.2,2.8-1.9c3.7-2.7,7.2-5.7,10.7-8.5s7.1-5.8,10.8-8.6c3.6-2.9,7.4-5.6,11.4-7.9c1.1-0.6,2.1-1.1,3.3-1.5
			s2.5-0.6,3.8-0.5c1.5,0.2,2.7,1.1,3.4,2.4c0.5,1.2,0.9,2.4,0.9,3.7c0.1,2.4,0,4.7-0.3,7.1l-0.4,3.4c-0.2,1-0.2,2.1,0,3.1
			c0.1,0.4,0.2,0.8,0.5,1.1c0.2,0.3,0.5,0.4,0.8,0.4c0.9,0,1.9-0.2,2.7-0.7c1.9-1.1,3.7-2.4,5.2-4c3.2-3.2,6.1-6.6,8.7-10.3
			c1.3-1.8,2.6-3.7,3.8-5.6c1.1-2,2.1-4,2.9-6.1c1.6-4.2,3-8.6,3.9-13c1.9-8.9,3.3-18,4-27.1c0.8-9.1,1.2-18.3,1.3-27.4v-0.7h0.7
			l32.6-1.1h0.6l-0.1,0.6c-1.2,10-2,20-2.2,30.1s0,20.2,1.9,30.1c0.5,2.5,1.1,4.9,1.9,7.3s1.9,4.6,3.4,6.5c1.4,2,3.6,3.2,6,3.6
			c2.4,0.3,4.7-0.8,6.9-1.8c4.5-2.2,8.7-5,13.1-7.5c4.3-2.6,8.8-5.1,13.4-7.3c4.6-2.2,9.4-3.9,14.4-5.1c2.6-0.7,5.3-0.7,7.9-0.1
			c1.4,0.3,2.6,1,3.7,1.9s1.9,2,2.5,3.3c1,2.5,1.4,5.2,1.1,7.8c-0.2,2.6-0.7,5.1-1.5,7.6c-1.6,4.9-3.9,9.5-6.8,13.7
			c-1.5,2.1-3.1,4-4.4,6.1c-0.7,1-1.3,2.1-1.9,3.2c-0.6,1-1,2.2-1.2,3.3c-0.2,1.1,0.2,2,1.2,2.3c1.1,0.2,2.3,0.2,3.5-0.1
			c2.4-0.6,4.8-1.4,7-2.5c1.1-0.5,2.2-1.1,3.4-1.7c1.1-0.6,2.3-1.2,3.5-1.5c1.3-0.4,2.6-0.5,3.9-0.4s2.6,0.5,3.7,1.2
			c2.2,1.4,4,3.2,5.3,5.5c1.3,2.2,2.3,4.5,3,7L363.9,351.3z"></path><path class="st1" d="M356.5,320.5c-1.1,0.3-2,0.9-2.6,1.8c-0.5,0.7-0.9,1.6-1,2.4c-0.2,1-0.1,2,0.5,2.8c0.7,0.8,1.8,1,2.7,0.5
			c0.9-0.4,1.7-1,2.3-1.8c0.6-0.7,1.1-1.5,1.3-2.4c0.1-0.2,0.1-0.4,0.1-0.6s0-0.3,0-0.5c-0.1-0.4-0.2-0.7-0.5-1
			C358.7,321,357.6,320.5,356.5,320.5z M356.5,320.2c1.2,0,2.4,0.1,3.5,0.4c0.7,0.3,1.3,0.8,1.6,1.5c0.2,0.4,0.3,0.8,0.3,1.2
			c0,0.4,0,0.7-0.1,1.1c-0.4,1.3-1.1,2.4-2.1,3.2c-0.9,0.9-2.1,1.4-3.4,1.5s-2.5-0.3-3.4-1.1c-0.9-0.9-1.5-2.1-1.6-3.3
			c-0.1-0.7,0.1-1.4,0.4-2s0.8-1.1,1.4-1.4C354.2,320.8,355.3,320.5,356.5,320.2L356.5,320.2z"></path><path class="st1" d="M221.9,240c0,0-5.7-45.1,2.1-84.9s19.8-72.4,28.3-71.4c8.5,1,27.1,43.6,29.6,84.9s0,71.4,0,71.4
			S242.7,253.4,221.9,240z"></path><path class="st0" d="M246.9,124c-5.5,2.5-9.4,7.7-10,13.7c-1.4,10.6,0.7,20.2,16.9,18.8s15.5-19.3,12.4-26.2
			S250.6,121.8,246.9,124z"></path><path class="st2" d="M247.7,126.3c-4.8,2.1-8.1,6.6-8.6,11.8c-1.2,9.1,0.6,17.4,14.6,16.2c14-1.2,13.3-16.6,10.6-22.6
			S250.9,124.4,247.7,126.3z"></path><path class="st2" d="M196.4,260.1l24.8-26.6l-1.3-36.3c0,0-14.4,11.1-15.2,14S196.4,260.1,196.4,260.1z"></path><path class="st2" d="M283.1,194.7c0,0,16.5,12.9,16.8,15.4s8.8,46.3,7,46.3s-24.5-23.3-24.5-23.3L283.1,194.7z"></path><path class="st2" d="M251.5,197.2c0,0-1.3,13.6-1.5,18.5s1.4,58.8,2.3,56.4s2.2-59.9,2.2-59.9L251.5,197.2z"></path><path class="st0" d="M220.3,184.3c10.4,0.9,20.8,1.4,31.2,1.2l3.9-0.1l3.9-0.2c1.3,0,2.6-0.2,3.9-0.3s2.6-0.2,3.9-0.3
			c5.2-0.5,10.3-1.3,15.5-2.2c-4.9,1.8-10,3.1-15.2,3.9c-5.2,0.8-10.4,1.3-15.7,1.3c-5.3,0.1-10.5-0.2-15.7-0.7
			C230.6,186.5,225.4,185.6,220.3,184.3z"></path><path class="st0" d="M222.9,162.1c4.5,2.1,9.5,2.8,14.4,3.2c1.2,0.1,2.4,0.2,3.7,0.2s2.4,0.1,3.7,0.1h3.7l3.7-0.2
			c2.5-0.1,4.9-0.4,7.4-0.5l7.4-0.8l7.4-1c2.5-0.4,4.9-0.8,7.4-1c-2.4,0.8-4.8,1.4-7.2,2.1s-4.9,1.1-7.3,1.6s-5,0.8-7.4,1.2
			l-3.8,0.4c-1.2,0.1-2.5,0.2-3.8,0.3c-5,0.3-10.1,0.1-15.1-0.6c-2.5-0.3-5-0.9-7.4-1.6C227.2,164.6,224.9,163.5,222.9,162.1z"></path><path class="st2" d="M225.6,166c-0.4,0.2-0.6,0.5-0.6,0.9c-0.1,0.7,0,1.3,1.1,1.2s1-1.2,0.8-1.7C226.6,166,226.1,165.8,225.6,166z
			"></path><path class="st2" d="M238.5,168.2c-0.4,0.2-0.6,0.5-0.6,0.9c-0.1,0.7,0,1.3,1.1,1.2s1-1.2,0.8-1.7
			C239.4,168.2,238.9,168,238.5,168.2z"></path><path class="st2" d="M252,168.5c-0.4,0.2-0.6,0.5-0.6,0.9c-0.1,0.7,0.1,1.3,1.1,1.2s1-1.2,0.8-1.7
			C253,168.5,252.5,168.4,252,168.5z"></path><path class="st2" d="M264,167.4c-0.4,0.2-0.6,0.5-0.6,0.9c-0.1,0.7,0,1.3,1.1,1.2s1-1.2,0.8-1.7C265,167.4,264.5,167.3,264,167.4z
			"></path><path class="st2" d="M277.3,164.9c-0.4,0.2-0.6,0.5-0.6,0.9c-0.1,0.7,0,1.3,1.1,1.2s1-1.2,0.8-1.7
			C278.3,164.9,277.7,164.8,277.3,164.9z"></path><path class="st2" d="M226.1,187.1c-0.4,0.2-0.6,0.5-0.6,0.9c-0.1,0.7,0,1.3,1.1,1.2s1-1.2,0.8-1.7
			C227.1,187.2,226.6,187,226.1,187.1z"></path><path class="st2" d="M239,189.3c-0.4,0.2-0.6,0.5-0.6,0.9c-0.1,0.7,0,1.3,1.1,1.2s1-1.2,0.8-1.7C240,189.3,239.5,189.2,239,189.3z
			"></path><path class="st2" d="M252.5,189.7c-0.4,0.2-0.6,0.5-0.6,0.9c-0.1,0.7,0.1,1.3,1.1,1.2s1-1.2,0.8-1.7
			C253.4,189.7,252.9,189.5,252.5,189.7z"></path><path class="st2" d="M264.5,188.6c-0.4,0.2-0.6,0.5-0.6,0.9c-0.1,0.7,0,1.3,1.1,1.2s1-1.2,0.8-1.7
			C265.5,188.6,265,188.4,264.5,188.6z"></path><path class="st2" d="M277.8,186.1c-0.4,0.2-0.6,0.5-0.6,0.9c-0.1,0.7,0,1.3,1.1,1.2s1-1.2,0.8-1.7
			C278.7,186.1,278.2,185.9,277.8,186.1z"></path><path class="st0" d="M247.4,142.5c0.4-1,0.9-2,1.5-2.9s1.3-1.7,2-2.5s1.5-1.5,2.3-2.2s1.8-1.3,2.8-1.8c-0.4,1-0.9,2-1.5,2.9
			s-1.3,1.7-2,2.5s-1.5,1.5-2.3,2.2C249.3,141.4,248.3,142,247.4,142.5z"></path><path class="st0" d="M249.6,145.9c0.4-1,0.9-2,1.5-2.9s1.3-1.7,2-2.5s1.5-1.5,2.3-2.1c0.8-0.7,1.8-1.3,2.8-1.7
			c-0.4,1-0.9,2-1.5,2.9c-1.2,1.7-2.6,3.3-4.3,4.6C251.6,144.8,250.6,145.4,249.6,145.9z"></path><path class="st0" d="M237.8,104.7c4.5,2.4,9.5,3.6,14.6,3.4c1.2,0,2.5-0.1,3.7-0.3c0.6-0.1,1.2-0.2,1.9-0.3s1.2-0.3,1.8-0.4
			c0.3-0.1,0.6-0.1,0.9-0.2l0.9-0.3l1.8-0.6c1.2-0.4,2.4-0.9,3.7-1.3c-1,0.8-2.1,1.6-3.2,2.3c-1.2,0.7-2.4,1.2-3.6,1.7
			c-2.5,1-5.2,1.5-7.9,1.6s-5.4-0.4-8-1.3C241.9,108.1,239.6,106.6,237.8,104.7z"></path></g><path class="st2" d="M341.6,199.2l33.6-40l39.2,39.2C414.4,198.4,375.9,232.6,341.6,199.2z"></path><path class="st3" d="M375.2,141.7l31.7-36.5c0,0,37.5,32.8,7.6,75.6L375.2,141.7z"></path><path class="st1" d="M341,181l65.9-75.8c0,0-17-15.8-51.5-6.6S316.8,161.9,341,181z"></path><path class="st1" d="M355.3,244.7c0,0,15.6-0.9,16,0s0,8.1,0,8.1h-16V244.7z"></path><path class="st1" d="M379.3,251.1c2-1.5,4-2.9,6.1-4.1c0.5-0.3,1.1-0.6,1.7-0.8c0.6-0.3,1.3-0.5,2-0.6c0.1,0,0.2,0,0.4,0
		c0.2,0,0.3,0,0.4,0.1c0.2,0.1,0.3,0.2,0.5,0.4c0.1,0.2,0.2,0.3,0.2,0.5c0,0.1,0,0.3,0,0.4v0.2c0,0.1,0,0.3,0,0.4c0,0.5,0,1,0.2,1.4
		c0.2,0.3,0.5,0.4,0.8,0.4c0.5,0,1-0.1,1.5-0.2c1.1-0.4,2.2-0.8,3.2-1.4c1.1-0.6,2.2-1.2,3.3-1.7c0.6-0.3,1.1-0.6,1.8-0.8
		c0.7-0.3,1.6-0.5,2.4-0.4c0.3,0.1,0.6,0.2,0.8,0.4c0.2,0.2,0.4,0.4,0.6,0.6c0.2,0.4,0.4,0.8,0.5,1.2c0.1,0.3,0.1,0.7,0.2,1v0.5
		l0.1,0.3c0,0.3,0.2,0.6,0.5,0.8c0.4,0.2,0.8,0.2,1.2,0.2c1.1-0.1,2.2-0.4,3.2-0.8c1.1-0.4,2.2-1,3.2-1.5c1.1-0.6,2.2-1.2,3.3-1.7
		c0.4-0.2,0.7-0.2,1.1-0.2c0.5,0,0.9,0.2,1.3,0.5c0.5,0.5,0.8,1.2,1,1.9c0.1,0.3,0.2,0.6,0.3,0.8c0,0.1,0.1,0.2,0.2,0.3
		s0.1,0.2,0.2,0.3c0.4,0.3,0.9,0.5,1.4,0.5c1.2-0.1,2.3-0.5,3.4-1.1c-0.9,0.8-2.1,1.4-3.3,1.7c-0.7,0.1-1.4,0-2-0.4
		c-0.2-0.1-0.3-0.2-0.4-0.4c-0.1-0.1-0.2-0.3-0.3-0.4c-0.2-0.3-0.3-0.6-0.4-0.9c-0.2-0.5-0.4-0.9-0.8-1.3c-0.1-0.1-0.3-0.1-0.4-0.1
		c-0.2,0-0.4,0.1-0.6,0.2c-1,0.5-2,1.2-3,1.9c-1.1,0.7-2.2,1.3-3.3,1.8c-1.2,0.6-2.5,0.9-3.8,1.1c-0.8,0.1-1.6-0.1-2.4-0.4
		c-0.8-0.5-1.4-1.2-1.5-2.1L404,249v-0.4c0-0.3-0.1-0.6-0.1-0.8s-0.1-0.4-0.2-0.5s0,0,0,0c-0.4,0-0.8,0.1-1.2,0.3
		c-0.5,0.2-1.1,0.4-1.6,0.7c-1.1,0.5-2.1,1.1-3.3,1.6c-1.2,0.6-2.4,1.1-3.6,1.4c-0.7,0.2-1.4,0.3-2.2,0.2c-0.4-0.1-0.9-0.2-1.2-0.4
		c-0.4-0.3-0.7-0.6-0.9-1.1c-0.3-0.7-0.4-1.5-0.3-2.2c0-0.2,0-0.3,0.1-0.5v-0.2l0,0v0.1l0.1,0.1l0,0h-0.1c-0.5,0-1.1,0.1-1.5,0.3
		c-0.6,0.2-1.1,0.4-1.7,0.6C383.7,248.8,381.5,250,379.3,251.1z"></path><g class="st4"><path class="st1" d="M355.3,259.5c0,0,15.6-0.9,16,0s0,8.1,0,8.1h-16V259.5z"></path></g><g class="st4"><path class="st1" d="M379.3,265.9c2-1.5,4-2.9,6.1-4.1c0.5-0.3,1.1-0.6,1.7-0.9s1.3-0.5,2-0.6c0.1,0,0.2,0,0.4,0
			c0.1,0,0.3,0.1,0.4,0.1c0.2,0.1,0.3,0.2,0.5,0.4c0.1,0.2,0.2,0.3,0.2,0.5c0,0.1,0,0.3,0,0.4v0.2c0,0.1,0,0.3,0,0.4
			c0,0.5,0,0.9,0.2,1.4c0.2,0.3,0.5,0.5,0.8,0.4c0.5,0,0.9-0.1,1.4-0.2c1.1-0.4,2.2-0.8,3.2-1.4c1.1-0.6,2.2-1.2,3.3-1.7
			c0.6-0.3,1.1-0.5,1.8-0.8c0.7-0.3,1.6-0.5,2.4-0.4c0.3,0.1,0.6,0.2,0.8,0.4c0.2,0.2,0.4,0.4,0.6,0.6c0.2,0.4,0.4,0.8,0.5,1.2
			c0.1,0.4,0.1,0.7,0.2,1v0.5l0.1,0.3c0,0.3,0.2,0.6,0.5,0.8c0.4,0.2,0.8,0.2,1.2,0.2c1.1-0.1,2.2-0.4,3.2-0.8
			c1.1-0.5,2.2-1,3.2-1.5c1.1-0.6,2.1-1.2,3.3-1.7c0.4-0.2,0.7-0.2,1.1-0.2c0.5,0,0.9,0.2,1.3,0.5c0.5,0.5,0.8,1.2,1,1.9
			c0.1,0.3,0.2,0.6,0.3,0.8c0,0.1,0.1,0.2,0.2,0.3c0.1,0.1,0.1,0.2,0.2,0.3c0.4,0.3,0.9,0.5,1.4,0.5c1.2-0.1,2.4-0.5,3.4-1.1
			c-0.9,0.8-2.1,1.4-3.3,1.7c-0.7,0.1-1.4,0-2-0.4c-0.2-0.1-0.3-0.2-0.4-0.4c-0.1-0.1-0.2-0.3-0.3-0.5c-0.2-0.3-0.3-0.6-0.4-0.9
			c-0.2-0.5-0.4-0.9-0.8-1.3c-0.1-0.1-0.3-0.1-0.4-0.1c-0.2,0-0.4,0.1-0.6,0.2c-1,0.5-2,1.2-3,1.9c-1.1,0.7-2.2,1.3-3.3,1.8
			c-1.2,0.6-2.5,1-3.8,1.1c-0.8,0.1-1.6-0.1-2.4-0.4c-0.8-0.5-1.3-1.2-1.5-2.1l-0.1-0.6v-0.4c0-0.3-0.1-0.5-0.1-0.8
			c0-0.2-0.1-0.4-0.2-0.5s0,0,0,0c-0.4,0-0.8,0.1-1.2,0.3c-0.5,0.2-1.1,0.4-1.6,0.7c-1.1,0.5-2.1,1.1-3.3,1.6
			c-1.2,0.6-2.4,1.1-3.6,1.4c-0.7,0.2-1.4,0.3-2.2,0.2c-0.4,0-0.9-0.2-1.2-0.5c-0.4-0.3-0.7-0.6-0.9-1.1c-0.3-0.7-0.4-1.5-0.3-2.2
			c0-0.2,0-0.3,0.1-0.5v-0.2l0,0c0,0,0,0,0,0.1s0.1,0.1,0.1,0.1l0,0h-0.1c-0.5,0-1.1,0.1-1.5,0.3c-0.6,0.2-1.1,0.4-1.7,0.6
			C383.7,263.6,381.5,264.8,379.3,265.9z"></path></g><path class="st2" d="M355.9,272.8c0,0,15.6-0.9,16,0s0,8.1,0,8.1h-16V272.8z"></path><path class="st2" d="M379.8,279.2c2-1.5,4-2.9,6.1-4.1c0.5-0.3,1.1-0.6,1.7-0.8c0.6-0.3,1.3-0.5,2-0.6c0.1,0,0.2,0,0.4,0
		c0.2,0,0.3,0.1,0.4,0.1c0.2,0.1,0.3,0.2,0.5,0.4c0.1,0.2,0.2,0.3,0.2,0.5c0,0.1,0,0.3,0,0.4v0.2c0,0.1,0,0.3,0,0.4
		c0,0.5,0,1,0.2,1.4c0.2,0.3,0.5,0.5,0.8,0.4c0.5,0,1-0.1,1.5-0.2c1.1-0.3,2.1-0.8,3.1-1.4c1.1-0.6,2.2-1.2,3.3-1.7
		c0.6-0.3,1.1-0.5,1.8-0.8c0.7-0.3,1.6-0.5,2.4-0.4c0.3,0.1,0.6,0.2,0.8,0.4c0.2,0.2,0.4,0.4,0.6,0.6c0.2,0.4,0.4,0.8,0.5,1.2
		c0.1,0.4,0.1,0.7,0.2,1v0.5l0.1,0.3c0,0.3,0.2,0.6,0.5,0.8c0.4,0.2,0.8,0.2,1.2,0.2c1.1-0.1,2.2-0.4,3.2-0.8c1.1-0.4,2.2-1,3.2-1.5
		c1.1-0.6,2.2-1.2,3.4-1.7c0.4-0.2,0.7-0.2,1.1-0.2c0.5,0,0.9,0.2,1.3,0.5c0.5,0.5,0.8,1.2,1,1.9c0.1,0.3,0.2,0.6,0.3,0.8
		c0,0.1,0.1,0.2,0.2,0.3c0,0.1,0.1,0.2,0.2,0.3c0.4,0.4,0.9,0.5,1.4,0.5c1.2-0.1,2.4-0.5,3.4-1.1c-0.9,0.8-2.1,1.4-3.3,1.7
		c-0.7,0.1-1.4,0-2-0.4c-0.2-0.1-0.3-0.2-0.4-0.4c-0.1-0.1-0.2-0.3-0.3-0.4c-0.2-0.3-0.3-0.6-0.4-0.9c-0.2-0.5-0.4-0.9-0.8-1.3
		c-0.1-0.1-0.3-0.1-0.4-0.1c-0.2,0-0.4,0.1-0.6,0.2c-1,0.5-2,1.2-3,1.9c-1.1,0.7-2.2,1.3-3.3,1.8c-1.2,0.6-2.5,1-3.8,1.1
		c-0.8,0.1-1.6-0.1-2.4-0.4c-0.8-0.5-1.4-1.2-1.5-2.1l-0.1-0.6v-0.4c0-0.3-0.1-0.5-0.1-0.8c0-0.2-0.1-0.4-0.2-0.5s0,0,0,0
		c-0.4,0-0.8,0.1-1.2,0.3c-0.5,0.2-1,0.4-1.6,0.7c-1.1,0.5-2.1,1.1-3.3,1.6c-1.2,0.6-2.4,1.1-3.6,1.4c-0.7,0.2-1.4,0.3-2.2,0.2
		c-0.4-0.1-0.9-0.2-1.2-0.5c-0.4-0.3-0.7-0.6-0.9-1.1c-0.3-0.9-0.3-1.8-0.2-2.7V275l0,0v0.1l0.1,0.1l0,0H390c-0.5,0-1.1,0.1-1.5,0.3
		c-0.5,0.2-1.1,0.4-1.7,0.6C384.2,277,382,278.1,379.8,279.2z"></path><path class="st0" d="M352.2,135.8c0,0-16.5-10.6-9.4-15.9s11.4,2.3,11.4,2.3s2.3-8.4,9.9-4.2S352.2,135.8,352.2,135.8z"></path><path class="st0" d="M376.7,193.2c0,0-13.4,1.7-8.3-10.2c4-9.4,17-0.6,12.7,7.6l0.1,5.9L376.7,193.2z"></path><path class="st0" d="M390.2,135.8c0,0,9.8-8,17.5,0c0,0,1.4-2.4,2.4-1.8s1.6,13.5-0.8,13s-7.2-3.2-7.4-4.8s3.1-3.5,3.1-3.5
		s-3-5-9.7-3S390.2,135.8,390.2,135.8z"></path></g><g id="character"><path class="st2" d="M163.3,206.7c0,0,5.8-14.3,5.6-13.7s0,15.1,0,15.1h-4.3L163.3,206.7z"></path><path class="st2" d="M87.3,452.4c-0.9,0.6-9.6,0.9-12,0c-1.8-0.7-12.1-11.8-12.4-13.1s1-6.6,1-6.6l12.2,2.5c0,0,0.2,6.6,1.5,8.5
		s5.1,6.3,5.1,6.3S90.3,450.4,87.3,452.4z"></path><path class="st5" d="M66.5,433.1c0,0,6.9,10.5,9,12.7s6.2,2.8,6.2,2.8s-3.4-4-3.9-5.8c-0.5-1.6-1.6-7.6-1.6-7.6L66.5,433.1z"></path><path class="st6" d="M112.3,327.9l1,2.2l-0.9-3.8C112.4,326.4,112.4,326.9,112.3,327.9z"></path><path class="st2" d="M95.8,278.6L62.9,432.4c0,0,35.4,7.8,37.8,6.5c2.2-1.2,10.4-97.7,11.6-111l-9-54.6
		C103.1,279,94.6,272.4,95.8,278.6z"></path><path class="st1" d="M113.3,330.1L113.3,330.1l14.9,111.2l38.4-2.4c0,0-27.1-102.9-29.7-134.8c-3.1-37.6-14.8-61.4-14.8-61.4
		s-25.4,6.8-27.2,8.1c-3.1,9.3-4.9,19-5.2,28.8L113.3,330.1z"></path><path class="st2" d="M103.1,171.9c4,0,18-0.2,18-0.2s-3.7-13-9.6-13.3S103.1,171.9,103.1,171.9z"></path><path class="st5" d="M106.6,199.3c0.7,0.5,1.7,0.4,2.2-0.2c0.3-0.4,0.4-0.8,0.3-1.3c-1.2-6.3-5.3-24.7-1.5-25.6
		c7.1-1.6,10-11.1,10-11.1s5.8-2.6,5.8-4s-5.1-3.6-8.6-6.6s-5.9-7.1-9.7-5.9s1.2,5.8-1,10.5c-1.3,2.8-4.8,3-4.8,3s-1.2-4.4-5.4-0.8
		s3.5,8,3.2,9.2c-0.8,2.6-0.8,19.5-1.3,22.7C95.6,189.9,103.1,196.6,106.6,199.3z"></path><path class="st0" d="M106,155.3c0,0,6.2-2.3,8.3,2.2C114.3,157.5,107.8,159.8,106,155.3z"></path><path class="st2" d="M105.7,155.3c0.7-0.4,1.5-0.7,2.3-0.9s1.7-0.2,2.6-0.1c0.9,0.1,1.7,0.4,2.4,0.9c0.7,0.5,1.2,1.3,1.4,2.2
		c-1-1.2-2.5-1.9-4-2C108.9,155.2,107.3,155.2,105.7,155.3z"></path><path class="st2" d="M111.7,155.1c0,0-1.7,0.5-0.9,3c0,0,4-0.1,3.5-0.9C114.3,157.2,113.1,155,111.7,155.1z"></path><path class="st2" d="M105.9,157.8c-0.2-0.1-0.2-0.3-0.2-0.5c0-0.1,0.1-0.3,0.2-0.4c0.2-0.1,0.5-0.2,0.9,0.2c0,0.5-0.1,0.6-0.2,0.7
		c-0.1,0-0.1,0-0.2,0C106.2,157.7,106,157.8,105.9,157.8z"></path><path class="st2" d="M107.5,158.6c-0.3-0.3-0.3-0.7-0.1-0.9c0.1-0.1,0.3-0.2,0.4-0.2c0.2,0,0.4,0.1,0.5,0.2c-0.1,0.5,0,0.6-0.1,0.7
		S108,158.6,107.5,158.6z"></path><path class="st7" d="M109.2,165.3c0.5-0.7,1.4-0.9,2.1-0.6c1.2,0.7-0.7,3.8-2.6,3.4S109.2,165.3,109.2,165.3z"></path><path class="st2" d="M108.9,163.6c0.3,1.3,1.2,2.4,2.4,3c0.2,0.1,0.4,0.2,0.6,0.3s0.5,0.2,0.7,0.3c-0.5,0.2-1.1,0.2-1.6,0.1
		c-0.6-0.1-1.1-0.3-1.5-0.7C108.7,165.9,108.4,164.6,108.9,163.6z"></path><path class="st2" d="M106.4,152.6c0.2-0.9,0.8-1.6,1.7-1.8c0.9-0.2,1.8,0,2.4,0.7c-0.4,0.1-0.8,0.1-1.2,0.2c-0.3,0-0.7,0.1-1,0.2
		C107.7,152,107,152.3,106.4,152.6z"></path><path class="st7" d="M108.2,144c0,0-2.2,13.6-10.6,18.7c0,0,8,4.1,6.7,8.8s6.6,5.9,6.3,9.6l-40.8-3.2c0,0,3.5-11.4,11.3-11.6
		s-2.3-9,6.2-17.2S108.2,144,108.2,144z"></path><path class="st7" d="M67,177.6c0.5-2.1,1.4-4.1,2.7-5.8c1.3-1.8,2.9-3.4,4.9-4.5s4.3-1.6,6.6-1.4c2.2,0.3,4.3,1.1,6,2.6
		c-1.9-0.6-4-0.9-6-0.9c-1.9,0.1-3.8,0.6-5.5,1.6s-3.3,2.2-4.7,3.7C69.6,174.4,68.2,176,67,177.6z"></path><path class="st2" d="M108.2,144c0,2.6-0.4,5.3-1.3,7.8c-0.8,2.6-2,5-3.7,7.1c-0.9,1.1-1.8,2-2.9,2.9c-1.1,0.8-2.4,1.5-3.7,1.9
		c-2.6,0.8-5.4,0.8-7.9-0.2c2.5,0.1,5-0.4,7.3-1.5c2.2-1.1,4.1-2.6,5.5-4.6c1.5-2,2.8-4.1,3.8-6.4
		C106.4,148.8,107.3,146.4,108.2,144z"></path><polygon class="st2" points="106.2,180.7 96.1,181.8 96.3,179.9 	"></polygon><path class="st1" d="M137.5,213.1c0,0,5.4-34.1,8.3-34.7s25.3,2.3,25.3,5.4s-9.1,33.3-9.1,33.3L137.5,213.1z"></path><path class="st2" d="M152.8,452.4c0,0,36.7,0.4,34.8-0.9s-14.5-2.8-16.7-3.3s-9.4-8.9-9.4-8.9l-13.2,0.8L152.8,452.4z"></path><path class="st2" d="M151,250.6c0,0,2.4-28.5,0-27.8s-12.2,7.6-12.2,7.6s-22.7-37.7-28.7-38.8c0-2.3-0.2-4.6-1-5
		c-1.7-0.8-15.1-2.1-16.1-0.4c-0.7,1.2,0,4.3,0.9,6.3c-5.3,9,1.8,39.8,1.8,39.8l-5.8,28.5l43.2,1.8c0,0-0.8-3.3-2.2-8.6
		C137.4,254.4,151,250.6,151,250.6z"></path><path class="st0" d="M140.6,210c0,0,5.5-28,7.6-28.5s18.3,1.7,18.3,4.1s-7.4,27.8-7.4,27.8L140.6,210z"></path><path class="st5" d="M169.4,191.6c0,0,3.5,10.3,3.5,12.9s-2.3,10.4-3.5,13.2s-17.9,25-17.9,25l-0.6-19.9l11-9c0,0-1-16,0-16
		s3.8,8.1,3.8,8.1s3-1.2,3-3S167.8,191.9,169.4,191.6z"></path><path class="st2" d="M151,250.6c-2.9,1.5-6,2.7-9.1,3.7c-3.2,1.1-6.5,1.6-9.9,1.4c-1.9-0.1-3.6-0.8-5-2.1c-0.6-0.6-1.1-1.3-1.6-2
		l-1.5-2c-1.9-2.6-3.7-5.4-5.6-8.1c-3.6-5.5-7-11-10.2-16.7c-1.6-2.9-3.1-5.7-4.5-8.7c-0.7-1.5-1.3-3-1.9-4.5
		c-0.3-0.8-0.6-1.5-0.8-2.3c-0.3-0.8-0.3-1.6-0.2-2.4c0,0.8,0.2,1.6,0.5,2.3c0.3,0.8,0.6,1.5,1,2.2c0.7,1.4,1.5,2.9,2.3,4.3
		c1.6,2.8,3.3,5.6,5,8.3c3.5,5.5,7,10.9,10.6,16.4c1.8,2.7,3.6,5.4,5.4,8.1l1.4,2c0.5,0.6,1,1.4,1.4,1.9c1,1,2.4,1.6,3.8,1.7
		c3.2,0.3,6.3,0,9.4-0.8C144.8,252.6,147.9,251.7,151,250.6z"></path><path class="st5" d="M148.7,440.1c0,0,9.1,7,12.5,7.7s14.5,1.1,14.5,1.1s-5-1.9-5.8-2.6s-5.8-7.3-5.8-7.3L148.7,440.1z"></path><path class="st2" d="M149.4,201.5l4.3-5.1l5,5C158.6,201.4,153.7,205.8,149.4,201.5z"></path><path class="st8" d="M153.6,194.2l4-4.6c0,0,4.8,4.2,1,9.6L153.6,194.2z"></path><path class="st1" d="M149.3,199.2l8.4-9.6c0,0-2.2-2-6.6-0.8S146.2,196.8,149.3,199.2z"></path></g><g id="cat"><path class="st5" d="M351.4,376.5c0,0,5.4-7.3,6.6-7s0.7,10.1,0.7,10.1L351.4,376.5z"></path><path class="st2" d="M414,414.7c-3.9,10.9,5,23.2-1.3,28.7s-15,3.7-15,3.7c-0.8-24-26.2-36.9-32.5-43.7c-3.7-3.2-4-15-3.9-21.3
		c1.4-2.3,4.3-7.2,3.6-7.9s-4.1,0.7-6.6,1.7c-7.6-3.4-17,2.8-17,2.8l3.7,11.6c0,0-0.9,11-0.9,19.5c-3.5,16.8,1.7,38.9-0.4,39.7
		c-4.6,1.8,3,3.6,5.6,2.3s4.1-15.2,4.1-15.2l6.9,11l-3.6,1.3c-3.6,1.3-5.2,2.9,0,2.9s35.8-1.3,41.1,0c9.2,2.2,26-4,22.6-15.5
		s2.3-13.7,7.3-19.7S417.9,403.8,414,414.7z"></path></g></svg>